<?xml version="1.0" encoding="UTF-8"?>
<svg id="Calque_2" data-name="Calque 2" xmlns="http://www.w3.org/2000/svg" xmlns:xlink="http://www.w3.org/1999/xlink" viewBox="0 0 120.91 138.11">
  <defs>
    <style>
      .cls-1 {
        fill: url(#linear-gradient-2);
      }

      .cls-2 {
        fill: #0071b9;
      }

      .cls-3 {
        fill: #29a8df;
      }

      .cls-4 {
        fill: url(#linear-gradient-4);
      }

      .cls-5 {
        fill: url(#linear-gradient-3);
      }

      .cls-6 {
        fill: url(#linear-gradient-5);
      }

      .cls-7 {
        fill: none;
        stroke: #333652;
        stroke-linecap: round;
        stroke-linejoin: round;
        stroke-width: 1.76px;
      }

      .cls-8 {
        fill: url(#linear-gradient-6);
      }

      .cls-9 {
        fill: url(#linear-gradient);
      }
    </style>
    <linearGradient id="linear-gradient" x1="20.76" y1="58.98" x2="100.15" y2="58.98" gradientUnits="userSpaceOnUse">
      <stop offset="0" stop-color="#fec36f"/>
      <stop offset=".74" stop-color="#fdb054"/>
      <stop offset=".99" stop-color="#fda94a"/>
    </linearGradient>
    <linearGradient id="linear-gradient-2" x1="20.76" y1="54.68" x2="38.56" y2="54.68" gradientUnits="userSpaceOnUse">
      <stop offset="0" stop-color="#f06292"/>
      <stop offset=".13" stop-color="#e85689"/>
      <stop offset=".44" stop-color="#db4079"/>
      <stop offset=".73" stop-color="#d2336f"/>
      <stop offset="1" stop-color="#d02f6c"/>
    </linearGradient>
    <linearGradient id="linear-gradient-3" x1="39.09" y1="58.54" x2="51.74" y2="58.54" xlink:href="#linear-gradient-2"/>
    <linearGradient id="linear-gradient-4" x1="52.64" y1="58.48" x2="66.73" y2="58.48" xlink:href="#linear-gradient-2"/>
    <linearGradient id="linear-gradient-5" x1="68.61" y1="58.56" x2="82.3" y2="58.56" xlink:href="#linear-gradient-2"/>
    <linearGradient id="linear-gradient-6" x1="82.52" y1="58.52" x2="93.91" y2="58.52" xlink:href="#linear-gradient-2"/>
  </defs>
  <g id="Calque_1-2" data-name="Calque 1">
    <g>
      <g>
        <polygon class="cls-2" points="57.48 84.36 33.03 70.97 4.08 123.84 21.13 121.72 28.53 137.23 57.48 84.36"/>
        <polygon class="cls-2" points="63.44 84.36 87.89 70.97 116.84 123.84 99.78 121.72 92.39 137.23 63.44 84.36"/>
      </g>
      <g>
        <polygon class="cls-7" points="57.48 84.36 33.03 70.97 4.08 123.84 21.13 121.72 28.53 137.23 57.48 84.36"/>
        <polyline class="cls-7" points="99.8 92.72 116.84 123.84 99.78 121.72 92.39 137.23 78.03 111.01"/>
      </g>
      <polygon class="cls-3" points="120.03 58.98 109.96 70.28 114.14 84.83 100.15 90.63 97.61 105.56 82.49 104.73 73.71 117.07 60.46 109.75 47.2 117.07 38.43 104.73 23.31 105.56 20.76 90.63 6.77 84.83 10.95 70.28 .88 58.98 10.95 47.67 6.77 33.12 20.76 27.32 23.31 12.4 38.43 13.22 47.2 .88 60.46 8.21 73.71 .88 82.49 13.22 97.61 12.4 100.15 27.32 114.14 33.12 109.96 47.67 120.03 58.98"/>
      <circle class="cls-9" cx="60.46" cy="58.98" r="39.7"/>
      <polygon class="cls-7" points="120.03 58.98 109.96 70.28 114.14 84.83 100.15 90.63 97.61 105.56 82.49 104.73 73.71 117.07 60.46 109.75 47.2 117.07 38.43 104.73 23.31 105.56 20.76 90.63 6.77 84.83 10.95 70.28 .88 58.98 10.95 47.67 6.77 33.12 20.76 27.32 23.31 12.4 38.43 13.22 47.2 .88 60.46 8.21 73.71 .88 82.49 13.22 97.61 12.4 100.15 27.32 114.14 33.12 109.96 47.67 120.03 58.98"/>
    </g>
    <g>
      <path class="cls-1" d="M37.63,59.18c0,6.46-4.36,8.99-9.56,8.99h-7.31l.11-.74,2.31-.74h.03l3.23-24.04h-.03l-2.14-.78.11-.7h7.87c2.28,0,6.3.41,6.3,5.03,0,3.96-2.02,6.33-4.78,7.19,2.28.53,3.85,2.25,3.85,5.76ZM33.36,59.05c0-3.96-1.58-4.99-3.54-4.99h-.84l-1.74,13.04h.96c3.99,0,5.17-4.21,5.17-8.05ZM30.57,42.21l-1.43,10.75h1.52c2.42,0,3.65-3.27,3.65-6.34s-.79-4.41-2.73-4.41h-1.01Z"/>
      <path class="cls-5" d="M39.09,60.85c0-7.24,3.09-12.55,7.45-12.55,3.4,0,5.2,3.23,5.2,7.36,0,7.15-3.12,13.12-7.45,13.12-3.43,0-5.2-3.64-5.2-7.93ZM47.61,54.19c0-2.86-.37-4.9-1.27-4.9-2.19,0-3.23,8.79-3.23,13.16,0,3.07.39,5.44,1.35,5.44,2.05,0,3.15-9.12,3.15-13.69Z"/>
      <path class="cls-4" d="M66.73,66.7l-5.12,2.04-.73-.65,1.49-11.12c.28-2.13.36-3.52.36-4.78,0-1.02-.31-1.76-.84-1.76-1.69,0-3.4,7.11-4.56,12.14l-.73,5.6h-3.96l2.28-17.13-1.43.24.06-.86,5.34-2.13.31.29-1.07,8.09c1.04-4.17,2.7-8.46,5.4-8.46,1.97,0,2.98,1.92,3.06,4.7.03.94-.03,2.41-.2,3.6l-1.32,9.65,1.57-.33.08.86Z"/>
      <path class="cls-6" d="M81.48,65.84l.08.86-5.09,2.04-.76-.65.84-6.26c-.96,3.48-2.56,6.99-4.98,6.99-1.74,0-2.9-1.96-2.9-5.07,0-.98.06-2.04.23-3.23l1.32-9.65-1.55.33-.08-.86,5.06-2.04.73.65-1.49,11.12c-.28,2.13-.39,3.47-.39,4.54,0,1.47.25,2,.67,2,1.41,0,3.37-5.8,4.08-10.06l1.04-7.69h3.99l-2.39,17.33,1.57-.37Z"/>
      <path class="cls-8" d="M82.52,65.76l2.16-5.11.34.08.23,5.72c.51.82,1.24,1.27,2.19,1.27,1.83,0,2.42-1.68,2.42-3.03,0-3.6-5.74-4.58-5.74-10.06,0-3.88,2.98-6.34,6.04-6.34,2.02,0,3.4.94,3.74,1.55l-1.52,5.52-.34-.04-.93-5.56c-.2-.16-.59-.37-1.24-.37-1.38,0-2.64.94-2.64,2.62,0,3.88,5.74,4.21,5.74,10.1,0,3.93-2.61,6.62-5.68,6.62-2.28,0-4.5-1.72-4.78-2.98Z"/>
    </g>
  </g>
</svg>