<?xml version="1.0" encoding="UTF-8"?>
<svg id="Calque_2" data-name="Calque 2" xmlns="http://www.w3.org/2000/svg" xmlns:xlink="http://www.w3.org/1999/xlink" viewBox="0 0 142.82 144.54">
  <defs>
    <style>
      .cls-1 {
        fill: url(#linear-gradient-2);
      }

      .cls-2 {
        fill: #fff;
      }

      .cls-3 {
        fill: #333652;
      }

      .cls-4, .cls-5, .cls-6 {
        fill: none;
      }

      .cls-7 {
        fill: #ea9188;
      }

      .cls-8 {
        fill: #b8cc71;
      }

      .cls-9 {
        fill: #e3e3e3;
      }

      .cls-5 {
        stroke: #333652;
      }

      .cls-5, .cls-6 {
        stroke-linecap: round;
        stroke-linejoin: round;
        stroke-width: .89px;
      }

      .cls-6 {
        stroke: #7593aa;
      }

      .cls-10 {
        fill: #c5ddef;
      }

      .cls-11 {
        fill: #fad02c;
      }

      .cls-12 {
        fill: url(#linear-gradient);
      }

      .cls-13 {
        clip-path: url(#clippath);
      }

      .cls-14 {
        fill: #90adc6;
      }
    </style>
    <linearGradient id="linear-gradient" x1="97.85" y1="160.53" x2="97.85" y2="132.32" gradientTransform="translate(-102.5 7.46) rotate(-45.93)" gradientUnits="userSpaceOnUse">
      <stop offset="0" stop-color="#90adc6"/>
      <stop offset="1" stop-color="#7593aa"/>
    </linearGradient>
    <linearGradient id="linear-gradient-2" x1="98.96" y1="173.01" x2="98.96" y2="202.3" gradientTransform="translate(-102.5 7.46) rotate(-45.93)" gradientUnits="userSpaceOnUse">
      <stop offset="0" stop-color="#c5ddef"/>
      <stop offset=".88" stop-color="#f8fbfd"/>
      <stop offset="1" stop-color="#fff"/>
    </linearGradient>
    <clipPath id="clippath">
      <path class="cls-4" d="M92.44,34.54l-.78,4.79c-.78,4.8-5.3,8.05-10.09,7.27h0c-4.8-.78-8.05-5.3-7.27-10.09l.78-4.79-2.67-.43-4.3,26.49c-.3,1.82.94,3.54,2.76,3.83l16.11,2.62c1.82.3,3.54-.94,3.83-2.76l4.3-26.49-2.67-.43Z"/>
    </clipPath>
  </defs>
  <g id="Calque_1-2" data-name="Calque 1">
    <g>
      <g>
        <path class="cls-14" d="M58.68,144.09C46.52,124.47,20.45,99.23.45,87.71c0,0,21.35-3.61,48.5,4.96,0,0,14.33,34.62,9.73,51.42"/>
        <path class="cls-5" d="M58.68,144.09C46.52,124.47,20.45,99.23.45,87.71c0,0,21.35-3.61,48.5,4.96,0,0,14.33,34.62,9.73,51.42"/>
        <path class="cls-12" d="M128.25,3.4c-.04-1.01-1.23-2.28-2.33-2.48-16.05-3.02-40.95,8.55-61.97,30.26-9.81,10.13-13.31,28.63-18.03,41.7-5.29,14.65-10.92,23.63-4.8,29.49,0,0,0,0,0,0L128.64,13.56l-.39-10.16Z"/>
        <path class="cls-1" d="M41.12,102.37c6.05,5.79,16.51,1.52,30.91-4.21,12.91-5.14,30.52-10.04,41.09-19.37,25.81-22.77,34.15-52.91,26.42-68.1-.6-1.18-2.07-2.01-2.81-1.6l-8.09,4.47L41.12,102.37Z"/>
        <path class="cls-14" d="M59.18,37.45c1.41-2.31,2.98-4.43,4.77-6.27,4.67-4.83,9.54-9.15,14.45-12.92-5.6-1.56-23.66-5.82-37.25-.48,0,0,10.93,9.67,18.03,19.67Z"/>
        <path class="cls-14" d="M45.92,72.88c1.74-4.82,3.31-10.37,5.1-15.97-3.43.48-12.38,2.53-19.8,11.16,0,0,6.91,3.78,13.95,6.85.25-.67.5-1.34.75-2.03Z"/>
        <path class="cls-14" d="M71.95,97.81c-2.09.83-4.1,1.63-6.02,2.38,13.39,9.06,27.68,12.71,27.68,12.71.96-6.07-.84-18.85-1.45-22.92-7.01,2.68-14.16,5.42-20.21,7.83Z"/>
        <circle class="cls-3" cx="104.07" cy="14.34" r="3.02"/>
        <path class="cls-5" d="M62.92,32.3c-9.03,10.33-12.45,27.98-17,40.58-5.29,14.65-10.92,23.63-4.8,29.49,0,0,0,0,0,0"/>
        <path class="cls-5" d="M128.64,13.56l-.39-10.16c-.04-1.01-1.23-2.28-2.33-2.48-13.45-2.53-33.12,5.19-51.51,20.53"/>
        <path class="cls-5" d="M86.62,92.61c9.57-3.69,19.41-7.96,26.51-13.82,26.29-21.7,34.15-52.91,26.42-68.1-.6-1.18-2.07-2.01-2.81-1.6l-8.09,4.47"/>
        <path class="cls-5" d="M41.12,102.37c6.05,5.79,16.51,1.52,30.91-4.21"/>
        <path class="cls-5" d="M75.91,20.22c.83-.67,1.66-1.32,2.49-1.96-5.6-1.56-23.66-5.82-37.25-.48,0,0,10.93,9.67,18.03,19.67"/>
        <path class="cls-5" d="M37.25,62.54c-2.03,1.45-4.08,3.26-6.03,5.53,0,0,6.91,3.78,13.95,6.85.25-.67.5-1.34.75-2.03,1.74-4.82,3.31-10.37,5.1-15.97-2.31.32-7.13,1.36-12.29,4.64"/>
        <g>
          <path class="cls-14" d="M124.59,59.7c-1.73,6.44-4,16.88-2.93,24.28,0,0,13.29-10.19,15.87-15.65,1.51-3.2-2.6-7.61-6.26-10.71-2.32-1.96-5.89-.84-6.68,2.09Z"/>
          <path class="cls-5" d="M131.69,58.04c-.24-.21-.49-.43-.73-.63-2.32-1.97-5.9-.86-6.69,2.08-1.73,6.44-4,16.88-2.93,24.28,0,0,13.29-10.19,15.87-15.65,1.09-2.31-.75-5.25-3.23-7.88"/>
        </g>
        <path class="cls-5" d="M66.01,100.54c13.39,9.06,27.68,12.71,27.68,12.71.96-6.07-.72-18.29-1.34-22.36"/>
        <circle class="cls-5" cx="104.76" cy="13.63" r="3.02"/>
        <circle class="cls-10" cx="104.13" cy="12.82" r="1.14"/>
      </g>
      <g>
        <path class="cls-6" d="M106.89,42.79c-1.38,1.43-3.65,1.46-5.08.08s-1.46-3.65-.08-5.08"/>
        <path class="cls-6" d="M101.73,37.79c-1.38,1.43-3.65,1.46-5.08.08s-1.46-3.65-.08-5.08"/>
        <path class="cls-6" d="M101.81,42.87c-1.38,1.43-3.65,1.46-5.08.08s-1.46-3.65-.08-5.08"/>
        <path class="cls-6" d="M96.57,32.8c-1.38,1.43-3.65,1.46-5.08.08s-1.46-3.65-.08-5.08"/>
        <path class="cls-6" d="M91.41,27.8c-1.38,1.43-3.65,1.46-5.08.08s-1.46-3.65-.08-5.08"/>
        <path class="cls-6" d="M91.49,32.88c-1.38,1.43-3.65,1.46-5.08.08s-1.46-3.65-.08-5.08"/>
        <path class="cls-6" d="M96.65,37.88c-1.38,1.43-3.65,1.46-5.08.08s-1.46-3.65-.08-5.08"/>
      </g>
      <g>
        <path class="cls-6" d="M96.77,84.06c-1.38,1.43-3.65,1.46-5.08.08s-1.46-3.65-.08-5.08"/>
        <path class="cls-6" d="M91.61,79.07c-1.38,1.43-3.65,1.46-5.08.08s-1.46-3.65-.08-5.08"/>
        <path class="cls-6" d="M91.69,84.15c-1.38,1.43-3.65,1.46-5.08.08s-1.46-3.65-.08-5.08"/>
        <path class="cls-6" d="M86.44,74.07c-1.38,1.43-3.65,1.46-5.08.08s-1.46-3.65-.08-5.08"/>
        <path class="cls-6" d="M81.28,69.07c-1.38,1.43-3.65,1.46-5.08.08s-1.46-3.65-.08-5.08"/>
        <path class="cls-6" d="M81.36,74.15c-1.38,1.43-3.65,1.46-5.08.08s-1.46-3.65-.08-5.08"/>
        <path class="cls-6" d="M86.53,79.15c-1.38,1.43-3.65,1.46-5.08.08s-1.46-3.65-.08-5.08"/>
      </g>
      <g>
        <path class="cls-6" d="M72.65,86.25c-1.38,1.43-3.65,1.46-5.08.08s-1.46-3.65-.08-5.08"/>
        <path class="cls-6" d="M67.49,81.26c-1.38,1.43-3.65,1.46-5.08.08s-1.46-3.65-.08-5.08"/>
        <path class="cls-6" d="M62.33,76.26c-1.38,1.43-3.65,1.46-5.08.08s-1.46-3.65-.08-5.08"/>
        <path class="cls-6" d="M62.41,81.34c-1.38,1.43-3.65,1.46-5.08.08s-1.46-3.65-.08-5.08"/>
        <path class="cls-6" d="M67.57,86.34c-1.38,1.43-3.65,1.46-5.08.08s-1.46-3.65-.08-5.08"/>
      </g>
      <path class="cls-2" d="M56.88,79.9c-.64,4.01,1.07,7.61,3.82,8.05,2.75.44,5.5-2.46,6.14-6.47.45-2.81-.26-5.43-1.68-6.89-.47-.48-.69-1.15-.58-1.81l2.4-14.62c.13-.79-.41-1.53-1.2-1.65h0c-.79-.13-1.53.41-1.65,1.2l-2.4,14.62c-.11.66-.52,1.22-1.12,1.54-1.8.95-3.29,3.21-3.74,6.03Z"/>
      <path class="cls-11" d="M43.44,95.13l7.5-1.05.27,1.22-7.27,1.95c-.29.08-.46.36-.39.65h0c.06.29.35.48.64.42l7.41-1.35.27,1.22-7.22,2.26c-.27.09-.44.37-.37.65h0c.07.3.36.48.66.42l7.32-1.64,4.55-1.02c1.24-.28,2.2-1.13,2.67-2.21.29-.67.89-1.15,1.6-1.31l17.94-4.03c.72-.16,1.17-.87,1.01-1.59h0c-.16-.72-.87-1.17-1.59-1.01l-17.94,4.03c-.71.16-1.46-.02-2.01-.5-.89-.77-2.12-1.13-3.36-.85l-4.55,1.02h0l-7.32,1.64c-.3.07-.48.36-.42.66h0c.06.28.33.46.61.42Z"/>
      <g>
        <g>
          <path class="cls-8" d="M84.23,71.4c-.07.43.22.83.65.89l3.31.52.48-3.05-4.08-.67-.36,2.31Z"/>
          <path class="cls-2" d="M84.91,67.08l-.32,2.01,4.08.67.44-2.81-3.31-.52c-.43-.07-.83.22-.89.65Z"/>
          <path class="cls-8" d="M89.2,72.11c.86.14,1.56.73,1.87,1.54.83,2.18,2.77,3.86,5.23,4.25.57.09.65-.45,1.22-.36.57.09.48.63,1.05.72s.65-.45,1.22-.36c.57.09.48.63,1.05.72.57.09.65-.45,1.22-.36.57.09.48.63,1.05.72.57.09.65-.45,1.22-.36.57.09.48.63,1.05.72l2.59.41c1.36.22,2.64-.72,2.86-2.08.14-.88-.2-1.72-.81-2.26.74-.33,1.31-1.01,1.46-1.86l-21.96-3.63-.35,2.2Z"/>
          <path class="cls-2" d="M92.12,67.06c-.54.68-1.4,1.02-2.26.89l-.31,1.97,21.96,3.63s0-.03,0-.04c.14-.88-.2-1.72-.81-2.26.76-.33,1.33-1.03,1.47-1.9.22-1.36-.72-2.64-2.08-2.86l-2.59-.41c-.57-.09-.65.45-1.22.36-.57-.09-.48-.63-1.05-.72-.57-.09-.65.45-1.22.36-.57-.09-.48-.63-1.05-.72-.57-.09-.65.45-1.22.36-.57-.09-.48-.63-1.05-.72-.57-.09-.65.45-1.22.36-.57-.09-.48-.63-1.05-.72-2.47-.39-4.83.62-6.29,2.43Z"/>
        </g>
        <g>
          <path class="cls-5" d="M109.43,70.64c1.36.22,2.3,1.5,2.08,2.86-.22,1.36-1.5,2.3-2.86,2.08"/>
          <g>
            <path class="cls-5" d="M100.86,78.62c.57.09.65-.45,1.22-.36.57.09.48.63,1.05.72.57.09.65-.45,1.22-.36.57.09.48.63,1.05.72l2.59.41c1.36.22,2.64-.72,2.86-2.08.14-.88-.2-1.72-.81-2.26"/>
            <path class="cls-5" d="M102.95,65.34c.57.09.48.63,1.05.72.57.09.65-.45,1.22-.36.57.09.48.63,1.05.72.57.09.65-.45,1.22-.36l2.59.41c1.36.22,2.3,1.5,2.08,2.86-.14.88-.72,1.57-1.47,1.9"/>
          </g>
          <path class="cls-5" d="M98.4,64.63c-2.47-.39-4.83.62-6.29,2.43-.54.68-1.4,1.02-2.26.89"/>
          <path class="cls-5" d="M96.31,77.9c.57.09.65-.45,1.22-.36.57.09.48.63,1.05.72.57.09.65-.45,1.22-.36.57.09.48.63,1.05.72"/>
          <path class="cls-5" d="M89.2,72.11c.86.14,1.57.73,1.87,1.54.83,2.18,2.77,3.86,5.23,4.25"/>
          <path class="cls-5" d="M86.61,67.5h0c1.64,0,2.97,1.33,2.97,2.97v1.16h-5.94v-1.16c0-1.64,1.33-2.97,2.97-2.97Z" transform="translate(4.39 144.26) rotate(-81.02)"/>
          <line class="cls-5" x1="89.07" y1="72.96" x2="89.99" y2="67.09"/>
          <path class="cls-5" d="M98.4,64.63c.57.09.48.63,1.05.72.57.09.65-.45,1.22-.36.57.09.48.63,1.05.72.57.09.65-.45,1.22-.36"/>
        </g>
        <line class="cls-5" x1="99.06" y1="66.74" x2="98.1" y2="72.79"/>
        <line class="cls-5" x1="101.42" y1="67.11" x2="100.46" y2="73.16"/>
        <line class="cls-5" x1="103.78" y1="67.48" x2="102.83" y2="73.53"/>
      </g>
      <g>
        <polygon class="cls-2" points="60.41 42.22 60.05 43.17 64.51 46.5 59.04 45.88 53.53 60.61 60.34 63.15 67.21 44.76 60.41 42.22"/>
        <path class="cls-7" d="M68.9,42.3c-.68-.26-1.05.72-1.73.46-.68-.26-.32-1.23-1-1.48-.68-.26-1.05.72-1.73.46-.68-.26-.32-1.23-1-1.48-.68-.26-1.05.72-1.73.46s-.32-1.23-1-1.48l-.32,2.97,6.81,2.54,1.71-2.45Z"/>
        <path class="cls-7" d="M51.81,63.05c.68.26,1.05-.72,1.73-.46.68.26.32,1.23,1,1.48.68.26,1.05-.72,1.73-.46.68.26.32,1.23,1,1.48.68.26,1.05-.72,1.73-.46.68.26.32,1.23,1,1.48l.32-2.97-6.81-2.54-1.71,2.45Z"/>
        <polygon class="cls-5" points="60.37 42.25 60.02 43.2 64.48 46.53 59 45.91 53.5 60.64 60.31 63.18 67.18 44.79 60.37 42.25"/>
        <path class="cls-5" d="M68.89,42.34c-.68-.26-1.05.72-1.73.46-.68-.26-.32-1.23-1-1.48-.68-.26-1.05.72-1.73.46-.68-.26-.32-1.23-1-1.48-.68-.26-1.05.72-1.73.46-.68-.26-.32-1.23-1-1.48l-.32,2.97,6.81,2.54,1.71-2.45Z"/>
        <path class="cls-5" d="M51.79,63.09c.68.26,1.05-.72,1.73-.46s.32,1.23,1,1.48c.68.26,1.05-.72,1.73-.46.68.26.32,1.23,1,1.48.68.26,1.05-.72,1.73-.46.68.26.32,1.23,1,1.48l.32-2.97-6.81-2.54-1.71,2.45Z"/>
        <polyline class="cls-5" points="59 45.91 64.48 46.53 60.02 43.2"/>
      </g>
      <g>
        <g class="cls-13">
          <g>
            <path class="cls-11" d="M70.62,30.69h3.84v30.62h0c-2.12,0-3.84-1.72-3.84-3.84v-26.78h0Z" transform="translate(8.31 -11.03) rotate(9.22)"/>
            <rect class="cls-2" x="74.41" y="31.31" width="3.84" height="30.62" transform="translate(8.46 -11.63) rotate(9.22)"/>
            <rect class="cls-11" x="78.2" y="31.92" width="3.84" height="30.62" transform="translate(8.6 -12.23) rotate(9.22)"/>
            <rect class="cls-2" x="81.99" y="32.54" width="3.84" height="30.62" transform="translate(8.75 -12.83) rotate(9.22)"/>
            <path class="cls-2" d="M89.53,33.76h3.84v26.78c0,2.12-1.72,3.84-3.84,3.84h0v-30.62h0Z" transform="translate(9.05 -14.02) rotate(9.22)"/>
            <rect class="cls-11" x="85.77" y="33.15" width="3.84" height="30.62" transform="translate(8.9 -13.43) rotate(9.22)"/>
          </g>
        </g>
        <path class="cls-5" d="M82.46,44.65c-4.8-.78-8.05-5.3-7.27-10.09l.58-3.55"/>
        <path class="cls-5" d="M93.13,33.83l-.58,3.55c-.78,4.8-5.3,8.05-10.09,7.27"/>
        <path class="cls-5" d="M93.13,33.83l-.78,4.79c-.78,4.8-5.3,8.05-10.09,7.27h0c-4.8-.78-8.05-5.3-7.27-10.09l.78-4.79-2.67-.43-4.3,26.49c-.3,1.82.94,3.54,2.76,3.83l16.11,2.62c1.82.3,3.54-.94,3.83-2.76l4.3-26.49-2.67-.43Z"/>
      </g>
      <g>
        <g>
          <path class="cls-10" d="M93.73,30.96c.51-.39.61-1.12.22-1.64l-6.16-8.12c-.52-.69-1.43-.9-2.19-.58-.24.1-.53.04-.68-.17l-.52-.69-2.66,2.02,8.89,11.53,3.1-2.35Z"/>
          <path class="cls-2" d="M81.76,21.75l-3.18,2.41.52.69c.16.21.15.5-.02.71-.52.64-.55,1.58-.03,2.26l6.16,8.12c.39.51,1.12.61,1.64.22l3.8-2.89-8.89-11.53Z"/>
          <polygon class="cls-10" points="84.76 19.48 83.37 17.64 80.32 19.95 81.73 21.78 84.76 19.48"/>
          <polygon class="cls-2" points="80.32 19.95 76.78 22.64 78.18 24.48 81.73 21.78 80.32 19.95"/>
        </g>
        <g>
          <path class="cls-5" d="M78.55,24.2l.52.69c.16.21.15.5-.02.71-.52.64-.55,1.58-.03,2.26l6.16,8.12c.39.51,1.12.61,1.64.22l6.9-5.24c.51-.39.61-1.12.22-1.64l-6.16-8.12c-.52-.69-1.43-.9-2.19-.58-.24.1-.53.04-.68-.17l-.52-.69"/>
          <polyline class="cls-5" points="78.18 24.48 76.78 22.64 78.91 21.02 79.85 20.31 83.37 17.64 84.76 19.48"/>
        </g>
        <line class="cls-5" x1="77.57" y1="24.29" x2="84.44" y2="18.44"/>
      </g>
      <g>
        <polygon class="cls-7" points="79.21 65.85 67.85 70.2 75.63 87.07 84.68 83.61 79.21 65.85"/>
        <rect class="cls-7" x="66.72" y="67.01" width="13.25" height="1.05" transform="translate(-19.29 30.67) rotate(-20.94)"/>
        <polygon class="cls-2" points="73.53 68.03 67.85 70.2 75.63 87.07 80.15 85.34 73.53 68.03"/>
        <rect class="cls-2" x="66.93" y="68.19" width="6.63" height="1.05" transform="translate(-19.92 29.64) rotate(-20.94)"/>
        <polygon class="cls-5" points="79.21 65.85 67.85 70.2 75.63 87.07 84.68 83.61 79.21 65.85"/>
        <rect class="cls-5" x="66.72" y="67.01" width="13.25" height="1.05" transform="translate(-19.29 30.67) rotate(-20.94)"/>
      </g>
      <path class="cls-5" d="M56.88,79.9c-.64,4.01,1.07,7.61,3.82,8.05,2.75.44,5.5-2.46,6.14-6.47.45-2.81-.26-5.43-1.68-6.89-.47-.48-.69-1.15-.58-1.81l2.4-14.62c.13-.79-.41-1.53-1.2-1.65h0c-.79-.13-1.53.41-1.65,1.2l-2.4,14.62c-.11.66-.52,1.22-1.12,1.54-1.8.95-3.29,3.21-3.74,6.03Z"/>
      <path class="cls-5" d="M43.44,95.13l7.5-1.05.27,1.22-7.27,1.95c-.29.08-.46.36-.39.65h0c.06.29.35.48.64.42l7.41-1.35.27,1.22-7.22,2.26c-.27.09-.44.37-.37.65h0c.07.3.36.48.66.42l7.32-1.64,4.55-1.02c1.24-.28,2.2-1.13,2.67-2.21.29-.67.89-1.15,1.6-1.31l17.94-4.03c.72-.16,1.17-.87,1.01-1.59h0c-.16-.72-.87-1.17-1.59-1.01l-17.94,4.03c-.71.16-1.46-.02-2.01-.5-.89-.77-2.12-1.13-3.36-.85l-4.55,1.02h0l-7.32,1.64c-.3.07-.48.36-.42.66h0c.06.28.33.46.61.42Z"/>
      <g>
        <path class="cls-2" d="M105.81,52.34l4.68,8.26c.38.68.1,1.54-.61,1.86l-1.93.88c-.67.3-1.45,0-1.76-.66l-3.96-8.72,3.58-1.63Z"/>
        <rect class="cls-2" x="103.12" y="51.26" width="1.28" height="2.62" transform="translate(108.72 -63.64) rotate(65.58)"/>
        <path class="cls-11" d="M108.31,55.32l4.19-1.9c.25-.11.42-.33.48-.6l1.42-6.72c.06-.26.23-.49.48-.6l11.55-5.24c.43-.19.93,0,1.13.42l4.65,10.23c.21.46-.03,1-.51,1.16l-21.41,6.72-1.97-3.47Z"/>
        <path class="cls-2" d="M106.49,53.54s3.22-1.55,3.69-4.38c0,0,1.18,3.52-2.96,5.66l-.72-1.28Z"/>
        <path class="cls-5" d="M105.75,52.41l4.68,8.26c.38.68.1,1.54-.61,1.86l-1.93.88c-.67.3-1.45,0-1.76-.66l-3.96-8.72,3.58-1.63Z"/>
        <rect class="cls-5" x="103.05" y="51.33" width="1.28" height="2.62" transform="translate(108.75 -63.54) rotate(65.58)"/>
        <path class="cls-5" d="M108.25,55.38l4.19-1.9c.25-.11.42-.33.48-.6l1.42-6.72c.06-.26.23-.49.48-.6l11.55-5.24c.43-.19.93,0,1.13.42l4.65,10.23c.21.46-.03,1-.51,1.16l-21.41,6.72"/>
        <path class="cls-5" d="M106.42,53.6s3.22-1.55,3.69-4.38c0,0,1.18,3.52-2.96,5.66l-.72-1.28Z"/>
      </g>
      <g>
        <path class="cls-2" d="M111.83,13.63h0c-.44-.06-.79-.4-.85-.84-.39-2.85-2.68-5.19-5.69-5.49-3.31-.34-6.36,1.97-6.94,5.24-.64,3.62,1.88,6.99,5.48,7.46,2.93.38,5.64-1.29,6.72-3.89.17-.41.59-.67,1.04-.61h0c.44.06.79.4.85.84.39,2.85,2.68,5.19,5.69,5.49,3.31.34,6.36-1.97,6.94-5.24.64-3.62-1.88-6.99-5.48-7.46-2.93-.38-5.64,1.29-6.72,3.89-.17.41-.59.67-1.04.61ZM104.28,18.43c-2.84-.22-4.85-2.83-4.35-5.63.43-2.4,2.64-4.1,5.07-3.92,2.84.22,4.85,2.83,4.35,5.63-.43,2.4-2.64,4.1-5.07,3.92ZM123.54,15.84c-.22,2.84-2.83,4.85-5.63,4.35-2.4-.43-4.1-2.64-3.92-5.07.22-2.84,2.83-4.85,5.63-4.35,2.4.43,4.1,2.64,3.92,5.07Z"/>
        <path class="cls-2" d="M110.28,25.69h0c-.44-.06-.79-.4-.85-.84-.39-2.85-2.68-5.19-5.69-5.49-3.31-.34-6.36,1.97-6.94,5.24-.64,3.62,1.88,6.99,5.48,7.46,2.93.38,5.64-1.29,6.72-3.89.17-.41.59-.67,1.04-.61h0c.44.06.79.4.85.84.39,2.85,2.68,5.19,5.69,5.49,3.31.34,6.36-1.97,6.94-5.24.64-3.62-1.88-6.99-5.48-7.46-2.93-.38-5.64,1.29-6.72,3.89-.17.41-.59.67-1.04.61ZM102.73,30.49c-2.84-.22-4.85-2.83-4.35-5.63.43-2.4,2.64-4.1,5.07-3.92,2.84.22,4.85,2.83,4.35,5.63-.43,2.4-2.64,4.1-5.07,3.92ZM121.99,27.89c-.22,2.84-2.83,4.85-5.63,4.35-2.4-.43-4.1-2.64-3.92-5.07.22-2.84,2.83-4.85,5.63-4.35,2.4.43,4.1,2.64,3.92,5.07Z"/>
      </g>
      <path class="cls-5" d="M119.58,9.13c-2.93-.38-5.64,1.29-6.72,3.89-.17.41-.59.67-1.04.61-.44-.06-.79-.4-.85-.84-.39-2.85-2.68-5.19-5.69-5.49-3.31-.34-6.36,1.97-6.94,5.24-.52,2.93,1.03,5.7,3.55,6.89-2.54.49-4.64,2.51-5.1,5.16-.64,3.62,1.88,6.99,5.48,7.46,2.93.38,5.64-1.29,6.72-3.89.17-.41.59-.67,1.04-.61h0c.44.06.79.4.85.84.39,2.85,2.68,5.19,5.69,5.49,3.31.34,6.36-1.97,6.94-5.24.52-2.93-1.03-5.7-3.55-6.89,2.54-.49,4.64-2.51,5.1-5.16.64-3.62-1.88-6.99-5.48-7.46ZM99.93,12.8c.43-2.4,2.64-4.1,5.07-3.92,2.84.22,4.85,2.83,4.35,5.63-.43,2.4-2.64,4.1-5.07,3.92-2.84-.22-4.85-2.83-4.35-5.63ZM112.43,16.34c.29,2.14,1.65,3.99,3.59,4.91-2.1.4-3.89,1.84-4.71,3.83-.17.41-.59.67-1.04.61h0c-.44-.06-.79-.4-.85-.84-.29-2.14-1.65-3.99-3.59-4.91,2.1-.4,3.89-1.84,4.71-3.83.17-.41.59-.67,1.04-.61.44.06.79.4.85.84ZM107.8,26.57c-.43,2.4-2.64,4.1-5.07,3.92-2.84-.22-4.85-2.83-4.35-5.63.43-2.4,2.64-4.1,5.07-3.92,2.84.22,4.85,2.83,4.35,5.63ZM121.99,27.89c-.22,2.84-2.83,4.85-5.63,4.35-2.4-.43-4.1-2.64-3.92-5.07.22-2.84,2.83-4.85,5.63-4.35,2.4.43,4.1,2.64,3.92,5.07ZM123.54,15.84c-.22,2.84-2.83,4.85-5.63,4.35-2.4-.43-4.1-2.64-3.92-5.07.22-2.84,2.83-4.85,5.63-4.35,2.4.43,4.1,2.64,3.92,5.07Z"/>
      <g>
        <path class="cls-2" d="M29.71,91.33h0c0,.29.2.53.49.58l.81.14c.29.05.49.29.49.58v.82c0,.29.2.53.49.58l.81.14c.29.05.49.29.49.58v.82c0,.29.2.53.49.58l.81.14c.29.05.49.29.49.58v.82c0,.29.2.53.49.58l.81.14c.29.05.49.29.49.58v.82c0,.29.2.53.49.58h0c.53.09.67.75.23,1.12l-3.48,2.93c-.65.55-1.58.52-2.08-.07l-7.13-8.46c-.5-.59-.37-1.51.28-2.06l3.48-2.93c.44-.37,1.07-.13,1.07.41Z"/>
        <path class="cls-5" d="M29.71,91.33h0c0,.29.2.53.49.58l.81.14c.29.05.49.29.49.58v.82c0,.29.2.53.49.58l.81.14c.29.05.49.29.49.58v.82c0,.29.2.53.49.58l.81.14c.29.05.49.29.49.58v.82c0,.29.2.53.49.58l.81.14c.29.05.49.29.49.58v.82c0,.29.2.53.49.58h0c.53.09.67.75.23,1.12l-3.48,2.93c-.65.55-1.58.52-2.08-.07l-7.13-8.46c-.5-.59-.37-1.51.28-2.06l3.48-2.93c.44-.37,1.07-.13,1.07.41Z"/>
        <g>
          <path class="cls-2" d="M36.37,98.4l-.97-.16c-.21-.03-.43.03-.6.18l-4.23,3.78c-.54.48-.19.88.24,1.38h0c.42.5.76.92,1.33.47l4.44-3.53c.17-.14.28-.35.28-.56v-.98c0-.29-.2-.53-.49-.58Z"/>
          <path class="cls-2" d="M32.8,94.16l-.97-.16c-.21-.03-.43.03-.6.18l-4.23,3.78c-.54.48-.19.88.24,1.38h0c.42.5.76.92,1.33.47l4.44-3.53c.18-.14.28-.35.28-.56v-.98c0-.29-.2-.53-.49-.58Z"/>
          <path class="cls-2" d="M31.01,92.04l-.97-.16c-.21-.03-.43.03-.6.18l-4.23,3.78c-.54.48-.19.88.24,1.38h0c.42.5.76.92,1.33.47l4.44-3.53c.18-.14.28-.35.28-.56v-.98c0-.29-.2-.53-.49-.58Z"/>
          <path class="cls-2" d="M34.58,96.28l-.97-.16c-.21-.03-.43.03-.6.18l-4.23,3.78c-.54.48-.19.88.24,1.38h0c.42.5.76.92,1.33.47l4.44-3.53c.18-.14.28-.35.28-.56v-.98c0-.29-.2-.53-.49-.58Z"/>
        </g>
        <g>
          <path class="cls-5" d="M30.81,103.58h0c.42.5.76.92,1.33.47l4.44-3.53c.17-.14.28-.35.28-.56v-.98c0-.29-.2-.53-.49-.58l-.97-.16c-.21-.03-.43.03-.6.18"/>
          <path class="cls-5" d="M33.01,96.28c.18-.14.28-.35.28-.56v-.98c0-.29-.2-.53-.49-.58l-.97-.16c-.21-.03-.43.03-.6.18l-4.23,3.78c-.54.48-.19.88.24,1.38h0"/>
          <path class="cls-5" d="M31.22,94.16c.18-.14.28-.35.28-.56v-.98c0-.29-.2-.53-.49-.58l-.97-.16c-.21-.03-.43.03-.6.18l-4.23,3.78c-.54.48-.19.88.24,1.38h0"/>
          <path class="cls-5" d="M34.58,96.28l-.97-.16c-.21-.03-.43.03-.6.18l-4.23,3.78c-.54.48-.19.88.24,1.38h0c.42.5.76.92,1.33.47l4.44-3.53c.18-.14.28-.35.28-.56v-.98c0-.29-.2-.53-.49-.58Z"/>
        </g>
        <path class="cls-11" d="M54.69,133.84l-32.03-37.99c-.29-.34-.12-.96.38-1.38h0c.5-.42,1.14-.48,1.43-.14l33.07,37.12c.29.34.12.96-.38,1.38h0c-.5.42-2.18,1.36-2.47,1.02Z"/>
        <path class="cls-5" d="M54.93,129.97l1.92,2.18c.29.34.22.88-.16,1.2h0c-.38.32-1.71.97-2,.63l-32.03-37.99c-.29-.34-.22-.88.16-1.2h0c.38-.32.92-.3,1.21.04l20.88,23.74"/>
      </g>
      <g>
        <circle class="cls-2" cx="110.98" cy="41.56" r="3.55" transform="translate(-4.68 67.39) rotate(-33.12)"/>
        <circle class="cls-5" cx="110.98" cy="41.56" r="3.55" transform="translate(-4.68 67.39) rotate(-33.12)"/>
      </g>
      <g>
        <path class="cls-2" d="M47.19,89.13l-1.77-1.09,10.1-16.38c.2-.33.05-.61-.03-.71-.08-.1-.3-.33-.67-.24l-5.81,1.53-.53-2.01,5.81-1.53c1.08-.28,2.21.11,2.87,1.01.67.9.72,2.09.13,3.04l-10.1,16.38Z"/>
        <path class="cls-5" d="M47.19,89.13l-1.77-1.09,10.1-16.38c.2-.33.05-.61-.03-.71-.08-.1-.3-.33-.67-.24l-5.81,1.53-.53-2.01,5.81-1.53c1.08-.28,2.21.11,2.87,1.01.67.9.72,2.09.13,3.04l-10.1,16.38Z"/>
      </g>
      <path class="cls-7" d="M135.07,15.29s-.03,0-.04,0c-.69-.06-.79-.61-.8-.67-.04-.27-.26-.49-.54-.51l-1.2-.1c-.31-.03-.59.2-.64.51h0c-.06.41-.58,4.04-.72,5.64,0,.01,0,.02,0,.03,0,.11-.02.22-.03.33-.1,1.13-.15,2.31.09,3.32.04.19.08.37.11.54v.02c.22,1.03.35,1.65.26,2.73-.09,1.07-.33,1.67-.72,2.64-.07.17-.14.34-.21.53-.41.95-.56,2.13-.66,3.25,0,.11-.02.22-.03.33,0,.01,0,.02,0,.03-.14,1.67-.25,5.64-.25,5.68,0,.31.23.58.54.61l1.2.1c.28.02.53-.14.62-.41.02-.06.22-.59.91-.53.01,0,.03,0,.04,0,1.42.09,2.8-.38,3.89-1.34.12-.1.23-.21.33-.32.89-.92,1.44-2.12,1.55-3.41.13-1.48-.27-2.91-1.13-4.01-.65-.85-1.53-1.45-2.55-1.76-1.27-.5-1.29-1.15-1.28-1.21,0,0,0-.02,0-.03h0c.01-.08.15-.69,1.47-.97,1.05-.13,2.02-.57,2.81-1.3,1.03-.94,1.67-2.28,1.8-3.76.12-1.45-.31-2.87-1.22-4-.91-1.12-2.19-1.83-3.6-1.98ZM134.41,25.16s-.07,0-.1,0c-.04,0-.07,0-.1-.01h-.03s-.05,0-.07-.01h-.03s-.05-.01-.07-.02h-.02s-.05-.01-.08-.02h-.01c-.58-.12-.98-.38-1.25-.8h0s-.02-.04-.03-.05l-.03-.05c-.37-.68-.46-1.76-.3-3.59,0-.1.02-.2.03-.3v-.04c.13-1.36.29-2.19.54-2.77.02-.04.04-.09.06-.13.34-.66.83-.94,1.65-.93.03,0,.05,0,.08,0h.01s.05,0,.07,0h.02s.06,0,.1,0c0,0,.02,0,.02,0h.06c2.28.25,3.97,2.35,3.77,4.7-.18,2.15-1.61,3.75-3.55,3.98-.01,0-.02,0-.04,0-.23.03-.47.03-.7.02ZM133.05,38.17h-.01s-.04,0-.05,0c-.03,0-.06,0-.09,0h-.02s-.05,0-.08-.01h0s-.05,0-.07-.01h-.01c-.8-.13-1.24-.49-1.46-1.2-.01-.04-.03-.09-.04-.13-.15-.61-.17-1.46-.06-2.82v-.02c.01-.11.02-.21.03-.32.16-1.83.43-2.87.91-3.48l.04-.04s.03-.03.04-.04h0c.34-.38.77-.56,1.36-.58h.01s.05,0,.08,0h.02s.05,0,.07,0h.03s.05,0,.08,0h.03s.07,0,.1,0c.03,0,.07,0,.1.01.24.03.47.07.69.14.01,0,.02,0,.04,0,1.87.56,3.01,2.38,2.82,4.53-.2,2.35-2.24,4.14-4.54,3.98Z"/>
      <path class="cls-5" d="M135.07,15.29s-.03,0-.04,0c-.69-.06-.79-.61-.8-.67-.04-.27-.26-.49-.54-.51l-1.2-.1c-.31-.03-.59.2-.64.51h0c-.06.41-.58,4.04-.72,5.64,0,.01,0,.02,0,.03,0,.11-.02.22-.03.33-.1,1.13-.15,2.31.09,3.32.04.19.08.37.11.54v.02c.22,1.03.35,1.65.26,2.73-.09,1.07-.33,1.67-.72,2.64-.07.17-.14.34-.21.53-.41.95-.56,2.13-.66,3.25,0,.11-.02.22-.03.33,0,.01,0,.02,0,.03-.14,1.67-.25,5.64-.25,5.68,0,.31.23.58.54.61l1.2.1c.28.02.53-.14.62-.41.02-.06.22-.59.91-.53.01,0,.03,0,.04,0,1.42.09,2.8-.38,3.89-1.34.12-.1.23-.21.33-.32.89-.92,1.44-2.12,1.55-3.41.13-1.48-.27-2.91-1.13-4.01-.65-.85-1.53-1.45-2.55-1.76-1.27-.5-1.29-1.15-1.28-1.21,0,0,0-.02,0-.03h0c.01-.08.15-.69,1.47-.97,1.05-.13,2.02-.57,2.81-1.3,1.03-.94,1.67-2.28,1.8-3.76.12-1.45-.31-2.87-1.22-4-.91-1.12-2.19-1.83-3.6-1.98ZM134.41,25.16s-.07,0-.1,0c-.04,0-.07,0-.1-.01h-.03s-.05,0-.07-.01h-.03s-.05-.01-.07-.02h-.02s-.05-.01-.08-.02h-.01c-.58-.12-.98-.38-1.25-.8h0s-.02-.04-.03-.05l-.03-.05c-.37-.68-.46-1.76-.3-3.59,0-.1.02-.2.03-.3v-.04c.13-1.36.29-2.19.54-2.77.02-.04.04-.09.06-.13.34-.66.83-.94,1.65-.93.03,0,.05,0,.08,0h.01s.05,0,.07,0h.02s.06,0,.1,0c0,0,.02,0,.02,0h.06c2.28.25,3.97,2.35,3.77,4.7-.18,2.15-1.61,3.75-3.55,3.98-.01,0-.02,0-.04,0-.23.03-.47.03-.7.02ZM133.05,38.17h-.01s-.04,0-.05,0c-.03,0-.06,0-.09,0h-.02s-.05,0-.08-.01h0s-.05,0-.07-.01h-.01c-.8-.13-1.24-.49-1.46-1.2-.01-.04-.03-.09-.04-.13-.15-.61-.17-1.46-.06-2.82v-.02c.01-.11.02-.21.03-.32.16-1.83.43-2.87.91-3.48l.04-.04s.03-.03.04-.04h0c.34-.38.77-.56,1.36-.58h.01s.05,0,.08,0h.02s.05,0,.07,0h.03s.05,0,.08,0h.03s.07,0,.1,0c.03,0,.07,0,.1.01.24.03.47.07.69.14.01,0,.02,0,.04,0,1.87.56,3.01,2.38,2.82,4.53-.2,2.35-2.24,4.14-4.54,3.98Z"/>
      <g>
        <circle class="cls-2" cx="97.27" cy="54.11" r="1.12"/>
        <circle class="cls-5" cx="97.96" cy="53.4" r="1.12"/>
      </g>
      <g>
        <circle class="cls-2" cx="69.52" cy="64.53" r="1.12"/>
        <circle class="cls-5" cx="70.21" cy="63.82" r="1.12" transform="translate(-23.33 47.95) rotate(-32.64)"/>
      </g>
      <g>
        <circle class="cls-2" cx="52.9" cy="87.07" r="1.12"/>
        <circle class="cls-5" cx="53.59" cy="86.36" r="1.12" transform="translate(-38.12 42.55) rotate(-32.64)"/>
      </g>
      <g>
        <circle class="cls-2" cx="100.19" cy="60.03" r="1.12" transform="translate(-16.55 63.52) rotate(-32.64)"/>
        <circle class="cls-5" cx="100.88" cy="59.31" r="1.12"/>
      </g>
      <g>
        <circle class="cls-2" cx="116.58" cy="37.8" r="1.12" transform="translate(-2 68.77) rotate(-32.6)"/>
        <circle class="cls-5" cx="117.27" cy="37.09" r="1.12" transform="translate(-1.88 67.61) rotate(-31.92)"/>
      </g>
      <g>
        <circle class="cls-2" cx="94.18" cy="61.22" r="1.12" transform="translate(-18.15 60.47) rotate(-32.64)"/>
        <circle class="cls-5" cx="94.87" cy="60.51" r="1.12"/>
      </g>
      <g>
        <polygon class="cls-2" points="72.7 103.43 74.65 103.76 74.69 101.9 72.73 101.87 72.7 103.43"/>
        <polygon class="cls-2" points="72.75 100.32 72.73 101.87 74.69 101.9 74.72 100.06 72.75 100.32"/>
        <path class="cls-2" d="M74.66,103.31l2.42.04c1.04,2.08,4.41,3.65,8.44,3.72,1.33.02,2.6-.12,3.74-.39.7-.17,1.2-.79,1.21-1.51l.05-2.98-15.84-.28-.02,1.4Z"/>
        <path class="cls-2" d="M76.17,96.9c-.27.92-.18,1.87.21,2.76.18.42-.12.88-.58.88l-1.09-.02-.02,1.39,15.84.28.05-2.97c.01-.72-.46-1.35-1.16-1.55-.74-.21-1.55-.36-2.39-.45-.71-1.37-2.11-2.54-3.93-3.08-3.09-.93-6.2.31-6.93,2.76ZM82.67,95.59c.98.29,1.79.86,2.31,1.55-2.86.08-5.35.92-6.82,2.18-.27-.6-.34-1.25-.15-1.88.49-1.65,2.58-2.48,4.66-1.86Z"/>
        <polygon class="cls-5" points="73.44 99.6 73.39 102.72 75.34 103.05 75.41 99.34 73.44 99.6"/>
        <path class="cls-5" d="M76.86,96.18c-.27.92-.18,1.87.21,2.76.18.42-.12.88-.58.88l-1.09-.02-.05,2.8,2.42.04c1.04,2.08,4.41,3.65,8.44,3.72,1.33.02,2.6-.12,3.74-.39.7-.17,1.2-.79,1.21-1.51l.11-5.96c.01-.72-.46-1.35-1.16-1.55-.74-.21-1.55-.36-2.39-.45-.71-1.37-2.11-2.54-3.93-3.08-3.09-.93-6.2.31-6.93,2.76ZM83.36,94.88c.98.29,1.79.86,2.31,1.55-2.86.08-5.35.92-6.82,2.18-.27-.6-.34-1.25-.15-1.88.49-1.65,2.58-2.48,4.66-1.86Z"/>
      </g>
      <g>
        <polygon class="cls-2" points="53.89 20.7 50.88 22.03 49.99 18.29 51.72 17.53 53.89 20.7"/>
        <path class="cls-2" d="M53.89,20.7l-3.01,1.33,3.78,5.48c.2.3.51.51.86.6l3.92,1.03-5.28-8.39-.26-.06Z"/>
        <polygon class="cls-8" points="54.15 20.76 59.43 29.15 67.4 31.24 61.78 22.31 56.49 21.29 54.15 20.76"/>
        <path class="cls-2" d="M67.4,31.24l1.33.35c.83.22,1.67-.29,1.86-1.12l1.06-4.67c.19-.83-.35-1.66-1.19-1.82l-8.68-1.67,5.62,8.93Z"/>
        <polygon class="cls-5" points="53.89 20.7 50.88 22.03 49.99 18.29 51.72 17.53 53.89 20.7"/>
        <path class="cls-5" d="M50.88,22.03l3.78,5.48c.2.3.51.51.86.6l13.22,3.48c.83.22,1.67-.29,1.86-1.12l1.06-4.67c.19-.83-.35-1.66-1.19-1.82l-13.97-2.7-2.61-.59-3.01,1.33Z"/>
      </g>
      <g>
        <path class="cls-9" d="M41.93,109.98c-.69.56-.74,1.59-.11,2.22l3.78,3.82,3.19,4.73c.4.59,1.21.71,1.76.26l1.98-1.63-8.87-10.82-1.73,1.42Z"/>
        <path class="cls-2" d="M54.41,116.13l-4.01-4.05-3.01-4.45c-.5-.73-1.52-.88-2.2-.32l-1.54,1.26,8.87,10.82,1.79-1.47c.55-.45.59-1.27.09-1.78Z"/>
        <polygon class="cls-2" points="41.78 105.87 41.21 106.34 42.6 109.6 44.71 107.87 41.78 105.87"/>
        <path class="cls-5" d="M45.29,107.4l-3.26,2.68c-.69.56-.74,1.59-.11,2.22l3.78,3.82,3.19,4.73c.4.59,1.21.71,1.76.26l3.77-3.1c.55-.45.59-1.27.09-1.78l-4.01-4.05-3.01-4.45c-.5-.73-1.52-.88-2.2-.32Z"/>
        <polygon class="cls-5" points="41.78 105.87 41.21 106.34 42.6 109.6 44.71 107.87 41.78 105.87"/>
      </g>
      <g>
        <circle class="cls-2" cx="18.97" cy="94.81" r="1.12" transform="translate(-48.15 25.21) rotate(-32.64)"/>
        <circle class="cls-5" cx="18.97" cy="94.81" r="1.12" transform="translate(-48.15 25.21) rotate(-32.64)"/>
      </g>
      <g>
        <circle class="cls-2" cx="36.89" cy="66.5" r="1.12" transform="translate(-30.05 30.41) rotate(-32.64)"/>
        <circle class="cls-5" cx="36.89" cy="66.5" r="1.12" transform="translate(-30.05 30.41) rotate(-32.64)"/>
      </g>
      <g>
        <g>
          <path class="cls-11" d="M127.22,60.36l-1.16,1.54c-.07.09-.11.19-.13.3l-2.54,14.14c-.07.38.19.75.57.82l2.09.38c.38.07.75-.19.82-.57l2.54-14.14c.02-.11.01-.22-.02-.33l-.55-1.84c-.08-.25-.29-.45-.55-.49l-.38-.07c-.26-.05-.53.06-.69.27Z"/>
          <path class="cls-2" d="M128.55,59.46l-.17.96-.64-.12.17-.96c.03-.18.2-.29.38-.26h0c.18.03.29.2.26.38Z"/>
        </g>
        <g>
          <path class="cls-5" d="M127.22,60.36l-1.16,1.54c-.07.09-.11.19-.13.3l-2.54,14.14c-.07.38.19.75.57.82l2.09.38c.38.07.75-.19.82-.57l2.54-14.14c.02-.11.01-.22-.02-.33l-.55-1.84c-.08-.25-.29-.45-.55-.49l-.38-.07c-.26-.05-.53.06-.69.27Z"/>
          <path class="cls-5" d="M127.67,58.96h.41c.36,0,.65.29.65.65h0c0,.36-.29.65-.65.65h-.41v-1.29h0Z" transform="translate(46.88 175.25) rotate(-79.82)"/>
        </g>
        <line class="cls-5" x1="125.33" y1="72.18" x2="124.68" y2="75.81"/>
        <line class="cls-5" x1="126.34" y1="72.33" x2="125.69" y2="75.96"/>
      </g>
      <g>
        <circle class="cls-2" cx="130.88" cy="70.6" r="1.12" transform="translate(-10.88 115.52) rotate(-45.93)"/>
        <circle class="cls-5" cx="131.57" cy="69.89" r="1.12"/>
      </g>
      <g>
        <circle class="cls-2" cx="118.16" cy="70.16" r="1.12"/>
        <circle class="cls-5" cx="118.85" cy="69.45" r="1.12" transform="translate(-13.72 106.53) rotate(-45.93)"/>
      </g>
      <g>
        <path class="cls-2" d="M129.39,28.07l-6.55,11.56c-.33.58-1.07.79-1.66.46h0c-.58-.33-.79-1.07-.46-1.66l6.55-11.56c.33-.58,1.07-.79,1.66-.46h0c.58.33.79,1.07.46,1.66Z"/>
        <path class="cls-5" d="M129.39,28.07l-6.55,11.56c-.33.58-1.07.79-1.66.46h0c-.58-.33-.79-1.07-.46-1.66l6.55-11.56c.33-.58,1.07-.79,1.66-.46h0c.58.33.79,1.07.46,1.66Z"/>
      </g>
      <g>
        <rect class="cls-2" x="40.77" y="64.01" width="7.17" height="2.64" transform="translate(-19.51 111.78) rotate(-91.85)"/>
        <rect class="cls-5" x="40.77" y="64.01" width="7.17" height="2.64" transform="translate(-19.51 111.78) rotate(-91.85)"/>
        <polygon class="cls-2" points="45.56 61.71 42.09 64.8 39.45 64.88 42.92 61.8 45.56 61.71"/>
        <polygon class="cls-2" points="45.79 68.88 42.13 66.02 39.49 66.1 43.15 68.96 45.79 68.88"/>
        <polygon class="cls-5" points="45.56 61.71 42.09 64.8 39.45 64.88 42.92 61.8 45.56 61.71"/>
        <polygon class="cls-5" points="45.79 68.88 42.13 66.02 39.49 66.1 43.15 68.96 45.79 68.88"/>
      </g>
      <polygon class="cls-2" points="90.78 13.9 92.77 15.53 95.25 14.82 94.31 17.22 95.76 19.36 93.18 19.21 91.6 21.24 90.94 18.75 88.52 17.87 90.69 16.48 90.78 13.9"/>
      <polygon class="cls-5" points="90.78 13.9 92.77 15.53 95.25 14.82 94.31 17.22 95.76 19.36 93.18 19.21 91.6 21.24 90.94 18.75 88.52 17.87 90.69 16.48 90.78 13.9"/>
    </g>
  </g>
</svg>