<?xml version="1.0" encoding="UTF-8"?>
<svg id="Calque_2" data-name="Calque 2" xmlns="http://www.w3.org/2000/svg" xmlns:xlink="http://www.w3.org/1999/xlink" viewBox="0 0 145.75 145.75">
  <defs>
    <style>
      .cls-1 {
        fill: url(#linear-gradient-2);
      }

      .cls-2 {
        fill: #0071b9;
      }

      .cls-3 {
        fill: #fff;
      }

      .cls-4 {
        fill: #333652;
      }

      .cls-5 {
        fill: url(#linear-gradient-4);
      }

      .cls-6 {
        fill: url(#linear-gradient-3);
      }

      .cls-7 {
        fill: #b8cc71;
      }

      .cls-8 {
        fill: url(#linear-gradient-5);
      }

      .cls-9 {
        fill: #896239;
      }

      .cls-10 {
        fill: #736357;
      }

      .cls-11 {
        stroke: #333652;
      }

      .cls-11, .cls-12 {
        fill: none;
        stroke-linecap: round;
        stroke-linejoin: round;
        stroke-width: 2.16px;
      }

      .cls-13 {
        fill: #a37c52;
      }

      .cls-14 {
        fill: #6aa053;
      }

      .cls-12 {
        stroke: #fff;
      }

      .cls-15 {
        fill: url(#linear-gradient);
      }
    </style>
    <linearGradient id="linear-gradient" x1="0" y1="62.06" x2="124.12" y2="62.06" gradientUnits="userSpaceOnUse">
      <stop offset="0" stop-color="#29a8df"/>
      <stop offset="1" stop-color="#0071b9"/>
    </linearGradient>
    <linearGradient id="linear-gradient-2" x1="37.51" y1="127.25" x2="42.06" y2="137.81" gradientTransform="translate(47.59 -44.13) rotate(2.76) scale(.99 .98) skewX(.18)" gradientUnits="userSpaceOnUse">
      <stop offset="0" stop-color="#b8cc71"/>
      <stop offset="1" stop-color="#ffc357"/>
    </linearGradient>
    <linearGradient id="linear-gradient-3" x1="-13.03" y1="129.51" x2="105.14" y2="129.51" gradientTransform="translate(32.21 -67.34) rotate(2.67)" xlink:href="#linear-gradient-2"/>
    <linearGradient id="linear-gradient-4" x1="1.47" y1="154.16" x2="40.59" y2="154.16" gradientTransform="translate(32.21 -67.34) rotate(2.67)" xlink:href="#linear-gradient-2"/>
    <linearGradient id="linear-gradient-5" x1="71.54" y1="155.01" x2="103.38" y2="155.01" gradientTransform="translate(32.21 -67.34) rotate(2.67)" xlink:href="#linear-gradient-2"/>
  </defs>
  <g id="Calque_1-2" data-name="Calque 1">
    <g>
      <g>
        <path class="cls-15" d="M21.34,21.34c-28.37,28.37-28.46,74.3-.28,102.78L124.12,21.06c-28.48-28.18-74.41-28.09-102.78.28Z"/>
        <path class="cls-2" d="M124.41,21.34c-.09-.09-.19-.19-.29-.28L21.06,124.12c.09.09.18.19.28.29,28.46,28.46,74.6,28.46,103.07,0,28.46-28.46,28.46-74.6,0-103.07Z"/>
        <g>
          <path class="cls-12" d="M124.52,112.62c19.72-25.55,17.86-62.38-5.57-85.81S58.69,1.52,33.14,21.24"/>
          <path class="cls-12" d="M21.24,33.14C1.52,58.69,3.38,95.52,26.8,118.95c23.43,23.43,60.26,25.28,85.81,5.57"/>
        </g>
        <g>
          <circle class="cls-3" cx="118.57" cy="118.57" r="4.2"/>
          <path class="cls-3" d="M30.15,30.15c-1.64,1.64-4.3,1.64-5.93,0-1.64-1.64-1.64-4.3,0-5.93,1.64-1.64,4.3-1.64,5.93,0,1.64,1.64,1.64,4.3,0,5.93Z"/>
        </g>
      </g>
      <g>
        <g>
          <path class="cls-7" d="M128.15,78.35l-39.8-7.99s-20.31-16.89-45.33-24.02c-5.62-1.6-10.3-2.51-14.16-2.89-1.42-2.48-3.95-4.29-7.03-4.67-4.78-.59-9.31,2.62-10.34,7.32-.21.96-.26,1.91-.18,2.83l4.81,1.05s10.79.15,15.17,3.77,7.14,18.63,32.82,27.27c25.67,8.64,43.77,8.38,48.98,6.72,2.75-.87,7.17-2.39,10.74-3.64,3.18-3.15,4.33-5.76,4.33-5.76Z"/>
          <path class="cls-13" d="M44.32,69.86c-2.37-.62-7-4.04-9.3-4.8l-4.57-8.2c-.08-.14-.14-.28-.19-.43l-3.19-8.99-.67-1.9c-.45-1.26.1-2.61,1.31-3.26l16.74-8.95c.52-.27,1.11-.4,1.71-.35l6.14.46c.17.01.34.01.5,0l11.36-.92c.28-.02.57,0,.85.05l11.41,2.12c.07.01.13.02.2.03,1.17.14,12.24,1.47,12.6,1.43.36-.04,12.72,6.08,13.96,6.69.07.03.13.07.2.11l12.08,7.09c.48.28.87.69,1.13,1.16l5.75,10.74c.12.23.28.45.47.64l7.47,7.76c.47.49.75,1.11.79,1.76l.32,5.3.26,4.41c-.41.08-.82.13-1.24.11-3.14,0-3.96,2.65-7.05,2.51-4.21-.19-10.66-3.23-14.78-3.65-2.75-.28-3.2,2.12-5.92,1.76-3.84-.52-9.95-3.85-13.75-4.52-2.9-.51-3.48,1.67-6.36,1.08-2.75-.56-7.79-3.88-10.52-4.49-3.46-.78-4.62,1.14-8.07.29-3.93-.96-10.14-4.69-14.07-5.72-2.62-.68-2.94,1.36-5.56.66Z"/>
          <path class="cls-1" d="M91.58,71.05s-20.76-17.16-46.32-24.42c-5.74-1.63-10.52-2.56-14.47-2.95-1.45-2.51-4.04-4.35-7.18-4.74-4.88-.6-9.51,2.65-10.55,7.42-.88,4.04.92,7.96,4.15,10.06.28.18.55.36.82.55,3.77,2.66,9.14,3.9,9.85,4.52,1.05.91,16.71,28.92,55.87,33.87,39.16,4.94,48.49-16.15,48.49-16.15l-40.65-8.15Z"/>
          <path class="cls-6" d="M130.68,78.47l-39.8-7.99s-20.31-16.89-45.33-24.02c-5.62-1.6-10.3-2.51-14.16-2.89-1.42-2.48-3.95-4.29-7.03-4.67-4.78-.59-9.31,2.62-10.34,7.32-.21.96-.26,1.91-.18,2.83l4.81,1.05s10.79.15,15.17,3.77c4.38,3.62,7.14,18.63,32.82,27.27,25.67,8.64,43.77,8.38,48.98,6.72,2.75-.87,7.17-2.39,10.74-3.64,3.18-3.15,4.33-5.76,4.33-5.76Z"/>
          <path class="cls-14" d="M14.86,42.5s-2.58,2.94-3.08,6.1c-.5,3.16,1.74,1.76,5.07,2.31,0,0,5.17,2.92,6.73,1.52,1.57-1.4-6.68-6.48-6.08-9.51s-1.5-1.96-2.64-.42Z"/>
          <g>
            <path class="cls-3" d="M26.84,45.92c-.29,1.83-2,3.07-3.83,2.79-1.83-.29-3.07-2-2.79-3.83.29-1.83,2-3.07,3.83-2.79s3.07,2,2.79,3.83Z"/>
            <path class="cls-4" d="M23.76,43.95c-1.14-.18-2.24.24-2.98,1.02.46.97,1.38,1.71,2.52,1.89,1.14.18,2.24-.24,2.98-1.02-.46-.97-1.38-1.71-2.52-1.89Z"/>
          </g>
          <path class="cls-11" d="M109.18,93.43c-6.63,1.69-15.14,2.37-26,1.01-13.72-1.73-23.09-5.49-31.31-10.78"/>
          <path class="cls-11" d="M44.31,78.34c-10.44-8.33-15.23-16.74-15.79-17.22-.7-.61-5.96-1.83-9.64-4.45-.26-.19-.53-.37-.81-.54-1.91-1.25-3.31-3.16-3.93-5.36-1.74.02-2.71.03-2.36-2.16.5-3.16,3.08-6.1,3.08-6.1.7-.94,1.76-1.71,2.33-1.47.08-.07.16-.13.24-.2,1.1-.85,2.38-1.47,3.76-1.77.31-.07.63-.13.95-.16.28-.03.55-.05.83-.06.16,0,.32,0,.48,0,.3,0,.59.03.89.07.62.08,1.22.21,1.79.4.31.1.62.22.92.35.17.07.33.15.49.24.65.34,1.25.74,1.79,1.21.14.12.27.24.4.36.64.62,1.19,1.33,1.64,2.1.24.02.49.05.73.08.25.03.5.06.75.09,3.56.45,7.76,1.32,12.67,2.72,25.03,7.13,45.33,24.02,45.33,24.02l39.8,7.99h0s0,0,0,0c0,0,0,0,0,0,0,0,0,0,0,.01,0,0,0,.01,0,.02-.01.03-.03.07-.06.13,0,0,0,0,0,.01-.32.65-1.56,2.91-4.24,5.57,0,0,0,0,0,0h0c-2.48,2.46-6.19,5.24-11.55,7.39"/>
          <path class="cls-5" d="M39.05,65.28s-15.45,8.89-11.9,23.99c3.56,15.1,24.85,24.06,26.05,23.77,1.2-.29,5.4-.22-3.32-11.01s-6.53-16.45,9-22.89c21.74-9.01-9.97-22.12-19.83-13.87Z"/>
          <path class="cls-8" d="M97.06,84.94s-3.32,12.01,6.99,16.02c10.31,4.01,26.23-2.36,23.74-4.66-2.49-2.3-18.97-1.01-14.38-11,4.59-9.99-16.35-.36-16.35-.36Z"/>
          <path class="cls-10" d="M36.96,71.14s-5.43,6.47-5.34,8.15,4.91,3.86,6.87.83c1.96-3.03,1.04-12.25-1.53-8.98Z"/>
          <path class="cls-10" d="M40.81,72.57s-.37,6.61.48,7.63c.84,1.01,4.9.12,4.71-2.71-.19-2.83-5.1-8.18-5.18-4.92Z"/>
          <path class="cls-10" d="M38.67,81.58s-3.63,5.54-3.41,6.84c.22,1.3,4.18,2.56,5.43.01,1.25-2.54-.32-9.63-2.02-6.85Z"/>
          <path class="cls-10" d="M37.33,94.95s-2.62-6.08-3.83-6.61c-1.21-.53-4.44,2.08-3,4.52,1.43,2.45,8.21,5.05,6.83,2.09Z"/>
          <path class="cls-10" d="M113.06,92.32s-2.6-6.71-3.89-7.33c-1.29-.62-4.9,2.08-3.44,4.79s8.72,5.81,7.33,2.54Z"/>
          <path class="cls-10" d="M111.57,97.54s-4.62-3.07-5.72-2.89-2.16,3.49-.04,4.55c2.13,1.06,8.08-.22,5.75-1.66Z"/>
          <path class="cls-11" d="M39.83,65.47s-15.45,8.89-11.9,23.99c3.56,15.1,24.85,24.06,26.05,23.77,1.2-.29,5.4-.22-3.32-11.01-8.73-10.79-6.53-16.45,9-22.89,21.74-9.01-9.97-22.12-19.83-13.87Z"/>
          <path class="cls-11" d="M97.86,84.98s-3.32,12.01,6.99,16.02c10.31,4.01,26.23-2.36,23.74-4.66-2.49-2.3-18.97-1.01-14.38-11"/>
          <g>
            <path class="cls-13" d="M46.85,69.97c-2.37-.62-7-4.04-9.3-4.8l-4.57-8.2c-.08-.14-.14-.28-.19-.43l-3.19-8.99-.67-1.9c-.45-1.26.1-2.61,1.31-3.26l16.74-8.95c.52-.27,1.11-.4,1.71-.35l6.13.46c.17.01.34.01.5,0l11.36-.92c.28-.02.57,0,.85.05l11.41,2.12c.07.01.13.02.2.03,1.17.14,12.24,1.47,12.6,1.43.36-.04,12.72,6.08,13.96,6.69.07.03.13.07.2.11l12.08,7.09c.48.28.87.69,1.13,1.16l5.75,10.74c.12.23.28.45.47.64l7.47,7.76c.47.49.75,1.11.79,1.76l.32,5.3.26,4.41c-.41.08-.82.13-1.24.11-3.14,0-3.96,2.65-7.05,2.51-4.21-.19-10.66-3.24-14.78-3.65-2.75-.28-3.2,2.12-5.92,1.76-3.84-.52-9.95-3.85-13.75-4.52-2.9-.51-3.48,1.67-6.36,1.08-2.75-.56-7.79-3.88-10.52-4.49-3.46-.78-4.62,1.14-8.07.29-3.93-.96-10.14-4.69-14.07-5.72-2.62-.68-2.94,1.36-5.56.66Z"/>
            <polygon class="cls-9" points="86.72 41.86 74.94 36.69 61.16 37.5 58.08 55.69 66.59 59.77 78.72 61.83 86.72 41.86"/>
            <polygon class="cls-9" points="113.55 58.1 101.55 45.66 89.16 43.36 81.24 62.28 89.95 68.58 102.55 73.17 113.55 58.1"/>
            <polyline class="cls-11" points="39.4 43.43 53.99 36.52 65.54 38.07"/>
            <polyline class="cls-11" points="100.33 72.87 83.52 62.86 91.85 42.95 104.24 45.25 114.32 55.39"/>
            <line class="cls-11" x1="71.28" y1="61.74" x2="83.52" y2="62.86"/>
            <polyline class="cls-11" points="48.34 58.39 62.48 57.81 65.54 38.07 79.29 37.64 91.85 42.95"/>
            <polyline class="cls-11" points="48.34 58.39 62.48 57.81 65.54 38.07 79.29 37.64 91.85 42.95"/>
            <path class="cls-11" d="M48.15,70c-2.34-.61-6.91-4.03-9.19-4.78l-4.5-8.19c-.07-.14-.14-.28-.19-.43l-3.13-8.98-.66-1.9c-.44-1.26.1-2.61,1.3-3.26l16.57-8.98c.51-.27,1.1-.4,1.69-.35l6.07.45c.17.01.33.01.5,0l11.23-.95c.28-.02.56,0,.84.04l11.28,2.09c.07.01.13.02.2.03,1.16.14,12.1,1.44,12.45,1.4.35-.04,12.57,6.05,13.79,6.66.07.03.13.07.19.1l11.93,7.07c.48.28.86.69,1.11,1.16l5.67,10.72c.12.23.28.45.46.64l7.37,7.74c.47.49.74,1.11.78,1.76l.3,5.3.25,4.41c-.41.08-.81.13-1.23.12-3.11,0-3.92,2.66-6.98,2.52-4.16-.18-10.54-3.21-14.61-3.62-2.72-.27-3.17,2.13-5.86,1.77-3.8-.51-9.83-3.83-13.58-4.49-2.86-.5-3.45,1.67-6.29,1.1-2.72-.55-7.69-3.86-10.4-4.47-3.42-.77-4.57,1.14-7.98.31-3.88-.95-10.02-4.67-13.91-5.69-2.58-.67-2.91,1.36-5.5.67Z"/>
          </g>
        </g>
        <path class="cls-13" d="M97.85,47.38s11.42,10.33,11.27,12.22-10.44,8.62-12.6,5.71-3.02-21.02,1.33-17.92Z"/>
        <path class="cls-13" d="M72.96,39.49s6.91.32,8.17,1.52c1.26,1.2-2.94,15.25-5.42,14.25-2.49-1-13.08-16.95-2.75-15.77Z"/>
      </g>
    </g>
  </g>
</svg>