<?xml version="1.0" encoding="UTF-8"?>
<svg id="Calque_2" data-name="Calque 2" xmlns="http://www.w3.org/2000/svg" viewBox="0 0 462.29 151.14">
  <defs>
    <style>
      .cls-1 {
        fill: #1f2d5c;
      }

      .cls-2 {
        fill: #171b2d;
      }

      .cls-3 {
        fill: #eceef2;
      }

      .cls-4 {
        fill: #1e2d5c;
      }

      .cls-5 {
        fill: #374168;
      }

      .cls-6 {
        fill: #454d72;
      }

      .cls-7 {
        fill: #27325e;
      }

      .cls-8 {
        fill: #5d678e;
      }

      .cls-9 {
        fill: #202d5d;
      }

      .cls-10 {
        fill: #50587a;
      }

      .cls-11 {
        fill: #b2b4c8;
      }

      .cls-12 {
        fill: #c0c4d8;
      }

      .cls-13 {
        fill: #e7e9f0;
      }

      .cls-14 {
        fill: #1e2c5c;
      }

      .cls-15 {
        fill: #222f5e;
      }

      .cls-16 {
        fill: #222f5d;
      }

      .cls-17 {
        fill: #dee2eb;
      }

      .cls-18 {
        fill: #8a90ae;
      }

      .cls-19 {
        fill: #a0a7bf;
      }

      .cls-20 {
        fill: #3c466d;
      }

      .cls-21 {
        fill: #f1f3f6;
      }

      .cls-22 {
        fill: #d8dce7;
      }

      .cls-23 {
        fill: #d5d9e5;
      }

      .cls-24 {
        fill: #a9b1ca;
      }

      .cls-25 {
        fill: #ccd0e0;
      }
    </style>
  </defs>
  <g id="svg8">
    <g>
      <path class="cls-20" d="M163.27,0c.41.88.86,2.15.89,2.95s-2.81,1.42-3.28.78c-.56-.76-.26-2.84.14-3.72h2.25Z"/>
      <path class="cls-14" d="M123.58,43.35c.59.32,1.9.2,3.1.19.77,0,.62,2.09.59,2.85l-1.27,3.95c-1.36.71-2.65,1.53-3.18,2.77,1.2.25,3.21.31,3.69-.48.65-1.05,1.29-2.9,1.59-4.05,1.27-.99,2.45-1.61,4.6-2.63l.54,3.41c-6.16,7.54-4.91,19.84,2.45,26.21,2.03,3.29,5.96,5.37,9.76,6.05,7.35,4.62,12.58,11.8,18.01,18.55l2.84,5.1,1.96,3.45-1.35-3.4c-.48-2.06-2.12-3.93-2.91-5.7-2.46-5.51-6.14-10.53-10.34-14.92,0-.19,1.69-1.2,2.26-1.12l7.42.98,29.83,3.87c.36.2,1.68.62,2.31.7l18.72,2.26.75.05,11.29,1.48,6.97,7.63,11.66,5.03c8.36,3.6,17.83,13.94,28.17,17.32l5.59-9.03.77-.71.72-.84c1.86-1.7,3.86-3.71,6.03-4.91l4.54-2.52c12.33-4.74,24.34-5.96,35.62-12.92-.18-1.26-.73-3.2-.1-3.51l2.91-1.43c.37-2.2.59-6.35,2-7.85,3.77-2.1,7.42,1.55,10.85,2.02,13.64,1.87,27.31.28,40.57-3.24,18.06-4.8,33.04-15.48,43.41-30.94,6.66-3.51,17.35-7.84,24.12-4.25.05.19.15.56.18.75.43,2.42.61,10.36-.17,11.95l-.79,1.61c-13.74,14.47-31.45,24.45-51.39,28.39-7.24,1.43-14.1,2.33-21.39,3.36-29.97,4.25-72.92,27.55-88.59,46.3l-8.55,10.23c-1.38,1.66-5.12,4.21-7.31,3.67l-31.46-7.63c-10.87-2.64-20.78-6-30.4-11.56-5.9-3.41-11.63-6.2-18.7-7.89,2.78,3.9,3.61,4.89,2.66,8.79-.7,2.85,4.53,6.3,7.17,4.97s5.93-2.76,8.41-.96l8.63,6.23-8.04,10.18-10.27-7.42-1.02-4.94c-2.57-1.69-5.08-3.62-7.39-5.54-4.22,1.35-9.16-.13-10.78-4.65.04-1.13.21-2.4-.45-2.57-1.09-.29-3.72-.46-3.6.4.16,1.12.45,3.55-.13,4.21-1.87,2.11-6.98,4.86-10.13,3.93-4.17-1.24-4.7-6.53-6.77-8.7-1.7-1.78-3.82,6.56-5.89,8.26l-14.65-4.8c-.18-1.82-.15-3.86-.01-6.21-5.18-1.86-10.58-4.11-14.76-7.78-.26-1.85,1.18-2.83,2.8-4.73-2.77.64-4.81,2.46-6.75,3.99l-10.83,8.56c-7.55,5.97-15.49,10.55-24.88,13.21-13.1,3.71-13.11,10.22-36.81-3.1l-17.45-9.8c.4-1.04,1.3-3.13,2.26-3.65l3.94-2.13c.65-.35,1.65-1.16,2.24-1.67,10.81,3.86,19.5,3.48,31.62,6.97,6.59-6.53,14.58-10.79,22.94-15.27,1.59-2.56,4.47-6.99,6.53-8.69.58-.47,1.83-1.27,2.51-1.62,1.67-.85,4.01-2.03,5.82-2.31l7.73-1.19c-3.01-.49-5.42-.14-7.79.41s-5.46.74-7.29,2.55c-.89.06-2.17.02-3.03-.17l-.77-.78-1.34-.14c-3.3-4.09.26-5.72-.56-6.76l-1.69-2.15.03-.69c.05-1.3.33-2.71.67-3.97,2.79-2.09,5.48-4.35,8.98-3.58,1.77-1.71,2.39-4.3,3.08-6.68l2.63-9.01c.37-.62.7-1.68.86-2.47.31-.76,1.08-2.24,1.66-2.81l1.52-1.5c3.5-1.01,6.24-5.52,3.86-9.13l2.86-5.72,3.75,2.03ZM113.84,61.41c-1.82,1.34-2.31,1.75-3,4.49-1.01,4.08-1.46,8.91-3.73,12.64-1.25,2.05-2.32,3.17-1.5,5.26l-2.4,2.02c.72.2,1.86.6,1.97.34l.58-1.4c.74-.56,1.06-2.41,1.61-3.63,1.41-3.13,2.94-6.21,3.46-9.15.34-.77.75-2.26.75-3.09v-3c.77-1.26,1.88-3.11,2.25-4.49,2.34-1.72,3.67-3.07,7.04-3.87-4.89-.71-6.24.87-7.04,3.87ZM125.85,83.98l4.41,1.27c1.17.34,2.19.53,3.97.66l-3.97-1.43c-1.35-.48-2.97-.95-4.42-1.29-.23-.14-.75-.4-.87-.65l2.43-1.51c-1.2-.06-2.5-.15-3.17-.05-3.71.52-10.83,2.96-13.86,5.69,7.16-.26,4.58-3.44,15.49-2.7ZM168.6,94.5l.75-5.92-5.8-1.48-.97,5.57,6.02,1.83ZM108.54,88.68c-1.96-.74-3.54.1-4.41,1.87l4.41-1.87ZM187.26,95.67c3.03.69,2.91-2.2,3.48-3.53l-3.48,3.53ZM148.96,113.06c1.7,1.73,4,3.2,6.78,3.27-1.76-1.71-3.91-2.74-6.01-3.83-11.64-9.65-7-20.41-13.04-17.23,1.01,7.13,5.47,14.41,12.28,17.79ZM183.34,102.59c-.27.18-.5.31-.67.46-.25.22.66,1.1.73,1.06,1.41-1.9,2.53-4.11,3.56-6.92-1.59,1.65-2.73,3.13-3.63,5.4ZM213.36,102.58c-5.31,1.84-10.76,3.54-16.33,3.9-.79-.19-1.86-.52-2.36-.13-.84.67-1.62,2.03-2.06,3.06-1.76,1.91-2.83,4.24-3.83,6.69l-1.51,3.68-1.22,2.97c-2.26.26-4.28-.03-7-1.02.62-6.08,2.1-10.95,3.72-17.54-4.41,5.33-5.01,11.65-5.99,18.7l9.69,1.95,1.58-4.35c.27-.74.92-2.05,1.24-2.82,1.42-2.33,2.53-4.97,3.4-7.61,7.67-1.7,15.79-2.99,22.25-7.46,1.68.02,3.36-.68,4.61-2.18-2.53.15-4.66.9-6.2,2.15ZM195.47,104.1c.28.59.41.62.75,0l1.54-2.29-2.29,2.29ZM131.81,107.47c0-.21-.17-.37-.37-.37s-.37.17-.37.37.17.37.37.37.37-.17.37-.37ZM128.97,107.91c-.04.4-.14,2.38.15,2.11.23-.22.69-.51.8-.75l.47-1.04c.11-.24-1.4-.59-1.43-.33ZM164.02,120.58c1.28.52,2.68.67,4.63.53l-4.63-2.03c-1.61-.7-3.24-1.18-5.68-1.23,1.84,1.47,3.73,2.16,5.68,2.73ZM188.85,131.09l3.18-3.24c.51-.52-.39-2.56-1.12-2.62s-2.33.17-3.07.41l-4.64,1.5c-.39,2.57,3.68,5.97,5.65,3.96ZM207.81,142.09c1.38-1.13,1.54-4.45.31-5.31-1.12-.78-3.86-.51-4.93.48-1.41,1.31-1.7,3.83-.65,5.09,1.12,1.34,3.43,1.25,5.28-.26Z"/>
      <path class="cls-4" d="M295.11,100.36c-1.78.63-3.63,1.44-5.35,2.18-5.09,2.2-9.21,5.84-12.1,10.38-1.24,1.95-3.54,3.66-4.98,7.04-6.91-2.18-12.95-6.69-18.71-11.36-2.37-1.91-5.2-2.72-7.46-3.87-2.58-1.31-5.21-3.15-8.13-3.87l-.18-.94c-.22-1.13,13.62.23,15.01.4.33.04,1,.04,1.34.03l6.15,1.52,15.39,3.46c.38-28.41,23.58-23.62,31.08-47.35l-3.37-2.73c-.68-.55.97-2.58.78-3.43-.28-1.2-.82-3.11-.87-4.05s2.09-2.21,3.13-2.44l11.66-2.48c6.55-1.4,18.96-16.43,26.95-20.89,18.52-10.34,48.18-19.58,68.85-11.8,2.61,7.53,1.87,15.7-3.62,21.94-6.2.59-13.25-.24-19.69-1.41-12.54-2.26-24.2-1.43-36.25,2.56-25.39,8.41-22.35,18.61-36.51,34.22-8.42,9.28-15.27,19.48-19.31,31.51l-3.81,1.35Z"/>
      <path class="cls-1" d="M111.69,56.01c-.22.21-.67.63-.88.87-.72.83-1.7,2.29-2.51,3.52l1.63.07c-.16.79-.5,1.85-.86,2.47l-.91-1.66c-1.13,3.75-1.9,7.05-2.57,10.66l-2.25,5.16-2.92.29-1.63.4c-2.84.7-3.21,3.33-5.95,3.05-4.93-2.41-6.22,5.03-11.15,2.27l-.05-1.16c-.01-.29-1.3-.38-1.34-.08-1.22,9.09,1.31.12-3.07,8.75-1.16-2.01-3.64,1.08-4.92.88-6.35-.99-10.26-9.17-8.7-14.69l7.53-4.11,2.25-.36c.51-.08.95-1.58.52-1.87l-1.25-.86v-1.31c-.02-.41-.77-1.3-.99-.96l-.54.81c-.43.11-1.13.36-1.4.08l-.91-.93.87-1.23c3-.78,1.34-4.35,3.95-7.01l3.59,7.33c4.1-3.21,4.18-8.33,3.23-12.85-1.37-.64-3.41-1.11-4.73-1.11-.06-.18-.91-1.06-1.28-.89l-1.89.89c-2.61,0-5.12.38-6.94,2.52l-.37,3.24-.71.07-.74-.65v-1.45s.58-2.33.58-2.33c1.59-4.1,4.79-2.51,10.02-5.88,2.91-10.51,13.42-17.28,24.23-14.5,9.78,2.51,15.86,13.3,13.06,22.56ZM86.11,52.54l.19,2.82-.03,6.86c-.88,1.51-1.58,3.18-2.1,5.05,1.3-1.07,2.43-2.21,2.73-3.05,1.03-2.9,3.61-4.54,6.71-4.3,1.1.09,2.16-.39,3.2-1.27l-3.49.07h-1.15c-1.19-.17-3.02-.2-3.76.25-.55-.07-.61-2.11.02-2.3,2.73-.8,7.45-1.51,10.42-1.24l3.07-1.23c-.94-.14-1.86-.28-2.32-.27l-8.99.2-1.57-.2c-.61-.29-1.78-.86-2.14-1.4-.72-1.09-1.9-3.11-3.55-3.53.73,1.37,1.7,2.63,2.77,3.54ZM70.62,84.09c.28-2.54-1.19-3.9-3.28-4.62l3.28,4.62ZM71.15,87.63l1.36,2.29c.13-1-.03-2.49-.61-3.79l-.45-1.66-.3,3.16Z"/>
      <path class="cls-16" d="M152.69,40.43c.44.25,2.19.87,2.96.92l7.69.54,23.84,3.02,3.81.78,8.93,1.73c2.82.55,5.74.53,8.36.41l2.87.19c.74.23,2.09.46,3.06.57l.75.02c.69.76,2.42.73,3.74.68l2.9.14,1.67,1.51.14,1.32c-.16,1.1-.08,2.58.53,3.17v8.24c-.32.4-.75,1.62-.75,2.25v3c-.44.63-.75,2.04-.75,3v.75c.05.99.07,2.12,0,3-1.35.52-1.69,2.35-1.35,3.81l-.81,3.68c-.14.27-.48,1.07-.65,1.56l-.79,2.18c-.24.67-.51,1.48-.71,2.25l-.06.75c-.74.09-1.84.28-2.43.54-.28.12-.55.74-.69,1.02l-.75-.05v-1.51c0-.36-.8-1.05-1.09-.84l-1.15.84c-.23,0-.56.02-.75,0l-.18-1.39h-4.37s-4.42-.09-4.42-.09l-1.52-.02-1.5-.75c-1.01-.78-3.01-.8-4.49-.52l-31.4-4.01c-2.66-.34-5.57-1.46-8.29-1.46-1.32-.71-3.45-.78-5.24-.75l-1.56.02-2.15.05-5.34-3.21,1.52-.7,5.26,1.54c.86.25,2.03.44,3.02.65,20.44,4.43,14.42-1.57,15.26-1.4-.78-.16-2.51-.41-3.22-.66-2.19-.75-6.49-1.53-9.04-1.53h-1.5v-.75c4.61-1.19,9.58.53,14.88.64,3.22-10,3.7-19.98,3.06-30.43l-14.03-2.12c-7.02-1.06-13.34,1.01-18.4,5.7l-1.22-.65,2.27-3.15,5.06-3.04c2.08-.27,4.31-.7,6.23-1.42h2.82ZM182.55,49.43c-.45,2.24-.93,6.68,0,8.99-.61,6.1-1.59,11.44-3.07,18.5,1.2.34,3.23.81,4.58.99l1.7,1.25-3.02.49-3.85-.02c-.73,0-1.21,2.39-.87,3.01l22.04,3.16c2.96.42,7.83,1.11,10.39,1.09.19.18,1.06.56,1.5.57l3.76.08c.68.01,1.29-2.21,1.25-2.91l-4.18-.72c-.36-.27-1.68-.77-2.32-.77h-1.5c-1.3-.72-3.47-.82-5.24-.75-.41.02-1.13.08-1.5.04l-2.3-1.34,2.3-.4c1.18.23,3.21.17,4.49.2.63.43,2.03.75,3,.75h.75c.84.6,2.43.59,3.74.56,1.84-.03,3.85.47,4.41-1.31l.7-2.25c0-.21,0-.56.04-.75,1.57-1.78,1.67-6.15,1.55-8.3-.02-.34.03-1.01.03-1.35,1.91-4.56,1.83-9.77.07-14.38v-1.37c.31-.02.42-1.33,0-1.29s-1.47.25-1.56.33l-1.5-.02c-.43-.2-1.69-.54-2.31-.55l-1.33-.02c-2.78-1.19-5.98-1.51-9.09-1.51h-3c-.4-.32-1.62-.75-2.25-.75h-1.5c-.87-.53-2.47-.75-3.74-.75h-1.5c-1.03-.71-2.98-.79-4.49-.63-.2,0-.57,0-.75-.03-.37-.66-2.02-.83-3-.61-.53-.11-1.88.02-1.99.55l-.45,2.21Z"/>
      <path class="cls-9" d="M229.99,50.81c.76.09,1.96.12,2.77.17,1.75.57,4,.78,6.05.85l.18,3.54.54,6.85-.47,7.5-.22,4.37c-.47,1.36-1.06,3.23-1.31,4.7-.77,4.46-2.36,9.24-4.22,13.37l-6.98-.2c-1.67-.57-3.77-1.09-6.01-1.59,1.1-3.76,2.48-8.01,3.1-11.72l.5-3c.54-1.38,1.5-3.8,1.5-5.24v-3.8c0-3.55,1.1-10.51-.11-14.31l.18-2.01,4.48.52Z"/>
      <path class="cls-15" d="M27.36,109.87l-3.57,6.93-1.52,3.01c-11.93-2.11-5.32-14.96-9.63-17.55-1.78-1.08-1.19,1.08-4.14,2.98-.56.36-2.72-.37-2.35-.56l1.67-5.66c-3.6.18-4.69.27-7.45-.5l2.72-2.54-3.08-1.93,10.17-5.56c-1.18-1.05-2.23-2.7-2.31-4.18l11.97,4.2,7.13,7.94.4,13.43Z"/>
      <path class="cls-22" d="M280.13,112.31l-.72.84c-.88-.39-.09-.62.72-.84Z"/>
      <path class="cls-22" d="M277.66,112.92l.97.94-5.59,9.03c-10.34-3.39-19.82-13.72-28.17-17.32l1.65-.82c2.26,1.15,5.09,1.95,7.46,3.87,5.77,4.67,11.8,9.17,18.71,11.36,1.44-3.38,3.74-5.1,4.98-7.04Z"/>
      <path class="cls-7" d="M32.11,110.44l.04.82-1.78.35c-.49.1-.21,1.56.2,1.83l1.63,1.07.76.25,2.18-.28.82,1.6c-.99.04-2.19.48-3.23,1.18l4.05.41-3.94,2.13-.45-2.34-3.23,6.13c-1.21.12-3.61-.92-4.52-1.81-.78-.75-.44-3.22.11-4.18,1.37-2.42,2.75-4.86,3.35-7.44l4.02.27Z"/>
      <path class="cls-7" d="M166.66,14.9c.24,2.28-2.42,4.16-3.97,4.49-2.24.47-5.9.18-6.52-2.26-.78-3.09,1.93-4.72,4.41-5.21,1.83-.36,5.71-.51,6.08,2.98Z"/>
      <path class="cls-20" d="M81.68,83.11c-2.28,1.1,1.43,2.55-3.14,6.34.75,1.22,3.36,2.95,5.24,2.85,4.23-.23,8.06-2.23,9.89-5.43l1.69,2.15c.81,1.03-2.74,2.67.56,6.76-.69-.07-2.24-.75-2.27-1.44l-.15-3.09c-5.24,3.22-13.38,5.75-16.28-.62,4.37-8.63,1.85.34,3.07-8.75.04-.3,1.33-.21,1.34.08l.05,1.16Z"/>
      <path class="cls-23" d="M134.91,49.23l-.1,2.45c0,.19,0,.53,0,.75-.46-.24-1.48-.88-1.61-.45l-.78,2.64-.71,2.31c-.11.36-.1,1.13-.15,1.5-.12.13-.39.52-.39.75v3c0,.59.3,1.67.48,2.25.34,1.64.92,3.05,1.57,4.49.77,1.71,2.07,4.61,3.13,6.09l-.66.59c-7.36-6.37-8.61-18.67-2.45-26.21l1.68-.14Z"/>
      <path class="cls-23" d="M223.43,78.64c-.62,3.71-2,7.96-3.1,11.72,2.23.5,4.34,1.03,6.01,1.59l-.1.96-11.29-1.48c.14-.27.4-.89.69-1.02.84.04,1.97-.15,2.43-.54l.06-.75.71-2.25.79-2.18c.12-.17.56-1.13.65-1.56l.81-3.68c.18-.82.94-2.26,1.35-3.06l.07,3.13.93-.89Z"/>
      <path class="cls-5" d="M149.55,5.28c.55.89-1.78,2.86-2.78,3.24s-3.44-.51-3.47-1.67c-.06-2.96,4.67-3.93,6.25-1.58Z"/>
      <path class="cls-23" d="M225.32,52.29c1.21,3.8.11,10.75.11,14.31l-1.5-1.44v-2.25l1.5-.13.02-6.65c0-.37-1.34-.72-1.51-.7l.07-3.12h1.32Z"/>
      <path class="cls-5" d="M192.48,45.69c4.49,0,11.7,1.09,15.79,2.13-2.62.12-5.54.14-8.36-.41l-8.93-1.73h1.5Z"/>
      <path class="cls-11" d="M253.21,100.32c-1.4-.17-15.23-1.53-15.01-.4l.18.94c-.95-.23-1.57-.54-3.02-1.79l11.14-.32c2.36-.07,5.04.46,6.7,1.57Z"/>
      <path class="cls-23" d="M239.06,69.72l.47-7.5-.54-6.85c.11-.18,1.43,1.29,1.43,1.83v10.7c0,.47-1.32,2.08-1.35,1.82Z"/>
      <path class="cls-25" d="M128.1,48.59c-.3,1.15-.94,3-1.59,4.05-.48.78-2.49.73-3.69.48.54-1.23,1.82-2.06,3.18-2.77l1.27-3.95.82,2.19Z"/>
      <path class="cls-19" d="M28.09,110.17c-.6,2.58-1.98,5.02-3.35,7.44l-.95-.81,3.57-6.93.73.3Z"/>
      <path class="cls-10" d="M147.51,25.55l-2.17.24c-.32.03-.34-.84-.1-1.05l1.08-.96c.19-.17,1.33-.5,1.55-.36l1.11.72c.33.21-1.08,1.37-1.47,1.42Z"/>
      <path class="cls-10" d="M135.35,32.89c.25-.47,1.62-.62,2.61-.76.5-.07.46,1.37.27,1.98-.15.48-1.03.49-2.03.66-.64.11-1.17-1.3-.85-1.89Z"/>
      <path class="cls-24" d="M124.48,115.32c-1.3-1.14-2.17-1.49-3.95-.74,1.94-1.53,3.98-3.36,6.75-3.99-1.63,1.9-3.07,2.88-2.8,4.73Z"/>
      <path class="cls-19" d="M32.83,119.81c-.96.52-1.87,2.61-2.26,3.65l-1.42.14,3.23-6.13.45,2.34Z"/>
      <path class="cls-23" d="M39.01,116.01c-.6.51-1.6,1.32-2.24,1.67l-4.05-.41c1.05-.71,2.24-1.14,3.23-1.18.41-.02,1.46.03,1.47-.37l.05-1.91,1.54,2.21Z"/>
      <path class="cls-10" d="M163.33,41.89l-7.69-.54c-.77-.05-2.52-.67-2.96-.92,3.59,0,7.27.32,10.64,1.46Z"/>
      <path class="cls-1" d="M66.18,61.3l2.05,3.84-1.5.67c-.84-.98-2.13-3.12-2.35-4.4l1.8-.12Z"/>
      <path class="cls-13" d="M123.58,43.35l-3.75-2.03c.4-.81,2.21-.82,2.91,0,.4.48.72,1.32.84,2.03Z"/>
      <path class="cls-8" d="M37.46,113.81c-.44-.12-1.26-.3-1.64-.51l-3.68-2.04-.04-.82c2.05.14,4.23,1.75,5.36,3.37Z"/>
      <path class="cls-23" d="M238.81,51.82c-2.05-.07-4.3-.27-6.05-.85,1.62-.98,4.75-.46,6.05.85Z"/>
      <path class="cls-5" d="M136.32,48.04l1.22.65c-.92,1.96-2.09,4.18-3.29,5.98l.56-2.25c0-.22,0-.56,0-.75l1.55-1.28c.4-.33-.93-1.21-1.45-1.16l.71-1.16.69-.03Z"/>
      <path class="cls-5" d="M65.25,58.2c.28.78.55,2.37.93,3.1l-1.8.12-.5-2.87.65-.27.71-.07Z"/>
      <path class="cls-25" d="M101.06,96.86c.22-.02.83-.03,1.07-.01s.29.21.47.55c-.68.35-1.93,1.15-2.51,1.62l-2.07-2.33c.86.19,2.15.23,3.03.17Z"/>
      <path class="cls-23" d="M229.99,50.81l-4.48-.52c.04-.43,1.83-1.2,2.47-.96s1.64,1.02,2.02,1.49Z"/>
      <path class="cls-6" d="M69.68,66.07l-.87,1.23c-.63-.34-1.65-.99-2.08-1.49l1.5-.67,1.45.93Z"/>
      <path class="cls-10" d="M192.48,45.69h-1.5l-3.81-.78c1.8-.04,3.97.07,5.3.78Z"/>
      <path class="cls-23" d="M237.53,78.79c.25-1.48.84-3.34,1.31-4.7-.04.85.07,2.47.13,4l-1.44.7Z"/>
      <path class="cls-11" d="M260.69,101.88l-6.15-1.52c2.15-.06,4.49.34,6.15,1.52Z"/>
      <path class="cls-11" d="M113.11,56.17l-1.52,1.5-.78-.78c.2-.24.66-.66.88-.87l1.42.16Z"/>
      <path class="cls-10" d="M149.87,40.44c-1.92.72-4.15,1.15-6.23,1.42,1.86-1.03,4.08-1.46,6.23-1.42Z"/>
      <path class="cls-5" d="M218.69,49.28c-1.32.05-3.05.08-3.74-.68,1,.03,2.92.38,3.74.68Z"/>
      <path class="cls-5" d="M223.93,55.42c-.61-.59-.69-2.08-.53-3.17l.6.06-.07,3.12Z"/>
      <path class="cls-5" d="M214.2,48.58c-.97-.1-2.32-.34-3.06-.57,1,.07,2.35.28,3.06.57Z"/>
      <path class="cls-12" d="M290.7,104.88l-4.54,2.52c1.22-1.75,2.86-1.87,4.54-2.52Z"/>
      <path class="cls-12" d="M138.58,44.89l-2.27,3.15-.69.03c.32-1.67,1.56-2.34,2.96-3.18Z"/>
      <path class="cls-8" d="M63.79,56.17c0-.63.36-1.72.6-2.33l-.6,2.33Z"/>
      <path class="cls-6" d="M71.13,72.71l2.2-1.3c.4-.23-.54-1.55-.68-1.8l1.25.86c.43.3-.02,1.79-.52,1.87l-2.25.36Z"/>
      <path class="cls-25" d="M289.76,102.54c1.73-.75,3.58-1.55,5.35-2.18-.99,1.55-3.39,2.2-5.35,2.18Z"/>
      <path class="cls-6" d="M72.64,68.3l-1.52-.16.54-.81c.23-.34.98.55.98.96Z"/>
      <path class="cls-20" d="M98.03,96.69l-.77-.78.77.78Z"/>
      <path class="cls-8" d="M64.54,58.27l-.65.27c-.04-.23-.09-.69-.09-.92l.74.65Z"/>
      <path class="cls-5" d="M223.26,50.93l-1.67-1.51c.58.03,1.61.93,1.67,1.51Z"/>
      <path class="cls-2" d="M450.09,55.45c.78-1.59.59-9.53.17-11.95,2.18.48,5.2,3.72,4.44,6.35-.61,2.12-3.02,4.4-4.61,5.6Z"/>
      <path class="cls-21" d="M462.04,47.08c.34.64.25,2.13.22,2.88-.47-.04-1.18-.01-2.43-.02l.38-6.32,1.84,3.46Z"/>
      <path class="cls-21" d="M92.83,80.84l.76,1.46c-.69,1.17-.89,3.25.11,3.88l-.03.69c-1.83,3.2-5.67,5.2-9.89,5.43-1.88.1-4.49-1.63-5.24-2.85,4.57-3.79.86-5.23,3.14-6.34,4.93,2.76,6.22-4.68,11.15-2.27Z"/>
      <path class="cls-25" d="M163.32,83.1l31.4,4.01,3.74.52.75.75,1.75.9c.35.18,1.22-.7,1.26-.89l4.42.08c.99.58,3.35,1.29,4.55,1.4.19.02.52,0,.75,0h2.25v1.51l-18.72-2.26c-.46-.28-1.59-.6-2.31-.7l-29.83-3.87-1.38-.84c-.2-.12-.06-.41.19-.45l1.18-.17Z"/>
      <path class="cls-17" d="M149.73,112.5l-.76.56c-6.81-3.38-11.27-10.66-12.28-17.79,6.04-3.18,1.4,7.57,13.04,17.23Z"/>
      <path class="cls-17" d="M148.23,80.91c.13.17,1.11.73,1.56.73h3l-.87,1.91c-.22.48,1.45,1.06,1.74,1.16,4.2,4.4,7.88,9.42,10.34,14.92l-.53.55c-5.43-6.75-10.66-13.93-18.01-18.55l.63-.66,2.15-.05Z"/>
      <path class="cls-22" d="M187.28,119.78l.78.72-1.58,4.35-9.69-1.95c.98-7.06,1.59-13.38,5.99-18.7-1.62,6.59-3.09,11.46-3.72,17.54,2.72.99,4.74,1.28,7,1.02l1.22-2.97Z"/>
      <path class="cls-22" d="M214.95,102.61c-6.46,4.47-14.58,5.76-22.25,7.46l-.08-.66c.44-1.03,1.21-2.39,2.06-3.06l1.3.62c.31.15,1.03-.33,1.06-.49,5.57-.36,11.02-2.06,16.33-3.9l1.59.02Z"/>
      <path class="cls-13" d="M207.81,142.09c-1.85,1.51-4.16,1.6-5.28.26-1.05-1.26-.76-3.78.65-5.09,1.07-.99,3.82-1.27,4.93-.48,1.24.87,1.08,4.19-.31,5.31Z"/>
      <path class="cls-13" d="M188.85,131.09c-1.97,2.01-6.04-1.4-5.65-3.96l4.64-1.5c.74-.24,2.35-.47,3.07-.41s1.63,2.1,1.12,2.62l-3.18,3.24Z"/>
      <path class="cls-25" d="M124.23,80.98l.75,1.56c.12.25.64.51.87.65v.78c-10.9-.75-8.32,2.44-15.48,2.7,3.03-2.73,10.14-5.17,13.86-5.69Z"/>
      <path class="cls-25" d="M168.6,94.5l-6.02-1.83.97-5.57,5.8,1.48-.75,5.92ZM164.72,89.7c-.38.43.5,2.74,1.03,2.51.4-.18,1.1-.52,1.53-.75.51-.27.02-1.42-.3-1.9-.24-.36-1.97-.19-2.26.13Z"/>
      <path class="cls-12" d="M111.59,68.9c-.41.69-.69,2.06-.75,3.09-.52,2.94-2.05,6.02-3.46,9.15-.55,1.22-.87,3.07-1.61,3.63l-.16-.96c-.82-2.09.26-3.21,1.5-5.26,2.27-3.73,2.72-8.56,3.73-12.64h.75v3Z"/>
      <path class="cls-11" d="M155.03,81.64c2.72,0,5.63,1.12,8.29,1.46l-1.18.17c-.25.04-.39.33-.19.45l1.38.84-7.42-.98c-.57-.08-2.25.93-2.26,1.12-.29-.09-1.96-.68-1.74-1.16l.87-1.91h2.25Z"/>
      <path class="cls-25" d="M140.74,77.75l5.34,3.21-.63.66c-3.8-.68-7.73-2.76-9.76-6.05l.66-.59c.76,1.06,3.28,2.09,4.39,2.76Z"/>
      <path class="cls-12" d="M109.07,62.95l-2.63,9.01h-.85c.66-3.62,1.44-6.92,2.57-10.67l.91,1.66Z"/>
      <path class="cls-12" d="M103.34,77.11v1.53c-3.48-.77-6.17,1.49-8.97,3.58l-.78.09-.76-1.46c2.75.28,3.12-2.35,5.95-3.05l1.63-.4,2.92-.29Z"/>
      <path class="cls-24" d="M192.7,110.07c-.87,2.64-1.98,5.28-3.4,7.61l-.51-1.58c1-2.44,2.07-4.78,3.83-6.69l.08.66Z"/>
      <path class="cls-11" d="M148.96,113.06l.76-.56c2.1,1.1,4.25,2.12,6.01,3.83-2.77-.07-5.08-1.54-6.78-3.27Z"/>
      <path class="cls-8" d="M113.84,61.41c.8-3,2.15-4.58,7.04-3.87-3.37.8-4.7,2.15-7.04,3.87Z"/>
      <path class="cls-19" d="M166.9,105.32l-.61-.05-2.84-5.1.53-.55c.79,1.77,2.43,3.64,2.91,5.7Z"/>
      <path class="cls-18" d="M106.43,71.96c-.69,2.37-1.31,4.97-3.08,6.68v-1.53s2.24-5.16,2.24-5.16h.85Z"/>
      <path class="cls-19" d="M108.36,94.31l.06.78c-1.81.28-4.15,1.46-5.82,2.31-.18-.34-.23-.54-.47-.55s-.85,0-1.07.01c1.83-1.81,4.81-1.98,7.29-2.55Z"/>
      <path class="cls-11" d="M183.4,104.11l-.06-1.52c.9-2.27,2.03-3.75,3.63-5.4-1.04,2.81-2.15,5.01-3.56,6.92Z"/>
      <path class="cls-18" d="M164.02,119.08v1.5c-1.96-.57-3.85-1.26-5.68-2.73,2.45.05,4.08.53,5.68,1.23Z"/>
      <path class="cls-18" d="M108.42,95.09l-.06-.78c2.38-.55,4.79-.9,7.79-.41l-7.73,1.19Z"/>
      <path class="cls-19" d="M214.95,102.61l-1.59-.02c1.53-1.25,3.67-2.01,6.2-2.15-1.25,1.49-2.93,2.2-4.61,2.18Z"/>
      <path class="cls-24" d="M130.26,84.49v.76s-4.41-1.27-4.41-1.27v-.78c1.44.35,3.06.81,4.41,1.29Z"/>
      <path class="cls-25" d="M189.3,117.68c-.32.77-.97,2.08-1.24,2.82l-.78-.72,1.51-3.68.51,1.58Z"/>
      <path class="cls-24" d="M113.84,61.41c-.37,1.38-1.48,3.24-2.25,4.49h-.75c.68-2.75,1.17-3.16,3-4.49Z"/>
      <path class="cls-8" d="M164.02,120.58v-1.5l4.63,2.03c-1.95.14-3.35-.02-4.63-.53Z"/>
      <path class="cls-18" d="M111.59,57.67c-.58.58-1.35,2.05-1.66,2.81l-1.63-.07c.81-1.23,1.8-2.69,2.51-3.52l.78.78Z"/>
      <path class="cls-18" d="M108.54,88.68l-4.41,1.87c.87-1.77,2.44-2.61,4.41-1.87Z"/>
      <path class="cls-19" d="M105.76,84.77l-.58,1.4c-.11.26-1.26-.14-1.97-.34l2.4-2.02.16.96Z"/>
      <path class="cls-25" d="M130.27,85.25v-.76s3.97,1.43,3.97,1.43c-1.77-.14-2.8-.32-3.97-.66Z"/>
      <path class="cls-24" d="M124.97,82.55l-.75-1.56c.67-.09,1.98,0,3.17.05l-2.43,1.51Z"/>
      <path class="cls-8" d="M187.26,95.67l3.48-3.53c-.57,1.33-.45,4.22-3.48,3.53Z"/>
      <path class="cls-10" d="M128.97,107.91c.03-.27,1.54.08,1.43.33l-.47,1.04c-.11.24-.56.53-.8.75-.29.27-.19-1.71-.15-2.11Z"/>
      <path class="cls-11" d="M110.84,72c.07-1.03.34-2.4.75-3.09,0,.83-.42,2.32-.75,3.09Z"/>
      <polygon class="cls-18" points="166.3 105.27 166.9 105.32 168.25 108.72 166.3 105.27"/>
      <path class="cls-20" d="M93.7,86.18c-1-.63-.79-2.7-.11-3.88l.78-.09c-.35,1.26-.62,2.67-.67,3.97Z"/>
      <path class="cls-24" d="M195.47,89.13c-.63-.08-1.95-.5-2.31-.7.72.09,1.85.42,2.31.7Z"/>
      <polygon class="cls-8" points="196.22 104.1 195.47 104.1 197.76 101.82 196.22 104.1"/>
      <path class="cls-18" d="M197.03,106.48c-.03.16-.75.63-1.06.49l-1.3-.62c.49-.39,1.56-.06,2.36.13Z"/>
      <path class="cls-22" d="M183.4,104.11c-.08.04-.99-.83-.73-1.06.17-.15.4-.28.67-.46l.06,1.52Z"/>
      <path class="cls-18" d="M195.47,104.1h.75c-.34.62-.47.59-.75,0Z"/>
      <circle class="cls-10" cx="131.44" cy="107.47" r=".37"/>
      <path class="cls-3" d="M72.56,52.44h3.16c1.32,0,3.37.47,4.73,1.11.95,4.52.87,9.64-3.23,12.85l-3.59-7.33c-2.62,2.66-.95,6.22-3.95,7.01l-1.45-.93-2.05-3.84c-.39-.73-.65-2.32-.93-3.1l.37-3.24c1.83-2.13,4.33-2.52,6.94-2.52Z"/>
      <path class="cls-17" d="M89.05,53.92s.59.62.62.6c.06-.03.76-.32.95-.4l8.99-.2-.75,1.5c-2.97-.27-7.68.44-10.42,1.24-.63.18-.57,2.23-.02,2.3,1.12.13,2.94.07,3.76-.25h1.15l.29,1.2c-3.1-.25-5.68,1.39-6.71,4.3l-.63-2c1.08-1.84.9-4.99.03-6.86l-.19-2.82h.79c.36.53,1.54,1.1,2.14,1.39Z"/>
      <path class="cls-19" d="M86.9,52.53h-.79c-1.06-.9-2.03-2.16-2.77-3.53,1.65.42,2.83,2.44,3.55,3.53Z"/>
      <path class="cls-19" d="M86.9,64.21c-.3.84-1.43,1.98-2.73,3.05.52-1.87,1.21-3.54,2.1-5.05l.63,2Z"/>
      <path class="cls-19" d="M70.62,84.09l-3.28-4.62c2.09.72,3.56,2.08,3.28,4.62Z"/>
      <path class="cls-18" d="M86.27,62.22l.03-6.86c.87,1.87,1.05,5.01-.03,6.86Z"/>
      <path class="cls-18" d="M93.62,59.92l-.29-1.2,3.49-.07c-1.04.89-2.1,1.36-3.2,1.27Z"/>
      <path class="cls-8" d="M71.15,87.63l.75-1.5c.58,1.29.74,2.78.61,3.79l-1.36-2.29Z"/>
      <path class="cls-18" d="M92.18,58.71c-.82.32-2.64.38-3.76.25.74-.44,2.57-.41,3.76-.25Z"/>
      <polygon class="cls-24" points="71.9 86.13 71.15 87.63 71.45 84.47 71.9 86.13"/>
      <path class="cls-6" d="M75.73,52.44h-3.16s1.89-.89,1.89-.89c.37-.17,1.22.71,1.28.89Z"/>
      <path class="cls-12" d="M98.86,55.42l.75-1.5c.47-.01,1.39.13,2.32.27l-3.07,1.23Z"/>
      <path class="cls-18" d="M100.42,77.39l-1.63.4,1.63-.4Z"/>
      <path class="cls-12" d="M90.62,54.12c-.19.08-.89.37-.95.4-.04.02-.58-.56-.62-.6l1.57.2Z"/>
      <path class="cls-13" d="M182.74,79.64c5.08,1.03,14.58,2.25,19.47,2.78.37.04,1.09-.02,1.5-.04,1.33.71,3.45.75,5.24.75h1.5c.52.29,1.6.64,2.32.77l4.18.72c.04.69-.57,2.92-1.25,2.91l-3.76-.08c-.26-.19-1.07-.57-1.5-.57-2.55.02-7.43-.67-10.39-1.09l-22.04-3.16c-.34-.62.15-3.02.87-3.01l3.85.02Z"/>
      <path class="cls-13" d="M137.15,67.41c.87,1.05,1.88,2.23,2.84,3.13,1.68,1.56,3.8,3,5.92,3.64l2.37.72c1.09.48,2.47.75,3.74.75h1.5c2.73,1,6.03,1.45,9.04,1.53.71.24,2.43.5,3.22.66-.83-.17,5.19,5.83-15.26,1.4l-3.02-.65-5.26-1.54c-3.34-3.12-6.07-6.44-8.24-10.44v-2.9s.79-.05.79-.05c.64,1.33,1.44,2.66,2.35,3.75Z"/>
      <path class="cls-5" d="M202.21,80.69l-2.3.4,2.3,1.34c-4.89-.53-14.39-1.75-19.47-2.78l3.02-.49-1.7-1.25c6.07.82,12.18,1.63,18.16,2.78Z"/>
      <path class="cls-5" d="M142.26,77.04l-1.52.7c-1.11-.67-3.64-1.7-4.39-2.76-1.06-1.48-2.36-4.38-3.13-6.09.22-.59.8-1.69.8-2.3,2.18,4,4.9,7.32,8.24,10.44Z"/>
      <path class="cls-5" d="M220.93,68.24l.07-14.38c1.76,4.6,1.84,9.82-.07,14.38Z"/>
      <path class="cls-5" d="M182.55,58.42c-.93-2.31-.45-6.75,0-8.99.17,2.93.29,6.07,0,8.99Z"/>
      <path class="cls-5" d="M211.2,89.87c-1.21-.11-3.57-.82-4.55-1.4h4.37s.18,1.4.18,1.4Z"/>
      <path class="cls-6" d="M155.03,81.64h-5.24v-.75c1.79-.03,3.92.03,5.24.75Z"/>
      <path class="cls-5" d="M219.34,77.89c.33-2.08,1.08-6.21,1.55-8.3.12,2.15.02,6.53-1.55,8.3Z"/>
      <path class="cls-5" d="M214.3,50.94c-2.3-.04-6.84-.75-9.09-1.51,3.11,0,6.3.31,9.09,1.51Z"/>
      <path class="cls-5" d="M208.95,83.13c-1.8,0-3.92-.03-5.24-.75,1.77-.07,3.94.03,5.24.75Z"/>
      <path class="cls-10" d="M162.58,77.17c-3.01-.08-6.31-.53-9.04-1.53,2.56,0,6.86.78,9.04,1.53Z"/>
      <path class="cls-5" d="M193.23,47.93c-1.5,0-3.31-.18-4.49-.63,1.51-.17,3.47-.09,4.49.63Z"/>
      <path class="cls-6" d="M199.22,87.63c-.17-.09-.56.03-.75,0l-3.74-.52c1.49-.28,3.49-.26,4.49.52Z"/>
      <path class="cls-23" d="M223.18,70.4v-4.49h.75c0,1.54-.13,3.4-.75,4.49Z"/>
      <path class="cls-5" d="M214.2,82.2c-1.31.02-2.91.04-3.74-.56,1.06,0,2.9.27,3.74.56Z"/>
      <path class="cls-10" d="M149.79,74.89h2.25v.75c-1.27,0-2.65-.27-3.74-.75h1.5Z"/>
      <path class="cls-5" d="M198.47,48.68c-1.27,0-2.88-.22-3.74-.75,1.27,0,2.88.22,3.74.75Z"/>
      <path class="cls-5" d="M223.18,70.4v1.5h-.75c0-.96.31-2.37.75-3v1.5Z"/>
      <path class="cls-3" d="M200.72,88.38l1.52.02c-.04.18-.91,1.07-1.26.89l-1.75-.9h1.5Z"/>
      <path class="cls-5" d="M187.98,47.28l-3-.61c.97-.22,2.62-.05,3,.61Z"/>
      <path class="cls-5" d="M209.7,81.64c-.97,0-2.36-.31-3-.75.98.02,2.35.32,3,.75Z"/>
      <path class="cls-10" d="M150.54,79.23c-.98-.21-2.16-.4-3.02-.65l3.02.65Z"/>
      <path class="cls-5" d="M222.44,76.39c-.41.8-1.17,2.24-1.35,3.06-.35-1.46,0-3.29,1.35-3.81v.75Z"/>
      <path class="cls-5" d="M218.6,80.89l.7-2.25-.7,2.25Z"/>
      <path class="cls-5" d="M214.2,89.87h-2.25l1.15-.84c.29-.21,1.09.47,1.09.84Z"/>
      <path class="cls-25" d="M218.06,89.87c-.46.39-1.6.58-2.43.54.59-.26,1.69-.45,2.43-.54Z"/>
      <path class="cls-5" d="M202.21,49.43c-.63,0-1.85-.43-2.25-.75.63,0,1.84.43,2.25.75Z"/>
      <path class="cls-5" d="M217.94,51.5c-.65-.11-1.93-.41-2.31-.55.62.01,1.88.34,2.31.55Z"/>
      <path class="cls-5" d="M223.93,65.16v.75h-.75c0-.63.43-1.85.75-2.25v1.5Z"/>
      <path class="cls-5" d="M218.12,89.13c.2-.76.46-1.57.71-2.25l-.71,2.25Z"/>
      <path class="cls-24" d="M200.72,88.38h-1.5l-.75-.75c.19.03.57-.09.75,0l1.5.75Z"/>
      <path class="cls-5" d="M212.77,83.9c-.72-.12-1.8-.48-2.32-.77.64,0,1.96.5,2.32.77Z"/>
      <path class="cls-5" d="M219.62,84.69c.18-.49.51-1.29.65-1.56-.09.43-.53,1.39-.65,1.56Z"/>
      <path class="cls-5" d="M211.95,87.45c-.44,0-1.31-.39-1.5-.57.42,0,1.24.38,1.5.57Z"/>
      <path class="cls-25" d="M149.79,80.89v.75c-.45,0-1.43-.55-1.56-.73l1.56-.02Z"/>
      <path class="cls-5" d="M220.99,52.49c-.33-.32-1.07-.96-1.55-.97.09-.08,1.14-.29,1.56-.33s.31,1.27-.01,1.29Z"/>
      <path class="cls-23" d="M222.44,72.65v-.75h.75c0,.28-.54.61-.75.75Z"/>
      <path class="cls-23" d="M223.93,75.64c-.09-1.92.15-4.03,1.5-5.24,0,1.44-.96,3.87-1.5,5.24Z"/>
      <path class="cls-13" d="M32.14,111.26l3.68,2.04-.7,1.19-2.18.28-.76-.25-1.63-1.07c-.41-.27-.69-1.74-.2-1.83l1.78-.35Z"/>
      <path class="cls-6" d="M37.46,113.81l-.05,1.91c0,.41-1.07.36-1.47.37l-.82-1.6.7-1.19c.37.21,1.19.39,1.64.51Z"/>
      <path class="cls-6" d="M32.19,114.52l.76.25-.76-.25Z"/>
      <path class="cls-16" d="M133.31,59.17v.75c-.37.46-1.03,1.84-.73,2.43.23.47.97,1.04,1.44,1.36v2.9c0,.61-.57,1.7-.8,2.3-.65-1.44-1.22-2.85-1.57-4.49l-.49-2.25v-3c.15-.22.36-.53.4-.75.05-.37.04-1.14.15-1.5.38.01,1.51.03,1.52.46l.08,1.79Z"/>
      <path class="cls-5" d="M134.18,55.42l-.12,3.74h-.75l-.08-1.79c-.02-.43-1.14-.45-1.52-.46l.71-2.31,1.76.81Z"/>
      <path class="cls-16" d="M134.81,52.43l-.56,2.25c-.05.19-.06.52-.06.75l-1.76-.81.78-2.64c.13-.43,1.14.21,1.61.45Z"/>
      <path class="cls-16" d="M134.81,51.68l.1-2.45c.52-.04,1.85.83,1.45,1.16l-1.55,1.28Z"/>
      <path class="cls-5" d="M131.65,64.41c-.18-.58-.49-1.65-.49-2.25l.49,2.25Z"/>
      <path class="cls-5" d="M131.17,59.17c0-.23.27-.62.39-.75-.03.22-.24.53-.39.75Z"/>
      <path class="cls-20" d="M164.72,89.7c.29-.32,2.02-.49,2.26-.13.32.48.81,1.62.3,1.9-.43.23-1.14.57-1.53.75-.53.23-1.41-2.08-1.03-2.51Z"/>
      <path class="cls-6" d="M148.29,73.25l-2.37.92c-2.12-.64-4.24-2.08-5.92-3.64l.06-.9,8.23,3.62Z"/>
      <path class="cls-16" d="M148.29,73.25l1.32.58c.23.1.18.95.18,1.06h-1.5l-2.37-.72,2.37-.92Z"/>
      <path class="cls-19" d="M137.8,66.66l-.65.75c-.91-1.09-1.71-2.42-2.35-3.75.95.84,2.24,2,3,3Z"/>
      <path class="cls-5" d="M134.06,62.16l-.05,1.54c-.47-.32-1.2-.88-1.44-1.36-.29-.59.36-1.98.73-2.43l.75,2.25Z"/>
      <path class="cls-10" d="M140.06,69.64l-.06.9c-.96-.9-1.97-2.08-2.84-3.13l.65-.75,2.26,2.98Z"/>
      <polygon class="cls-13" points="134.06 62.16 133.31 59.92 133.31 59.17 134.06 59.17 134.06 62.16"/>
    </g>
  </g>
</svg>