<svg xmlns="http://www.w3.org/2000/svg" viewBox="0 0 1370.58 2434.9"><defs><style>.cls-1{fill:#debbaa;}.cls-2{fill:#1ab0d8;}.cls-3{fill:#22bce0;}.cls-4{fill:#2fc7ea;}.cls-5{fill:#0c89ba;}.cls-6{fill:#1296c3;}.cls-7{fill:#1f5c99;}.cls-8{fill:#434168;}.cls-9{fill:#dd5123;}.cls-10{fill:#a3270a;}.cls-11{fill:#5bd7f4;fill-rule:evenodd;}.cls-12{fill:#e26d2b;}.cls-13{fill:#f98137;}</style></defs><g id="Calque_2" data-name="Calque 2"><g id="Layer_4" data-name="Layer 4"><rect class="cls-1" width="1370.58" height="2434.17"/><rect class="cls-2" width="1370.58" height="2434.17"/><rect class="cls-2" width="1370.58" height="2434.17"/><rect class="cls-2" width="1370.58" height="2434.17"/><path class="cls-3" d="M0,228.12c66,1.56,131.61,13.19,183,50.22,73.11,52.65-29,175.17,45.1,232s427.68-78.75,650.12-99.83c200.76-19,349.78-2.26,492.3,38.17V0H0Z"/><path class="cls-4" d="M0,125.8q68-13.39,135.69-28c115.39-25,254.53-46.2,335.8,37.68,29.26,30.21,46.2,70.58,77.15,99.14,51.23,47.26,131,52.33,199.12,34.65s129.08-54.39,193.3-82.68c133.73-58.9,284-78.65,429.48-61.22V0H0Z"/><path class="cls-4" d="M383.64,165.32c-36.48,4.19-67.13,28.62-62.95,63.35s38.19,48.22,74.67,44S457,248.2,452.8,213.48,420.12,161.12,383.64,165.32Z"/><path class="cls-4" d="M1138.35,279.15c-17.33,2-31.9,13.6-29.91,30.09s18.14,22.91,35.48,20.92,29.26-11.64,27.28-28.13S1155.68,277.16,1138.35,279.15Z"/><path class="cls-4" d="M1208.75,245.81c-9.91,43.79,49.18,79.29,122.22,95.09a321.15,321.15,0,0,0,39.57,6.14V207.68c-2.38-.52-4.39-1-6.61-1.5C1290.9,190.38,1218.67,202,1208.75,245.81Z"/><path class="cls-2" d="M376.47,404.37c-20.61,2.37-37.93,16.17-35.57,35.79s21.58,27.25,42.19,24.88,34.81-13.84,32.45-33.46S397.08,402,376.47,404.37Z"/><path class="cls-3" d="M179.15,1683.45c-74.71,6.93-139.4,47.24-134.09,104.55s73.37,79.6,148.08,72.67,127.77-40.43,122.45-97.75S253.85,1676.53,179.15,1683.45Z"/><path class="cls-3" d="M97.77,1610.55c-19.29,2.27-35.51,15.48-33.3,34.27s20.21,26.1,39.5,23.83,32.59-13.26,30.38-32.05S117.07,1608.28,97.77,1610.55Z"/><path class="cls-5" d="M1142.35,1754s51.38-98.58,157.92-239.87a485.94,485.94,0,0,0-194.11-110.17c-47.79,83.31-89.63,188.6-89.63,188.6s10.24-86.45,38.72-200.62c-55.71-9.41-111.11-4.24-163.45,12.3-19.24,128.25,7.88,297.93,7.88,297.93s-40.09-129.72-62-276.32c-65,31.51-123.23,80.39-168.48,139.45,42.55,135.88,103.46,299.38,103.46,299.38s-49.49-84.17-155.44-215.11c-99.05,202.61-53.63,470.35,307.42,599.35h194.61c116.18-44,198.3-106.25,251.3-178.09V1762.94c-62,33.27-121.21,75.19-121.21,75.19s49.21-52.28,121.21-113.92V1596.6c-12-18.68-26.43-36.58-41.8-53.52C1228.65,1631.7,1142.35,1754,1142.35,1754Z"/><path class="cls-6" d="M327.81,1519.13c-104.66-220-42.56-359.25-42.56-359.25H190s-36.51,113.83,73.29,340.38C396.44,1775.06,670.6,1890,670.6,1890l4.8-18.36S406.32,1684.14,327.81,1519.13Z"/><path class="cls-6" d="M213.89,1300.77s-17.1-12-42.76-43.3c-23.62-28.84-42-66.65-42-66.65l-17.82,43.76s52.29,72.89,100,91.79S232,1287.82,232,1287.82Z"/><path class="cls-6" d="M359,1339.85c-19.07,78.43-59.77,160-59.77,160l11.7,30.13s47.68-71.39,81.47-162.17c34.77-93.41,37.72-177,37.72-177H382.92S381.44,1247.47,359,1339.85Z"/><path class="cls-6" d="M347.42,1597s-78-47.28-136-103.42c-68.3-66.14-99.78-113.25-99.78-113.25l-39.9,25.18s58.67,91.8,139.66,149.9c82.19,59,161.69,103.63,161.69,103.63L371,1643.49Z"/><path class="cls-6" d="M632.4,1260.5s19.26,79.69,30.47,350.74c9.06,219.09-14.87,327.69-14.87,327.69l27.4-2.35s35.66-166.76,48.87-367.54c12.11-183.83-2.83-248.93-11.49-339.73Z"/><path class="cls-6" d="M565.39,1503.17c-37.73-113.28-31.12-201.88-31.12-201.88L467,1347s17.09,99.85,62.21,197.17c62.83,135.54,146.33,214.53,146.33,214.53l19.47-18.65S623.22,1676.82,565.39,1503.17Z"/><path class="cls-6" d="M759.9,1341.09c-25.47,67.87-64.85,86.14-64.85,86.14v31s29.25,6,82.56-82.64,65.47-168.68,65.47-168.68l-60.77,3.41S786.48,1270.28,759.9,1341.09Z"/><path class="cls-7" d="M211.4,1959.14c-51.22-78.61-54.25-181.41-70.2-265.46s-55.37-220-55.37-220L11.88,1494c39.45,84.47,71.85,136,87.55,232.87,12,73.74,35,192.05,108.42,278.38,54.33,63.89,114,87.92,114,87.92l7.45-19.68S271.45,2051.32,211.4,1959.14Z"/><path class="cls-7" d="M22.6,1593.46,0,1599.31v43.13c23.85,61.23,75.67,119.44,121.3,146.85l7-11.75C47.62,1719.13,27.85,1625.52,22.6,1593.46Z"/><path class="cls-7" d="M119.1,1736.64l11.46,7.51c13.55-20.7,26.06-46.26,35.22-72,11.44-32.09,17.34-62.84,17.55-91.4l-24.34.78C158.56,1640.35,142.14,1701.44,119.1,1736.64Z"/><path class="cls-7" d="M346.57,1349.68c-5.73,45.64-22.72,96.9-40.72,151.17-18.85,56.84-40.21,121.26-52.19,190.24-10.38,59.81-9.09,125.59,3.73,190.22a567.72,567.72,0,0,0,84.51,204.83l9.16-6.09q3.49,5.5,7.12,11l11.41-7.59c-40.66-61.14-68.47-127.41-82.67-197-12.54-61.42-13.86-124.42-3.83-182.2,12-69.21,39.2-133.32,63.2-189.89,22.42-52.87,43.6-102.8,49.4-149l.66-5.27-48.68-19.17Z"/><path class="cls-7" d="M260.83,1474.34l-36.59-2c-4.68,24.44-1.88,65.65,7.51,110.24a406.14,406.14,0,0,0,14.26,52.1c5.9,16.42,11.46,26.62,17,31.15l8.67-10.61C270.45,1654.24,242.37,1564.87,260.83,1474.34Z"/><path class="cls-7" d="M273,1614.23l5.49,12.55c41.83-18.32,81-48.65,116.55-90.15,28-32.68,52.59-71.52,69.34-109.37l-32.57-13.66C409.13,1497.57,312.87,1596.75,273,1614.23Z"/><path class="cls-7" d="M342.43,1829.9c-22-44.07-4.18-109.71.59-134l-24.82-5c-5,25.63-5.78,60.63-1.94,91.34,3.17,25.39,10.57,56.85,27.83,62.59l4.32-13C346.8,1831.34,348.12,1841.28,342.43,1829.9Z"/><path class="cls-7" d="M468.85,1584.21c-6.72,9-14,18.16-21.67,27.82-38.44,48.33-86.28,108.47-107.64,211.74-22.45,108.56-8.32,158.48,29.26,246.51l2.73-1.17c.41,1,.82,1.95,1.24,2.93l12.6-5.38c-18.27-42.78-29.32-85.17-32.85-126-3.42-39.6.21-78,10.79-114.17,24.57-84,65.31-130.11,101.26-170.83,12.4-14.06,24.12-27.34,34.63-41.44l3.32-4.47-28.64-32.3Z"/><path class="cls-7" d="M375.18,1748.9,369,1760.85a106.46,106.46,0,0,0,22.69,2.24c50.09,0,117.78-27.6,139.13-67.6l-21.62-18C499.28,1696,453.2,1747.71,375.18,1748.9Z"/><path class="cls-7" d="M337.07,1921l-2.88,13.39a66.18,66.18,0,0,0,13.94,1.37c42.19,0,105-31.9,131.78-69.32l-21.35-21.07C446,1863,406.75,1915.07,337.07,1921Z"/><path class="cls-5" d="M354.47,1897.32C253.1,1932.54,132.35,1970.24,0,2005.78v428.39H1370.54V1922.33C1330.54,1914.61,1033.29,1661.52,354.47,1897.32Z"/><path class="cls-8" d="M1315.72,2037.15c-35.23-12.77-16.3-61.2,20.4-94.19,36-32.32,37-99,13.41-102.89-25.18-4.16-49,96.55-68.18,79-34.28-31.41,8.58-77.94,44.12-107.44,40-33.19,48.81-84.2,30.12-92.33-29.19-12.7-47.54,82.91-76.37,77.68-37.06-6.73,20.85-73.75,51.2-117s44.28-107.73,14.8-111.66c-29.25-3.9-34.73,102.91-57.66,114-27.32,13.25.31-80.83,1.77-132.16s8.47-98.49-15.15-113.47c-18.35-11.64-41.86,44.91-41.74,68.39.3,54,33.23,89.41,21,116.19-12.83,28.13-31-85.47-53.75-66.24-27.26,23,54.24,140.36,38.9,180.61-11.72,30.76-37.83-106.21-63.66-101.55-24.6,4.45-3.38,90.42,12.74,124.14,30.8,64.42,62.88,93.85,53.84,111.64-18.45,36.28-46-97.34-71.82-93.52-22.16,3.27-17.38,54.55,9.6,102.53,36.34,64.66,85.16,90.61,80.83,126.38s-52.8-73.7-79.54-46c-11.73,12.12,24.29,72.09,58.62,108.25,37.88,39.89,75.09,55.64,75.09,55.64s23.24-15,50.29-68.08c2.23-4.37,4.2-8.56,6-12.59v-76.15C1346,1961.15,1334.14,2043.83,1315.72,2037.15Z"/><path class="cls-7" d="M1188.51,1905.19c12.73-37.94,6.75-64.93-21.63-60.92-21.58,3-4.63,81.09-40.44,75.19-17-2.79-13.59-44.12-2.54-78.63,11.81-36.89,31.57-67.61,18-87.2-26.27-37.91-22.58,58.68-61.52,54.47s44.91-149.66,13.29-167.7c-22.44-12.79-34.16,83-67.52,49.36s68.26-130,26.53-167.93c-22-19.95-34.42,87.44-64.76,55.18-23.43-24.91,22-71.9,32.72-121.16S1015,1384.29,996,1397.1c-26.84,18.1-4,98-32.65,105.93-11.42,3.17-3.25-72.45-14.09-127.28s-9.45-108.7-45.53-102.39c-14.6,2.55-10.6,33-2.39,67.22,10.56,43.93,28.07,94,21.93,98.5-15.72,11.64-47.46-81.94-68.6-66.35-20.43,15.06,10.28,44.94,30.11,75s58.14,48.51,52.5,66.94c-8.63,28.16-55.84-55.76-71.45-37.83-23.15,26.59,91.09,102.05,85.06,122.58-4.47,15.24-61.75-58.61-74.84-41-8.85,11.92,17.4,42.09,37.91,65.54s65.6,34.36,62.42,56.56c-2.32,16.2-83-58.63-89.42-39.85-6.91,20.33,22.78,41.32,59.18,66.11,39.61,27,63.58,32.79,59.16,47.45-6.54,21.71-63.7-40.43-83.08-30.44-21.69,11.18,22,42.4,47.71,60.9s99.31,41.58,90.7,67.27c-9.14,27.3-83.86-62-103.49-54.34s8.05,47.82,40.31,66.5,86.3,23.37,76.83,54c-4.89,15.83-96.49-57.16-119.13-50.67s19.69,45.51,50.4,62.84,105.93,36.86,92.42,48.46c-12.5,10.72-106.4-50-119-31.27-18,26.76,52.36,58,88,63.19,85.75,12.53,130.32,34.49,130.32,34.49s-17.56-38.61-20.11-75.89C1175.55,1945,1182.56,1922.92,1188.51,1905.19Z"/><path class="cls-9" d="M413,2169.34s103.88-27.91,192.68-82.47A346,346,0,0,0,581.24,2001c-44.81,27.31-75.47,34.85-75.47,34.85s25.54-16.3,64.47-57.88a351.34,351.34,0,0,0-65.13-87.33c-42,65.89-110.86,145.21-110.86,145.21s38.66-91.13,66.36-182.64a420.92,420.92,0,0,0-106.28-55.16c-41.86,83.24-70.82,190.34-70.82,190.34s14.91-87,42.82-199.18a456.79,456.79,0,0,0-98.09-16.14c-34.06,53.5-52,107-52,107s4.4-32.23,20.45-107.23h0a347,347,0,0,0-71.77,7.55,1349.28,1349.28,0,0,0-39.59,152.61s-5.65-46.9,4.27-143.24A280.16,280.16,0,0,0,0,1838.93v87.25c19,58.76,39.27,103.62,39.27,103.62s-14.72-21-39.27-73.39v175.81c6.59,7.26,10.48,11.32,10.48,11.32A82.44,82.44,0,0,1,0,2137.77v161.6c76,37.14,162.59,43.53,162.59,43.53H287.32s309.42,15.8,321.7-171.48c.66-10,.9-20.56.83-30.24C525.53,2173.67,413,2169.34,413,2169.34Z"/><path class="cls-8" d="M39.71,2433.9H1370.54V2021.36C918.54,1941.47,490,2223.9,39.71,2433.9Z"/><path class="cls-10" d="M177.3,1864.68c-66.2-23.85-91.07,90.08-103,232.83-14-85.37-38.56-132.46-74.3-137.82V2297q5.37,23.09,10.44,47.2c-3.36-8-6.84-16-10.44-23.93v113.94H103.59C161.68,2262.32,278.59,1901.17,177.3,1864.68Z"/><path class="cls-10" d="M99.23,2434.9h91.06c88.27-126,160.7-293.5,116-363.12C250.47,1984.87,185.91,2245.9,99.23,2434.9Z"/><path class="cls-10" d="M384.44,2232.69c-70.25-24.92-81.65,85.21-190.33,202.21H319.45C398.25,2345.9,433.06,2250,384.44,2232.69Z"/><path class="cls-7" d="M893.42,2434.32c.07-.14.14-.28.2-.42h-.08Z"/><path class="cls-7" d="M1027.91,2080.92c-48.47-24-54.38,78.15-85.25,226.27-7.28,35-28.48,84.15-49,126.71h38.19a746.8,746.8,0,0,0,58.07-114.58C1017,2252.54,1064.08,2098.82,1027.91,2080.92Z"/><path class="cls-7" d="M921.33,1966c-40.2-5.36-36,24-25.7,146.68,4.73,56.36-7.15,165.53-24,266,5.7-72.25.49-131.59-3.51-186.42C861.7,2105,857.52,1996,819.75,1997.74c-50.14,2.34-20.6,82.42-11.73,154.06,7.29,58.91,21.18,150,19.64,265.24-26.41-120.88-84.57-303-118.22-296.55C660,2130,715.33,2230.69,734.7,2287c9.93,28.89,36.76,90.27,60.55,143.23-29.7-30.32-60-70.17-82.38-104.52-21.56-33-41.74-124.73-72.8-115.4-41.49,12.47-3.37,82.35,43.86,147.93a473.34,473.34,0,0,0,68.72,75.63H893.54c27-95.28,39-155.24,50.29-245.31C957.27,2081.07,957.06,1970.77,921.33,1966Z"/><path class="cls-7" d="M599.19,2327.33c-17.34,15.63,7,60.57,52,106.57h71.3c-10.41-7-21.63-16.24-33.77-27.1C642.46,2365.36,623.13,2305.77,599.19,2327.33Z"/><path class="cls-11" d="M288.56,2433.9h32.29c18.29-53,53.28-98.43,53.28-98.43S319.9,2365.9,288.56,2433.9Z"/><path class="cls-11" d="M329.15,2433.9h21A312.3,312.3,0,0,1,384,2384.39S353.51,2396.9,329.15,2433.9Z"/><path class="cls-11" d="M261.65,2309.2c44.39-145.53,131.6-222.51,131.6-222.51s-154.09,79.68-192.14,306c.93-135,85.71-306.79,85.71-306.79-40.67,43.67-100,140.22-118.21,249.38-10.16-133.39,44.41-233.8,44.41-233.8s-90.43,101.79-80.33,268.68c-33.82-104.54-45.11-239.46-45.11-239.46s-20.32,159.43,10.06,272.08c-60.23-118.68-59.7-236.29-59.7-236.29S-1,2279.92,76.72,2423c-32-32.78-57.73-69.9-76.72-101.61v35.91a507.48,507.48,0,0,0,51.82,76.65H284.48c.36-1,.74-3.57,1.18-5.4,22.31-94.71,85.73-147.87,85.73-147.87-38.07,23.06-72.07,50.89-95.05,86.25,28.2-113.08,119.59-201.6,119.59-201.6C342.3,2196.47,293.34,2249.94,261.65,2309.2Z"/><path class="cls-12" d="M1112.46,2114.87c-41.18-73.31-104.14-116.8-165-158.86-23.3-16.09-45.31-31.29-66-48-42.77-34.57-87.29-74-123.19-127.74A372.42,372.42,0,0,1,712.39,1685c-12-38.28-17.83-79.55-17.29-122.66a17.11,17.11,0,1,0-34.22-.43c-.58,46.8,5.77,91.73,18.89,133.53a407.15,407.15,0,0,0,50.12,104.14c38.46,57.62,85.3,99.12,130.18,135.4,21.68,17.52,45.25,33.8,68,49.55,57.67,39.83,117.31,81,154.58,147.38,20,35.63,32.23,75.33,37.36,121.9,5.67,51.55,2.3,112.08-10,180.08h34.76c12.16-69,15.18-129.82,9.24-183.9C1148.42,2198.68,1134.81,2154.66,1112.46,2114.87Z"/><path class="cls-12" d="M1169.56,2105.65c-16.58-37.58-39-72.42-68.37-106.51-27.5-31.86-58.57-59.91-85.34-83.15l-3.64-3.16c-103.9-90.19-161.13-139.87-173.79-233.71a17.11,17.11,0,1,0-33.9,4.66c14.41,106.84,78.76,162.7,185.39,255.26l3.64,3.16c54.49,47.31,110.55,100,144.75,177.52,17.75,40.24,28.33,83.61,32.34,133.14,4.32,53.27.71,115-10.72,181h34.7c11.3-68,14.62-128.46,10.13-183.86C1200.41,2196.56,1188.9,2149.51,1169.56,2105.65Z"/><path class="cls-12" d="M1199.3,2001.92c-23.72-53.61-51.35-100.78-75.73-142.39-27.53-47-51.3-87.54-64.74-127.63a17.06,17.06,0,0,0-21.69-10.82,17.32,17.32,0,0,0-10.72,21.91c14.58,43.49,40.38,87.53,67.7,134.14,25.08,42.81,51,87.08,73.94,138.89a641.76,641.76,0,0,1,52.18,201.35,621.35,621.35,0,0,1-15.55,208.2,16.18,16.18,0,0,0,0,8.33h33.1s0,.17,0,.12a657,657,0,0,0,16.44-220A675.86,675.86,0,0,0,1199.3,2001.92Z"/><path class="cls-12" d="M1242.37,1914c-9.28-22.1-18-43-25.69-63.14a17,17,0,0,0-22.09-10,17.34,17.34,0,0,0-9.86,22.32c7.85,20.73,16.73,41.89,26.14,64.29,19.23,45.79,39.11,93.14,55,147.58a641.12,641.12,0,0,1,25.23,206.3,625.1,625.1,0,0,1-25,152.49h35.63a663.55,663.55,0,0,0,23.57-151.09,676.89,676.89,0,0,0-26.6-217.62C1282.25,2008.87,1261.06,1958.55,1242.37,1914Z"/><path class="cls-12" d="M1049,2110.92c-22.22-23.7-49.81-42.84-82-56.89-28.2-12.3-59.58-20.8-95.92-26-66-9.41-134.92-5.69-194.33-1.46a17.28,17.28,0,0,0,2.41,34.47c57.66-4.1,124.42-7.73,187.13,1.21,69.9,10,121.53,33.66,157.86,72.42,26.22,28,44.69,64.67,54.89,109.06,11.59,50.46,12.94,112.16,4,183.9a16.05,16.05,0,0,0,.42,6.26h33.11c.18,0,.33-1.19.42-2,9.45-75.8,7.89-141.7-4.62-196.15C1100.78,2185.34,1079.46,2143.41,1049,2110.92Z"/><path class="cls-13" d="M1149.81,2061.31c-59.73-23.5-128.39-33.37-194.79-42.91-83.73-12-162.83-23.4-194-60.67a17,17,0,0,0-24.12-2,17.4,17.4,0,0,0-2,24.35c18.52,22.12,47.45,38,91.06,49.93,36.71,10.06,79.25,16.17,124.29,22.65,64.48,9.26,131.14,18.84,187.19,40.9,29.46,11.59,53,25.41,71.88,42.26a159.55,159.55,0,0,1,45.16,67c13.13,36.68,15.57,80,7,125.38-7.09,37.74-21.84,75.91-40.47,105.17-.17.28-.34.59-.5.59h39.72a350.73,350.73,0,0,0,34.87-99.58c9.66-51.42,6.72-100.94-8.49-143.44C1265.35,2131.46,1220.6,2089.17,1149.81,2061.31Z"/></g></g></svg>