<svg xmlns="http://www.w3.org/2000/svg" viewBox="0 0 1370.82 2433.28"><defs><style>.cls-1{fill:#1ab0d8;}.cls-2,.cls-4{fill:#1f5c99;}.cls-2,.cls-5{fill-rule:evenodd;}.cls-3{fill:#1296c3;}.cls-5,.cls-9{fill:#f98137;}.cls-6{fill:#0c89ba;}.cls-7{fill:#22bce0;}.cls-8{fill:#2fc7ea;}.cls-10{fill:#dd5123;}</style></defs><g id="Calque_2" data-name="Calque 2"><g id="Layer_4" data-name="Layer 4"><rect class="cls-1" width="1370.82" height="2433.28"/><path class="cls-2" d="M460.07,1883.4s23.11,41.76,31.46,87.91l26.63,4.09C501,1915.13,460.07,1883.4,460.07,1883.4Z"/><path class="cls-2" d="M445.7,1922.48a248.36,248.36,0,0,1,21.64,45.11l17.34,2.67C469.29,1936.61,445.7,1922.48,445.7,1922.48Z"/><path class="cls-2" d="M786.25,1993c82.19-108.1,64.49-206.57,64.49-206.57s-14.48,97-79.18,187.28c39.33-89,42.78-223.08,42.78-223.08s-26.41,109.82-67.55,191.74c29.48-136.34-32.19-231.74-32.19-231.74s32.28,89.71,7,198.42c-1.14-92.32-37.86-179.45-65.87-220.62,0,0,48.14,152.41,31.8,263.84-2.7-191.43-119.66-276.67-119.66-276.67s62.16,74.53,80.32,200.16c-18.63-52.88-52.22-103.17-92.49-135.68,0,0,64.14,84.58,73.06,181.4-14.47-32.06-39-59.3-67.45-83.14,0,0,45.55,51.92,52,132.85.12,1.56.16,3.44.27,4.69l191.84,29.49c35.25-32,81-83.74,98.31-143.17C903.67,1862.24,857.42,1939.46,786.25,1993Z"/><path class="cls-3" d="M904.91,1824.87c-71.34-24.14-106.83-139.43-113.28-211a11.34,11.34,0,1,0-22.59,2c4,45,16.82,93.24,35,132.52,11,23.78,23.89,43.92,38.22,59.85,16.63,18.49,35.25,31.31,55.35,38.11a11.34,11.34,0,0,0,7.26-21.48Z"/><path class="cls-3" d="M1058.53,1970.43c-34.06-17.12-65.68-43.48-94-78.36-26.44-32.6-49.2-71.6-67.66-115.9A606.32,606.32,0,0,1,859,1643.26c-7.35-44.74-9.24-89.24-5.48-128.66a11.34,11.34,0,1,0-22.57-2.16c-8.12,85,8.28,184.29,45,272.45,19.29,46.31,43.17,87.18,71,121.47,30.32,37.39,64.43,65.76,101.39,84.34a11.34,11.34,0,0,0,10.18-20.27Z"/><path class="cls-3" d="M948.29,1686.71c-7.28-37.24-9.37-75.35-6.4-116.51,2.65-36.63,9.49-76.94,20.9-123.22a11.34,11.34,0,1,0-22-5.43c-11.71,47.54-18.74,89.09-21.49,127-3.12,43.2-.91,83.27,6.76,122.5,16.6,84.91,59,167.33,133.33,259.36a11.34,11.34,0,1,0,17.64-14.26C1005.05,1847.12,964.15,1767.85,948.29,1686.71Z"/><path class="cls-3" d="M985.91,1486.22a11.32,11.32,0,0,0-9.91,12.6c7.94,66.4,1.84,114.41-4.67,143-5.58,24.5-16.64,54.87-30.93,66.65a11.34,11.34,0,0,0,14.43,17.5c16.11-13.28,30.18-42.12,38.61-79.11,6.91-30.34,13.4-81.11,5.08-150.73A11.35,11.35,0,0,0,985.91,1486.22Z"/><path class="cls-3" d="M912.21,1480a11.34,11.34,0,1,0-22.58-2.14c-8.28,87.44.76,152.46,26.87,193.26a11.34,11.34,0,1,0,19.1-12.23C912.29,1622.41,904.42,1562.22,912.21,1480Z"/><path class="cls-3" d="M1060.41,1860.55c-9.75-29.71-15.58-62.45-17.34-97.31-3.65-72.76,11-147.48,41.35-210.4A11.34,11.34,0,0,0,1064,1543c-31.94,66.27-47.41,144.89-43.57,221.38,3.81,75.73,25.95,141.95,62.35,186.45a11.34,11.34,0,0,0,17.55-14.36C1083.7,1916.15,1070.27,1890.61,1060.41,1860.55Z"/><path class="cls-3" d="M1098.09,1581.48a11.33,11.33,0,0,0-12.47,10.08c-10.7,100.76-30,134.09-57.72,155.21a11.34,11.34,0,0,0,13.75,18c38.37-29.26,56.4-75.56,66.52-170.86A11.34,11.34,0,0,0,1098.09,1581.48Z"/><path class="cls-3" d="M1153.69,1551.17a11.34,11.34,0,0,0-10,12.55c16.15,142.28-19.33,348.79-69,401.75a11.34,11.34,0,0,0,16.54,15.52c14.17-15.1,27.22-39.6,38.8-72.84,10.45-30,19.59-67.15,26.42-107.43,13.88-81.79,17.55-171.35,9.81-239.56A11.34,11.34,0,0,0,1153.69,1551.17Z"/><path class="cls-3" d="M1207.45,1599.68a11.34,11.34,0,0,0-10.88,11.78c1.28,32.24.66,79.65-9.6,122.44s-27.85,72.32-52.35,88a11.34,11.34,0,1,0,12.25,19.08c29.59-19,50.5-53.25,62.15-101.83,10.87-45.31,11.55-95,10.21-128.63A11.32,11.32,0,0,0,1207.45,1599.68Z"/><path class="cls-3" d="M77.33,1981.93q-39.43,2.17-77.33,2.72v448.5H1370.82V1701.64q-32.62,10.18-66.51,21.93C1000,1829.29,521.06,1957.48,77.33,1981.93Z"/><path class="cls-4" d="M405.3,2126.18c-26.46-14.67-67.52,81-93,82.43-30.39,1.75,27.43-73.83,46.05-120.24s41.2-72.49,23.79-95.15c-13.52-17.62-42.88,7.14-53.6,34C309,2076,321,2119.94,300.37,2139.82c-21.62,20.86-.72-90-28.81-81-33.62,10.72,4.39,149-23.68,180-21.46,23.7-.28-111.53-26.38-117.06-24.85-5.27-33.56,81.43-29.57,118.4,7.62,70.63,28.21,109.73,13.65,122.57-29.7,26.19-11-106.5-36.81-112.81-22.15-5.42-34.82,43.05-25.31,97.18,6.18,35.18,18.14,64.06,27,86.06H311.15c16-22,20.21-49.13,7-57-22.52-13.36-79,69.85-91.28,46.54-22-41.74,34.31-68,78-81.49,49.11-15.19,74.62-58.47,59.6-73-23.46-22.7-73,57.83-98.61,42.1-32.93-20.22,44.57-59.54,87.92-87.64S432,2141,405.3,2126.18Z"/><path class="cls-1" d="M117.72,2420.81c-3.32,1.45-5.25,6.34-6,12.34h29.77C135.07,2423.15,127.38,2416.59,117.72,2420.81Z"/><path class="cls-3" d="M303.21,1720.83c27.72-34.93,61.17-61.92,38.69-80.59-9.1-7.55-25.56,10.64-42.08,33.29-21.25,29.12-42.59,65.61-48.53,64.23-15.2-3.53,25.26-71.18,4.87-76-19.71-4.63-22,29.48-30,57.08s.57,60.41-13.55,66.5c-21.56,9.31,5-62.75-13.93-63-28.12-.33-14.94,108.09-30.54,115-11.56,5.16,3.71-67.82-13.77-66.66-11.82.79-16.59,32.33-20.24,56.92s13,57.62-2.11,67.16c-11,7-7.29-80.77-22-74.94-15.93,6.31-13.34,35.2-9.59,70.13,4.07,38,12.93,55.59,1.74,60.48-16.57,7.24-8.35-59.61-24.44-66.22-18-7.41-14.41,35.27-12.35,60.47s26.05,81.84,6,89.88c-21.31,8.56-5.69-83-20.46-91s-24.9,29.61-19.58,58.87,30.4,64.52,6.92,74.58c-12.15,5.2-15.13-88.19-30.78-98.59-2.95-2-5.41-1.92-7.43-.37v80.89c9.12,28.64,25.08,65.6,13.61,63.79-4.59-.73-9-12.26-13.61-26.78v62.54c19,36.58,24.6,58.94,24.6,58.94S39,2186.91,60.32,2166.1c13.92-13.59,30.93-20.71,44.79-26.26,29.63-11.87,42.94-29.46,25.83-44.63-13-11.54-51.66,39.1-66.59,14.28-7.07-11.75,19.79-31.06,46.47-42.18,28.52-11.89,57.4-15.75,62.3-34.12,9.46-35.56-47.33,16.6-64.9-9.24s114.17-50.06,108.78-78.59c-3.82-20.25-68.07,22.12-64.89-15.52s114.28-25.7,115.77-70.67c.78-23.65-70.93,24.28-67-10.84,3-27.11,55.06-23.8,90.54-42.73s40.58-40.41,23-45.33c-24.87-7-61.63,48.19-81.25,34.9C225.31,1789.87,275.49,1755.76,303.21,1720.83Z"/><path class="cls-3" d="M0,1768v40c29.22-14.86,63.06-29.55,58.47-54.69C55.15,1735.23,17.89,1769.07,0,1768Z"/><path class="cls-3" d="M0,1851.19v33.14c17.73-13.48,31.09-26.3,27-35.91C23.68,1840.51,12.39,1845.45,0,1851.19Z"/><path class="cls-3" d="M83,1646.89c-25.78-1.53-50,60.16-72,51.33-8.78-3.52,33-47.5,52.71-87.5s46.66-73.48,20.73-87c-10.49-5.45-22.72,15.81-34.07,41.45-14.58,33-27.71,73.15-33.81,73.06-15.6-.23,9.6-74.92-11.34-75.28a13.72,13.72,0,0,0-5.18.82V1737.5c15.85-13.62,48.28-22.91,70.12-41.44C100.78,1670,101.2,1648,83,1646.89Z"/><path class="cls-3" d="M0,1932.59v20.16a20.21,20.21,0,0,0,2.75-9.2C3,1937.35,2,1934,0,1932.59Z"/><path class="cls-5" d="M118.39,2433.15h32.3c18.29-53,53.28-98.43,53.28-98.43S149.74,2365.15,118.39,2433.15Z"/><path class="cls-5" d="M159,2433.15h21a312.3,312.3,0,0,1,33.86-49.51S183.35,2396.15,159,2433.15Z"/><path class="cls-5" d="M91.49,2308.45c44.38-145.53,131.6-222.51,131.6-222.51S69,2165.62,31,2391.93c.93-135,85.71-306.79,85.71-306.79C77.08,2127.64,19.79,2220.22,0,2325.77v107.38H114.32c.35-1,.74-3.57,1.17-5.4,22.32-94.71,85.74-147.87,85.74-147.87-38.07,23.06-72.07,50.89-95,86.25,28.2-113.08,119.59-201.6,119.59-201.6C172.13,2195.72,123.18,2249.19,91.49,2308.45Z"/><path class="cls-5" d="M0,2250.85c9.94-89.55,42.86-150.13,42.86-150.13S21,2125.32,0,2170.14Z"/><path class="cls-6" d="M1222.34,2202.86c-23,72.5-27.51,190.13-27.51,190.13s-14.56-93.79-16-205.67a423.52,423.52,0,0,0-151.68-15.57c7.85,121.23,47.5,251.38,47.5,251.38s-42.17-91.77-84.25-247a441.65,441.65,0,0,0-187.24,78c33.19,80.72,85.46,169.42,85.46,169.42s-56.36-55.5-122.46-139.55c-37.79,34.75-64.94,77.39-82.23,124.19,8.05,8.43,16.65,16.76,25.6,24.94h661.29v-116C1332.21,2266.21,1280.58,2227.58,1222.34,2202.86Z"/><path class="cls-6" d="M1245,1240.17c-70.33-2.55-59.3,113.55-27.18,253.15-48.69-95.36-94.93-130-137.83-97.17-60.8,46.47,50.06,171.16,152.15,351.55-68.53-80.58-152.74-149.49-196.57-85.78-42.75,62.12,70.16,151,140.93,198.34l98.52-31.51,15.61-5,16.43-5.26,24.89-8,12.26-3.92,4.08-1.31,22.53-7.21V1468.24c-10.62,74.2-12.2,188.41-22,294.23C1350.87,1570.36,1344.74,1243.79,1245,1240.17Z"/><path class="cls-7" d="M.37,1307c451.26,55.8,923.61-26.9,1370.45-161.19V.15H.37Z"/><path class="cls-8" d="M.37,391.36C288.12,501.24,704.21,585,940.85,592.93q214.94,7.23,430,5.68V.15H.37Z"/><path class="cls-7" d="M215.33,102.19C150.81,111.55,96.61,166.06,104,243.55s67.54,107.62,132.06,98.26,109-54.67,101.56-132.16S279.84,92.83,215.33,102.19Z"/><path class="cls-7" d="M419.93,93.7c-24.42,3.54-44.93,24.16-42.13,53.49s25.56,40.72,50,37.18,41.23-20.68,38.44-50S444.34,90.15,419.93,93.7Z"/><path class="cls-8" d="M959.94,2164.93c-18.14-17.39-33.82-32.41-45.28-45.71C890.6,2091.29,867.27,2047,849,1994.45c-17.7-50.85-29.62-105.88-33.55-154.94a5,5,0,0,0-10,.8c4,49.9,16.1,105.81,34.07,157.44,18.69,53.7,42.68,99.17,67.55,128,11.78,13.67,27.61,28.84,46,46.41,30.55,29.27,68.58,65.71,101.43,109.2,37.69,49.92,61.62,99.63,73.12,151.89h10.29c-11.62-54.5-36.28-106.17-75.39-158C1029.11,2231.19,990.76,2194.45,959.94,2164.93Z"/><path class="cls-8" d="M963.83,1869.64a5,5,0,0,0-3.88,6c8.44,39.9,18.12,92.48,18.08,145.33,0,56.06-10.89,101.18-33.15,138a5,5,0,0,0,1.7,6.9,5,5,0,0,0,2.6.73,5,5,0,0,0,4.31-2.42c12.17-20.12,21.23-43.19,26.93-68.59,5.06-22.52,7.64-47.61,7.66-74.57,0-53.78-9.75-107-18.29-147.42A5,5,0,0,0,963.83,1869.64Z"/><path class="cls-8" d="M1050.34,1897.63a5,5,0,0,0-4.74,5.3c2.43,43.8-1.53,79.2-12.09,108.23-11.63,31.93-31.66,57.73-61.25,78.87a5,5,0,1,0,5.84,8.18c31.3-22.36,52.52-49.71,64.86-83.61,11-30.33,15.18-67,12.68-112.23A5,5,0,0,0,1050.34,1897.63Z"/><path class="cls-8" d="M1005.32,2210.21c-26-15.2-51.32-22.92-75.76-30.39-23.11-7.06-44.94-13.72-65.58-26.17-25.81-15.58-50.71-38.25-74-67.37-21.44-26.8-41-58.38-58.2-93.85a5,5,0,0,0-9,4.38c17.5,36.15,37.49,68.37,59.4,95.75,24,30.06,49.84,53.5,76.67,69.69,21.7,13.1,44.11,19.94,67.83,27.19,23.89,7.3,48.6,14.84,73.63,29.46a5,5,0,0,0,5.07-8.69Z"/><path class="cls-8" d="M959.78,2280.64c-44.52-4.64-90.55-9.44-126.9-27.32-68.16-33.53-121.63-74-158.9-120.37-26.55-33-44.76-68-57.3-110.08a5,5,0,0,0-9.64,2.87c12.93,43.4,31.71,79.47,59.1,113.52,38.21,47.49,92.81,88.9,162.3,123.08,38,18.67,84.9,23.57,130.3,28.31,54.93,5.73,106.82,11.14,130.19,41.08a5,5,0,0,0,7.93-6.18C1070.85,2292.23,1016.9,2286.61,959.78,2280.64Z"/><path class="cls-8" d="M750.05,2122.5C720.93,2075.93,680,2025,634.76,1979.17a5,5,0,1,0-7.16,7.06c91.79,93.08,160.25,202.18,152.62,243.2a5,5,0,0,0,4,5.86,4.88,4.88,0,0,0,.93.09,5,5,0,0,0,4.93-4.11c2.16-11.59-.5-27.31-7.91-46.72C775.29,2166.43,764.47,2145.56,750.05,2122.5Z"/><path class="cls-8" d="M1001.8,2285.67c-25.31-1.69-50.16,2.6-76.48,7.14-37.16,6.41-79.28,13.68-130.14,4.25-58.52-10.84-120.25-42.14-188.71-95.69a5,5,0,1,0-6.19,7.92C670,2263.86,733.2,2295.8,793.35,2307a280.61,280.61,0,0,0,51.53,4.7c30.38,0,57.35-4.65,82.15-8.93,25.71-4.44,50-8.63,74.1-7a5,5,0,0,0,.67-10Z"/><path class="cls-8" d="M835.88,1959.68c-10.74-4.37-36.44-26.8-44.79-47.25a5,5,0,0,0-9.31,3.81c9.17,22.45,36.42,47.1,50.31,52.75a5,5,0,0,0,3.79-9.31Z"/><path class="cls-8" d="M825.06,1911.17c-5.69-3.63-16.33-15.21-24.86-29.49a5,5,0,1,0-8.63,5.16c8.45,14.14,20,27.63,28.07,32.8a5,5,0,0,0,2.7.8,5,5,0,0,0,2.72-9.27Z"/><path class="cls-8" d="M922.51,2135.71c-10.27,3.27-41.4,2.76-61.46-7.9a5,5,0,1,0-4.71,8.88c14.56,7.74,34.23,10.89,49.79,10.89,8,0,14.86-.83,19.43-2.28a5,5,0,1,0-3-9.59Z"/><path class="cls-8" d="M896.85,2102.2c-11.89,2.57-42.35-2.09-60.07-13.8a5,5,0,0,0-5.54,8.4c16.75,11,41.53,16.1,57.72,16.1a48.72,48.72,0,0,0,10-.88,5,5,0,1,0-2.12-9.82Z"/><path class="cls-8" d="M872.77,2065.82c-11.15,1.34-38.67-5.82-56.42-20.09a5,5,0,1,0-6.3,7.84c8.82,7.08,20.81,13.32,33.76,17.54,9.69,3.17,19.12,4.91,26.17,4.91a32.86,32.86,0,0,0,4-.22,5,5,0,1,0-1.2-10Z"/><path class="cls-8" d="M859.52,2028.33c-11.59-.46-43.38-12.82-58.18-29.22a5,5,0,0,0-7.46,6.74c16.26,18,50.25,31.93,65.24,32.53h.2a5,5,0,0,0,.2-10.05Z"/><path class="cls-8" d="M845.09,1996c-11.44-1.91-41.43-18.16-54.05-36.28a5,5,0,0,0-8.25,5.74c13.87,19.91,45.85,38,60.64,40.46a5.93,5.93,0,0,0,.83.07,5,5,0,0,0,.83-10Z"/><path class="cls-8" d="M805.3,2111.35c-8,2-30.4,1.28-50-5.28a5,5,0,0,0-3.19,9.54,139.25,139.25,0,0,0,41.83,6.8,59.67,59.67,0,0,0,13.78-1.31,5,5,0,1,0-2.45-9.75Z"/><path class="cls-8" d="M717.2,2182.94c-7.37,3.72-29.37,7.94-49.9,5.84a5,5,0,1,0-1,10,123.53,123.53,0,0,0,12.5.61c17.68,0,34.92-3.42,43-7.47a5,5,0,0,0-4.53-9Z"/><path class="cls-8" d="M690.3,2157c-7.81,2.65-30.19,3.76-50.22-1.19a5,5,0,1,0-2.41,9.76,138.52,138.52,0,0,0,32.37,3.76c9.81,0,18.32-1.05,23.5-2.81a5,5,0,0,0-3.24-9.52Z"/><path class="cls-8" d="M670.22,2131.38c-7.81,2.65-30.19,3.75-50.23-1.2a5,5,0,0,0-2.41,9.76,138.66,138.66,0,0,0,32.37,3.77c9.82,0,18.33-1.06,23.5-2.81a5,5,0,1,0-3.23-9.52Z"/><path class="cls-8" d="M651.8,2103.37c-8.19,1-30.31-2.56-48.9-11.53a5,5,0,1,0-4.37,9c17.19,8.3,37.89,12.69,50.09,12.69a36.14,36.14,0,0,0,4.38-.23,5,5,0,0,0-1.2-10Z"/><path class="cls-8" d="M635.19,2073c-8.08-1.69-27.89-12.15-42.62-26.61a5,5,0,1,0-7,7.17c15.42,15.15,36.71,27,47.59,29.28a4.6,4.6,0,0,0,1,.11,5,5,0,0,0,1-10Z"/><path class="cls-8" d="M638.49,2028.86a5,5,0,0,0-4.49,5.51c2.44,23.78-1.62,36.1-4.26,41.34a5,5,0,0,0,2.23,6.75,4.91,4.91,0,0,0,2.26.54,5,5,0,0,0,4.49-2.77c5.49-10.88,7.31-27.09,5.28-46.88A5,5,0,0,0,638.49,2028.86Z"/><path class="cls-8" d="M658.5,2052.12a5,5,0,0,0-4.49,5.52c2.11,20.52-2.1,42.53-5.81,49.9a5,5,0,0,0,9,4.53c5-9.93,9-34,6.83-55.46A5,5,0,0,0,658.5,2052.12Z"/><path class="cls-8" d="M678.81,2081.12a5,5,0,0,0-4.49,5.51c2.11,20.53-2.1,42.54-5.82,49.9a5,5,0,0,0,2.23,6.76,5.09,5.09,0,0,0,2.26.53,5,5,0,0,0,4.49-2.76c5-9.93,9-34,6.84-55.46A5,5,0,0,0,678.81,2081.12Z"/><path class="cls-8" d="M700.84,2104.36a5,5,0,0,0-4.49,5.52c2.11,20.53-2.1,42.54-5.82,49.9a5,5,0,0,0,2.23,6.75,5,5,0,0,0,6.75-2.22c5-9.93,9-34,6.84-55.46A5,5,0,0,0,700.84,2104.36Z"/><path class="cls-8" d="M727.31,2130.1a5,5,0,0,0-4.49,5.52c2.11,20.53-2.1,42.53-5.82,49.9a5,5,0,0,0,2.23,6.75,5,5,0,0,0,6.75-2.22c5-9.93,9-34,6.84-55.46A5,5,0,0,0,727.31,2130.1Z"/><path class="cls-8" d="M779.19,2081.75c-6.73.41-22.16-2.62-37.48-9.09a5,5,0,0,0-3.91,9.26c14.17,6,30.18,9.92,40,9.92.7,0,1.37,0,2-.06a5,5,0,1,0-.64-10Z"/><path class="cls-8" d="M760.56,2050.81c-6.73.42-22.16-2.62-37.48-9.09a5,5,0,0,0-3.92,9.26c14.18,6,30.19,9.92,40,9.92.69,0,1.36,0,2-.06a5,5,0,0,0-.63-10Z"/><path class="cls-8" d="M743.33,2019.57c-6.73.43-22.16-2.61-37.48-9.09a5,5,0,0,0-3.92,9.27c14.17,6,30.19,9.92,40,9.92.69,0,1.36,0,2-.06a5,5,0,0,0-.63-10Z"/><path class="cls-8" d="M658.22,2008.16c-6.74.43-22.16-2.61-37.48-9.09a5,5,0,0,0-3.92,9.26c14.17,6,30.18,9.92,40,9.92.69,0,1.36,0,2,0a5,5,0,0,0-.63-10Z"/><path class="cls-8" d="M653.76,1966.68a5,5,0,0,0-3.3,6.31c5,15.87,6.54,31.51,5.47,38.17a5,5,0,0,0,4.17,5.76,4.4,4.4,0,0,0,.8.07,5,5,0,0,0,5-4.23c1.52-9.47-.87-27.06-5.8-42.78A5,5,0,0,0,653.76,1966.68Z"/><path class="cls-8" d="M686.14,1990.56a5,5,0,0,0-4.63,5.4c1.29,16.59-.72,32.18-3.26,38.43a5,5,0,0,0,9.32,3.79c3.61-8.89,5.24-26.57,4-43A5,5,0,0,0,686.14,1990.56Z"/><path class="cls-8" d="M710.82,2068.13c-6.58,1.53-22.29,1.06-38.47-2.81a5,5,0,0,0-2.34,9.78,140.87,140.87,0,0,0,31.18,3.91,54.76,54.76,0,0,0,11.9-1.09,5,5,0,0,0-2.27-9.79Z"/><path class="cls-8" d="M772.68,2175c-6.72.54-22.2-2.22-37.63-8.43a5,5,0,1,0-3.75,9.32c14,5.62,29.62,9.24,39.52,9.24.95,0,1.84,0,2.67-.1a5,5,0,0,0-.81-10Z"/><path class="cls-8" d="M751,1979.33h-.15a5,5,0,0,0-5,4.87c-.49,16.63-4.15,31.92-7.34,37.86a5,5,0,0,0,2,6.81,4.94,4.94,0,0,0,2.37.6,5,5,0,0,0,4.43-2.65c4.54-8.45,8-25.85,8.54-42.32A5,5,0,0,0,751,1979.33Z"/><path class="cls-8" d="M770.34,2010.12h-.15a5,5,0,0,0-5,4.88c-.49,16.63-4.15,31.92-7.35,37.86a5,5,0,0,0,2.06,6.81,4.94,4.94,0,0,0,2.37.6,5,5,0,0,0,4.43-2.65c4.54-8.45,8.05-25.85,8.54-42.32A5,5,0,0,0,770.34,2010.12Z"/><path class="cls-8" d="M792,2039.68h-.15a5,5,0,0,0-5,4.88c-.49,16.63-4.15,31.92-7.34,37.86a5,5,0,0,0,2,6.81,4.94,4.94,0,0,0,2.37.6,5,5,0,0,0,4.43-2.65c4.54-8.45,8-25.85,8.54-42.32A5,5,0,0,0,792,2039.68Z"/><path class="cls-8" d="M814.72,2070.86h-.15a5,5,0,0,0-5,4.88c-.49,16.63-4.15,31.92-7.34,37.86a5,5,0,0,0,2,6.81,5.08,5.08,0,0,0,2.37.6,5,5,0,0,0,4.44-2.65c4.53-8.45,8-25.85,8.53-42.32A5,5,0,0,0,814.72,2070.86Z"/><path class="cls-8" d="M1080.09,1933.57c-11.63,11.89-24.68,20.65-31.06,22.86a5,5,0,0,0,1.65,9.78,5,5,0,0,0,1.64-.28c9.07-3.13,23.44-13.55,35-25.33a5,5,0,0,0-7.19-7Z"/><path class="cls-8" d="M1079.52,1905.31c-11.64,11.89-24.69,20.65-31.06,22.86a5,5,0,1,0,3.29,9.5c9.06-3.14,23.44-13.55,35-25.33a5,5,0,1,0-7.18-7Z"/><path class="cls-8" d="M1036.22,1896.83a5,5,0,1,0-9.58,3c5,15.71,13.11,31.49,19.79,38.37a5,5,0,0,0,7.11.11,5,5,0,0,0,.11-7.11C1049,1926.39,1041.25,1912.68,1036.22,1896.83Z"/><path class="cls-8" d="M1078.24,1968.68c-13,10.33-27.1,17.37-33.7,18.75a5,5,0,0,0,1,10,4.66,4.66,0,0,0,1-.11c9.39-2,25-10.48,37.88-20.71a5,5,0,1,0-6.24-7.88Z"/><path class="cls-8" d="M1065.67,2006.56c-13,10.33-27.09,17.37-33.7,18.76a5,5,0,0,0,1,10,5.15,5.15,0,0,0,1-.11c9.39-2,25-10.49,37.88-20.71a5,5,0,0,0-6.24-7.89Z"/><path class="cls-8" d="M1046.8,2048.83c-15.13,6.92-30.46,10.41-37.2,10.18a5,5,0,1,0-.35,10c.33,0,.66,0,1,0,9.75,0,26.26-4.48,40.73-11.1a5,5,0,0,0-4.18-9.14Z"/><path class="cls-8" d="M1004.73,2161a5,5,0,0,0-4.64,5.39c1.24,16.58-.8,32.17-3.36,38.42a5,5,0,0,0,2.75,6.55,4.92,4.92,0,0,0,1.9.38,5,5,0,0,0,4.66-3.12c3.63-8.88,5.31-26.55,4.08-43A5,5,0,0,0,1004.73,2161Z"/><path class="cls-8" d="M1032.76,2186.5a5,5,0,0,0-5.28,4.76c-.87,16.61-4.87,31.81-8.19,37.68a5,5,0,1,0,8.75,5c4.72-8.35,8.62-25.67,9.48-42.12A5,5,0,0,0,1032.76,2186.5Z"/><path class="cls-8" d="M1058.63,2216.82a5,5,0,0,0-5.28,4.76c-.87,16.61-4.87,31.81-8.19,37.68a5,5,0,1,0,8.75,5c4.72-8.35,8.62-25.67,9.48-42.12A5,5,0,0,0,1058.63,2216.82Z"/><path class="cls-8" d="M1096.88,2258.71a5,5,0,0,0-6.27,3.36c-4.8,15.93-12.31,29.74-16.94,34.65a5,5,0,1,0,7.32,6.9c6.58-7,14.5-22.87,19.25-38.65A5,5,0,0,0,1096.88,2258.71Z"/><path class="cls-8" d="M1006.09,2102.92c-15.13,6.92-30.48,10.41-37.2,10.18a5,5,0,1,0-.35,10.05l1,0c9.75,0,26.26-4.48,40.73-11.1a5,5,0,0,0-4.18-9.15Z"/><path class="cls-8" d="M994.3,2134c-15.13,6.92-30.47,10.4-37.2,10.18a5,5,0,1,0-.35,10c.33,0,.66,0,1,0,9.75,0,26.26-4.48,40.73-11.1a5,5,0,0,0-4.18-9.14Z"/><path class="cls-8" d="M844.93,2216.82a5,5,0,0,0-3.95,5.92c3.26,16.31,3.14,32,1.37,38.54a5,5,0,1,0,9.7,2.64c2.52-9.25,2-27-1.21-43.15A5,5,0,0,0,844.93,2216.82Z"/><path class="cls-8" d="M811.13,2200.46a5,5,0,0,0-3.94,5.92c3.26,16.31,3.14,32,1.37,38.54a5,5,0,1,0,9.7,2.64c2.52-9.25,2-27-1.21-43.16A5,5,0,0,0,811.13,2200.46Z"/><path class="cls-8" d="M874.35,2228.73a5,5,0,0,0-3.94,5.91c3.26,16.31,3.14,32,1.36,38.54a5,5,0,0,0,3.54,6.18,5,5,0,0,0,1.32.17,5,5,0,0,0,4.85-3.7c2.52-9.26,2-27-1.21-43.16A5,5,0,0,0,874.35,2228.73Z"/><path class="cls-8" d="M907.77,2231.71a5,5,0,0,0-3.95,5.92c3.27,16.31,3.14,32,1.37,38.54a5,5,0,0,0,3.53,6.17,5.13,5.13,0,0,0,1.33.18,5,5,0,0,0,4.84-3.71c2.52-9.25,2-27-1.21-43.15A5,5,0,0,0,907.77,2231.71Z"/><path class="cls-8" d="M986.26,2201a5,5,0,0,0-7,1.1c-6.35,8.71-31.77,26.69-54.24,30a5,5,0,0,0,.72,10,5.81,5.81,0,0,0,.72-.05c24.68-3.58,52.56-22.52,60.92-34A5,5,0,0,0,986.26,2201Z"/><path class="cls-8" d="M938.72,2190.25c-8.06,9.1-35.38,23.35-56.59,24.39a5,5,0,0,0,.24,10.05h.25c24.9-1.22,54.32-17.26,63.63-27.76a5,5,0,0,0-7.53-6.67Z"/><path class="cls-8" d="M897.8,2175.14c-8.2,7.67-34.63,18.17-57.38,17.16a5,5,0,1,0-.45,10c1.12,0,2.26.08,3.41.08a112.5,112.5,0,0,0,34.19-5.89c11.66-3.82,21.78-9.07,27.1-14a5,5,0,0,0-6.87-7.35Z"/><path class="cls-8" d="M857.29,2155.42c-9.17,7.24-37.47,16.33-59.23,13.54a5,5,0,1,0-1.28,10,77.71,77.71,0,0,0,10,.61c22.69,0,47.2-8.67,56.77-16.23a5,5,0,1,0-6.23-7.89Z"/><path class="cls-8" d="M834.17,2135.16c-8.62,4.34-34.34,8.5-55,5.13a5,5,0,1,0-1.62,9.92,114.27,114.27,0,0,0,18.26,1.37c17.26,0,34.54-3.23,42.9-7.44a5,5,0,1,0-4.52-9Z"/><path class="cls-8" d="M857.15,1894.37a5,5,0,0,0-4.88,5.16c.62,22.08-13.84,53-21.9,61.31a5,5,0,0,0,7.23,7c10.42-10.78,25.4-44.33,24.72-68.58A5,5,0,0,0,857.15,1894.37Z"/><path class="cls-8" d="M834.59,1871.24a5,5,0,0,0-5.6,4.37c-2,16.51-7.1,31.39-10.83,37a5,5,0,1,0,8.38,5.56c5.3-8,10.41-25,12.43-41.35A5,5,0,0,0,834.59,1871.24Z"/><path class="cls-8" d="M940.64,2076a5,5,0,0,0-3.79,6c5,22.15-2.65,52.33-8.5,61.38a5,5,0,0,0,8.45,5.45c7.7-11.91,15.37-44.74,9.86-69.05A5,5,0,0,0,940.64,2076Z"/><path class="cls-8" d="M924.9,2046.27a5,5,0,0,0-5.59,4.39c-2.75,22.93-13.94,45.52-22.68,52.23a5,5,0,0,0,6.13,8c11.82-9.09,23.73-35.56,26.53-59A5,5,0,0,0,924.9,2046.27Z"/><path class="cls-8" d="M906.13,2014.43a5,5,0,0,0-6,3.87c-3.65,17.28-13.48,38.66-25.18,46.08a5,5,0,1,0,5.39,8.49c12.8-8.12,24.7-29.21,29.63-52.48A5,5,0,0,0,906.13,2014.43Z"/><path class="cls-8" d="M896.32,1977.11a5,5,0,0,0-6.35,3.2c-6,18.26-21.35,42.89-32.86,48.53a5,5,0,1,0,4.42,9c13.18-6.46,30.23-30.87,38-54.41A5,5,0,0,0,896.32,1977.11Z"/><path class="cls-8" d="M883.23,1937.5a5,5,0,0,0-5.9,4c-4.23,21.68-25.1,48.65-34.79,55a5,5,0,1,0,5.52,8.4c12.54-8.23,34.49-37.68,39.14-61.49A5,5,0,0,0,883.23,1937.5Z"/><path class="cls-8" d="M982.45,1947.48c-7.36-3.81-23.43-19.77-31.85-36.11a5,5,0,0,0-8.94,4.61c9,17.45,26.28,35.31,36.17,40.43a5,5,0,1,0,4.62-8.93Z"/><path class="cls-8" d="M975.38,1902.76c-6.38-2.14-17.36-10.72-20-19.29a5,5,0,0,0-9.6,3c3.88,12.35,17.86,22.93,26.45,25.82a5,5,0,0,0,1.6.26,5,5,0,0,0,1.6-9.8Z"/><path class="cls-8" d="M980.65,2071.64c-12.77-3.15-24.55-8.54-32.34-14.77a5,5,0,1,0-6.28,7.85c8.88,7.11,22.08,13.19,36.2,16.69a5,5,0,0,0,2.42-9.77Z"/><path class="cls-8" d="M982.88,2042.88c-11.57-2.46-29.3-10.22-40.92-21.45a5,5,0,0,0-7,7.24c13.12,12.67,32.46,21.2,45.82,24a4.7,4.7,0,0,0,1.05.12,5,5,0,0,0,1-9.95Z"/><path class="cls-8" d="M1020.23,2016.41a5,5,0,0,0-6.9,1.71c-8.34,13.83-23.49,25.89-34,31.24a5,5,0,0,0,4.55,9c12.17-6.18,28.67-19.4,38.09-35A5,5,0,0,0,1020.23,2016.41Z"/><path class="cls-8" d="M983.84,2013.37c-13.66-5.1-32.11-16.43-41-28.24a5,5,0,0,0-8,6c10.47,14,30.92,26.19,45.49,31.63a5.14,5.14,0,0,0,1.75.32,5,5,0,0,0,1.76-9.74Z"/><path class="cls-8" d="M985.19,1982.14c-9.34-2.73-33.06-20.21-42.26-37.93a5,5,0,1,0-8.92,4.63c10.23,19.71,36,39.34,48.36,43a5,5,0,0,0,1.42.21,5,5,0,0,0,1.4-9.86Z"/><path class="cls-8" d="M1006.45,1891.13a5,5,0,0,0-5.34,4.7c-1.24,19.53-16.47,45.61-24.25,52.3a5,5,0,1,0,6.56,7.62c10.21-8.79,26.35-37.56,27.73-59.29A5,5,0,0,0,1006.45,1891.13Z"/><path class="cls-8" d="M988.37,1868.76a5,5,0,0,0-6,3.84c-3.14,14.42-8.79,27.14-12.53,31.78a5,5,0,1,0,7.84,6.3c5.41-6.72,11.38-21.51,14.51-35.94A5,5,0,0,0,988.37,1868.76Z"/><path class="cls-8" d="M1021.85,1971a5,5,0,0,0-6.62,2.61c-8.23,19-24.13,36.83-32.84,40.15a5,5,0,0,0,1.79,9.73,5.1,5.1,0,0,0,1.79-.33c12.36-4.71,29.62-25.14,38.48-45.54A5,5,0,0,0,1021.85,1971Z"/><path class="cls-8" d="M1021,1932.7a5,5,0,0,0-6.23,3.42c-5.49,18.78-26.06,40.89-35.12,45.71a5,5,0,0,0,4.73,8.88c11.89-6.34,33.94-30.87,40-51.78A5,5,0,0,0,1021,1932.7Z"/><path class="cls-8" d="M696.56,2261.07a5,5,0,0,0-6.17,2.4c-1.37.77-7.11,2.17-19.87.53a149.29,149.29,0,0,1-38.65-10.81,5,5,0,1,0-4,9.24c18.16,7.8,38.82,12.4,53.19,12.4,5.37,0,9.86-.64,13-2a9.35,9.35,0,0,0,5.49-5.32A5,5,0,0,0,696.56,2261.07Z"/><path class="cls-8" d="M658.68,2203.9a5,5,0,0,0-6.32,7.83c24.06,19.41,39.13,40.93,37.51,53.54a5,5,0,0,0,4.35,5.63,4.73,4.73,0,0,0,.65,0,5,5,0,0,0,5-4.38C702.37,2246.9,680.24,2221.3,658.68,2203.9Z"/><path class="cls-8" d="M745.69,2287.41c-2.43,2.21-12.76,6.09-30.13,7.09-10.28.6-30.11.47-47.35-7.09a5,5,0,0,0-4,9.21c15.23,6.68,32,8.15,43.88,8.15,3.06,0,5.8-.09,8.09-.23,16.65-1,30.9-4.76,36.32-9.69a5,5,0,1,0-6.77-7.44Z"/><path class="cls-8" d="M805.76,2300.94a5,5,0,0,0-7,1.26c-6.29,9-42.65,20.3-75.56,17.08a5,5,0,1,0-1,10c4,.4,8.23.59,12.48.59,30.38,0,63.77-9.65,72.32-21.94A5,5,0,0,0,805.76,2300.94Z"/><path class="cls-8" d="M874.21,2304a5,5,0,0,0-6.62,2.59c-4.44,10.12-28.72,30.74-88.87,36.31a5,5,0,0,0,.45,10l.47,0c28-2.6,51.41-8.59,69.45-17.81,13.9-7.09,24-16,27.71-24.48A5,5,0,0,0,874.21,2304Z"/><path class="cls-8" d="M963,2287.33a5,5,0,0,0-7,.93c-11.74,15.35-55.77,52-94.56,64.34a5,5,0,0,0,1.52,9.82,5.09,5.09,0,0,0,1.53-.24c22.64-7.22,45-21.47,59.75-32.16,17-12.28,32.58-26.28,39.75-35.65A5,5,0,0,0,963,2287.33Z"/><path class="cls-8" d="M701.73,2220.11a5,5,0,0,0-5.23,8.59c27.92,17,46.26,44.48,47.24,60.22a5,5,0,0,0,5,4.71h.32a5,5,0,0,0,4.7-5.33c-.6-9.64-6.07-22.16-15-34.35A130.34,130.34,0,0,0,701.73,2220.11Z"/><path class="cls-8" d="M749.89,2238.61a5,5,0,0,0-5.19,8.62c36.13,21.72,47.21,38.79,53.38,59.29a5,5,0,0,0,4.81,3.58,4.86,4.86,0,0,0,1.45-.22,5,5,0,0,0,3.36-6.26C801,2281.46,788.65,2261.93,749.89,2238.61Z"/><path class="cls-9" d="M1146,1861.13s30.83-6.43,137.39,132.66c27.23,35.54,57.5,85.71,87.47,140.68V1577.72l-119.39,55.19Z"/><path class="cls-10" d="M1177.56,1796.33a3,3,0,0,0-4.29.15,3.09,3.09,0,0,0,.06,4.34c55.47,54.11,125.86,157,197.49,287.89v-12.93C1300.73,1949.06,1232.06,1849.49,1177.56,1796.33Z"/><path class="cls-10" d="M1206.49,1690.44a3.1,3.1,0,0,0-.45,4.32c44.71,55.15,102.67,158.25,164.78,292.18v-14.37c-60.26-128.71-116.4-227.91-160.06-281.78A3,3,0,0,0,1206.49,1690.44Z"/><path class="cls-10" d="M1293.79,1643.24a3.09,3.09,0,0,0-1.4,4.11c18,37,45.82,106.17,78.43,194.54v-17.52c-30.23-81.28-55.94-144.91-73-179.83A3,3,0,0,0,1293.79,1643.24Z"/><path class="cls-9" d="M1367.6,2017.61,974.79,2203.12s131.11-35.76,286.94,126.91c31.07,32.44,58.19,68.17,81.16,103.12h27.93V2136.51C1364.76,2066.85,1367.6,2017.61,1367.6,2017.61Z"/><path class="cls-10" d="M1185.56,2237c-51.75-41.26-106-71.78-161.39-90.9a3.07,3.07,0,0,0-2,5.81c54.68,18.89,108.37,49.19,159.59,90,44.27,35.29,86.73,78.07,126.21,127.88,16.79,21.18,32.26,42.94,46.38,63.33h7.29c-14.82-21.85-31.13-44.66-48.92-67.1C1273,2315.88,1230.19,2272.6,1185.56,2237Z"/><path class="cls-10" d="M1155.34,2089.9a3,3,0,1,0-4.26,4.32c25.11,24.76,101.54,131.22,170.39,237.8,17.81,27.56,34.29,53.94,49.35,78.43v-11.58c-13.82-22.41-28.64-46-44.25-70.14C1257.52,2221.84,1180.71,2114.91,1155.34,2089.9Z"/><path class="cls-10" d="M1282.17,2059.67a3.08,3.08,0,0,0-2.74,3.35c4.36,47.6,36.37,142.25,87.81,260.31,1.18,2.72,2.38,5.45,3.58,8.17v-15.13c-50-115.36-81.09-207.68-85.35-254A3,3,0,0,0,1282.17,2059.67Z"/><path class="cls-10" d="M1350.86,2021.32a3,3,0,0,0-2.8-3.16,3.05,3.05,0,0,0-3.25,2.85,677.57,677.57,0,0,0,26,243.36v-22.72A671.2,671.2,0,0,1,1350.86,2021.32Z"/><path class="cls-10" d="M1110.73,1957.86c-127.31,56-181.85,206.93-150.89,238.48,24.85,25.34,55.57-41.18,207.51-53.57,181.46-14.81,234.56-112.8,178.46-179.13C1317.15,1929.75,1210.84,1913.82,1110.73,1957.86Z"/><path class="cls-10" d="M1165.77,1851.92c23.23-21.29,34.86-132,130.26-165.68,22-7.75,48-14.33,74.79-21.12V1497c-43.83,15.68-89.85,41.38-130.16,73.71C1123.82,1664.4,1107.19,1905.61,1165.77,1851.92Z"/></g></g></svg>