<?xml version="1.0" encoding="UTF-8"?>
<svg id="Calque_2" data-name="Calque 2" xmlns="http://www.w3.org/2000/svg" viewBox="0 0 125.55 130.36">
  <defs>
    <style>
      .cls-1 {
        fill: #ffd799;
      }

      .cls-2 {
        fill: #ceac8e;
      }

      .cls-3, .cls-4, .cls-5, .cls-6, .cls-7 {
        stroke: #333652;
        stroke-linecap: round;
        stroke-linejoin: round;
        stroke-width: 2.16px;
      }

      .cls-3, .cls-8 {
        fill: #ffc357;
      }

      .cls-9, .cls-6 {
        fill: #fff;
      }

      .cls-10 {
        fill: #333652;
      }

      .cls-11 {
        fill: #c3996d;
      }

      .cls-12 {
        fill: #896239;
      }

      .cls-4 {
        fill: #ea9188;
      }

      .cls-5 {
        fill: none;
      }

      .cls-13 {
        fill: #bed5e5;
      }

      .cls-14 {
        fill: #a37c52;
      }

      .cls-7 {
        fill: #b8cc71;
      }

      .cls-15 {
        fill: #90adc6;
      }
    </style>
  </defs>
  <g id="Calque_1-2" data-name="Calque 1">
    <g>
      <g>
        <path class="cls-11" d="M105.81,4.35H19.74c-6.26,0-11.79,3.08-15.18,7.8h116.42c-3.39-4.72-8.92-7.8-15.18-7.8Z"/>
        <path class="cls-11" d="M4.56,12.15c-2.19,3.06-3.48,6.81-3.48,10.86h123.39c0-4.05-1.29-7.8-3.48-10.86H4.56Z"/>
        <polygon class="cls-2" points="12.2 57.57 113.35 57.57 124.47 23.01 1.08 23.01 12.2 57.57"/>
        <polygon class="cls-12" points="17.1 54.59 108.45 54.59 117.66 25.99 7.89 25.99 17.1 54.59"/>
        <path class="cls-5" d="M105.81,4.35H19.74c-6.26,0-11.79,3.08-15.18,7.8h116.42c-3.39-4.72-8.92-7.8-15.18-7.8Z"/>
        <path class="cls-5" d="M4.56,12.15c-2.19,3.06-3.48,6.81-3.48,10.86h123.39c0-4.05-1.29-7.8-3.48-10.86H4.56Z"/>
        <polygon class="cls-5" points="12.2 57.57 113.35 57.57 124.47 23.01 1.08 23.01 12.2 57.57"/>
        <polygon class="cls-5" points="17.1 54.59 108.45 54.59 117.66 25.99 7.89 25.99 17.1 54.59"/>
        <rect class="cls-15" x="56.1" y="1.08" width="13.35" height="21.93"/>
        <rect class="cls-5" x="56.1" y="1.08" width="13.35" height="21.93"/>
        <g>
          <circle class="cls-10" cx="62.78" cy="9" r="2.77" transform="translate(12.02 47.03) rotate(-45)"/>
          <rect class="cls-10" x="61.51" y="9.81" width="2.53" height="8.54"/>
        </g>
      </g>
      <polygon class="cls-8" points="14.72 61.79 12.2 61.34 10.33 63.73 1.08 67.81 76.36 67.81 62.61 40.63 14.72 61.79"/>
      <polygon class="cls-1" points="108.72 60.85 107.62 58.75 104.58 59.03 83.94 49.91 82.55 49.29 81.27 46.92 75.21 46.05 74.48 43.87 71.02 44.2 62.78 40.56 62.61 40.63 76.36 67.81 124.47 67.81 108.72 60.85"/>
      <polyline class="cls-5" points="1.08 67.81 10.33 63.73 12.2 61.34 14.72 61.79 62.78 40.56 71.02 44.2 74.48 43.87 75.21 46.05 81.27 46.92 82.55 49.29 83.94 49.91 104.58 59.03 107.62 58.75 108.72 60.85 124.47 67.81"/>
      <polygon class="cls-14" points="12.2 113.91 12.2 129.28 29.72 129.28 45.09 113.91 12.2 113.91"/>
      <polygon class="cls-12" points="113.35 113.91 45.09 113.91 29.72 129.28 113.35 129.28 113.35 113.91"/>
      <polygon class="cls-11" points="12.2 98.55 12.2 113.91 45.09 113.91 60.45 98.55 12.2 98.55"/>
      <polygon class="cls-14" points="113.35 98.55 60.45 98.55 45.09 113.91 113.35 113.91 113.35 98.55"/>
      <polygon class="cls-14" points="12.2 83.18 12.2 98.55 60.45 98.55 75.82 83.18 12.2 83.18"/>
      <polygon class="cls-12" points="113.35 83.18 75.82 83.18 60.45 98.55 113.35 98.55 113.35 83.18"/>
      <polygon class="cls-11" points="12.2 67.81 12.2 83.18 75.82 83.18 91.19 67.81 12.2 67.81"/>
      <polygon class="cls-14" points="113.35 67.81 91.19 67.81 75.82 83.18 113.35 83.18 113.35 67.81"/>
      <path class="cls-15" d="M1.08,67.81h.33c5.96,0,10.8,4.84,10.8,10.8v50.67H1.08v-61.47h0Z" transform="translate(13.28 197.09) rotate(180)"/>
      <path class="cls-13" d="M113.35,67.81h11.12v50.67c0,5.96-4.84,10.8-10.8,10.8h-.33v-61.47h0Z"/>
      <rect class="cls-5" x="12.2" y="113.91" width="101.15" height="15.37"/>
      <rect class="cls-5" x="12.2" y="98.55" width="101.15" height="15.37"/>
      <rect class="cls-5" x="12.2" y="83.18" width="101.15" height="15.37"/>
      <rect class="cls-5" x="12.2" y="67.81" width="101.15" height="15.37"/>
      <path class="cls-5" d="M1.08,67.81h.33c5.96,0,10.8,4.84,10.8,10.8v50.67H1.08v-61.47h0Z" transform="translate(13.28 197.09) rotate(180)"/>
      <path class="cls-10" d="M8.61,90.86c0,1.09-.88,1.97-1.97,1.97s-1.97-.88-1.97-1.97.88-1.97,1.97-1.97,1.97.88,1.97,1.97Z"/>
      <path class="cls-10" d="M8.61,121.6c0,1.09-.88,1.97-1.97,1.97s-1.97-.88-1.97-1.97.88-1.97,1.97-1.97,1.97.88,1.97,1.97Z"/>
      <path class="cls-13" d="M8.61,106.23c0,1.09-.88,1.97-1.97,1.97s-1.97-.88-1.97-1.97.88-1.97,1.97-1.97,1.97.88,1.97,1.97Z"/>
      <path class="cls-13" d="M8.61,75.5c0,1.09-.88,1.97-1.97,1.97s-1.97-.88-1.97-1.97.88-1.97,1.97-1.97,1.97.88,1.97,1.97Z"/>
      <path class="cls-5" d="M113.35,67.81h11.12v50.67c0,5.96-4.84,10.8-10.8,10.8h-.33v-61.47h0Z"/>
      <path class="cls-15" d="M116.94,90.86c0,1.09.88,1.97,1.97,1.97s1.97-.88,1.97-1.97-.88-1.97-1.97-1.97-1.97.88-1.97,1.97Z"/>
      <path class="cls-15" d="M116.94,121.6c0,1.09.88,1.97,1.97,1.97s1.97-.88,1.97-1.97-.88-1.97-1.97-1.97-1.97.88-1.97,1.97Z"/>
      <path class="cls-10" d="M116.94,106.23c0,1.09.88,1.97,1.97,1.97s1.97-.88,1.97-1.97-.88-1.97-1.97-1.97-1.97.88-1.97,1.97Z"/>
      <path class="cls-10" d="M116.94,75.5c0,1.09.88,1.97,1.97,1.97s1.97-.88,1.97-1.97-.88-1.97-1.97-1.97-1.97.88-1.97,1.97Z"/>
      <g>
        <path class="cls-3" d="M78.86,52.53c.33.89-1.36,2.34-3.78,3.25-2.42.91-4.65.92-4.98.04s1.36-2.34,3.78-3.25,4.65-.92,4.98-.04Z"/>
        <path class="cls-3" d="M78.12,50.56c.33.89-1.36,2.34-3.78,3.25-2.42.91-4.65.92-4.98.04s1.36-2.34,3.78-3.25c2.42-.91,4.65-.92,4.98-.04Z"/>
      </g>
      <g>
        <path class="cls-3" d="M94.1,57.89c-.73.6-2.66-.53-4.29-2.53-1.64-2-2.37-4.11-1.64-4.71.73-.6,2.66.53,4.29,2.53,1.64,2,2.37,4.11,1.64,4.71Z"/>
        <path class="cls-3" d="M95.73,56.56c-.73.6-2.66-.53-4.29-2.53s-2.37-4.11-1.64-4.71c.73-.6,2.66.53,4.29,2.53,1.64,2,2.37,4.11,1.64,4.71Z"/>
      </g>
      <g>
        <path class="cls-3" d="M86.93,70.6c-.73.6-2.66-.53-4.29-2.53-1.64-2-2.37-4.11-1.64-4.71.73-.6,2.66.53,4.29,2.53,1.64,2,2.37,4.11,1.64,4.71Z"/>
        <path class="cls-3" d="M88.56,69.27c-.73.6-2.66-.53-4.29-2.53-1.64-2-2.37-4.11-1.64-4.71.73-.6,2.66.53,4.29,2.53,1.64,2,2.37,4.11,1.64,4.71Z"/>
      </g>
      <g>
        <path class="cls-3" d="M68.64,50.56c-.29.9-2.52.98-4.98.18-2.46-.8-4.21-2.19-3.91-3.09.29-.9,2.52-.98,4.98-.18,2.46.8,4.21,2.19,3.91,3.09Z"/>
        <path class="cls-3" d="M69.29,48.56c-.29.9-2.52.98-4.98.18-2.46-.8-4.21-2.19-3.91-3.09.29-.9,2.52-.98,4.98-.18,2.46.8,4.21,2.19,3.91,3.09Z"/>
      </g>
      <g>
        <g>
          <path class="cls-3" d="M24.66,60.01l-.53-2.91,6.14-1.12c1.07,2.47,3.73,3.96,6.49,3.46l4-.73-2.13-11.64-4,.73c-2.76.51-4.72,2.85-4.84,5.53l-6.14,1.12-.53-2.91-3.92-3.16v.05c-.94.17-1.06,3.88-.25,8.29.81,4.4,2.23,7.83,3.18,7.65l2.54-4.35Z"/>
          <path class="cls-3" d="M40.77,58.74c.95-.17,1.24-2.93.65-6.16-.59-3.23-1.84-5.7-2.79-5.53-.95.17-1.24,2.93-.65,6.16.59,3.23,1.84,5.7,2.79,5.53Z"/>
        </g>
        <g>
          <path class="cls-9" d="M34.22,53.15c-.65.12-1.27-.31-1.39-.96s.31-1.27.96-1.39c.65-.12,1.27.31,1.39.96s-.31,1.27-.96,1.39Z"/>
          <circle class="cls-9" cx="34.69" cy="55.73" r="1.19"/>
        </g>
      </g>
      <polygon class="cls-8" points="16.61 64.77 29.12 61.34 27.73 64.46 18.12 66.32 16.61 64.77"/>
      <line class="cls-3" x1="16.61" y1="64.77" x2="29.12" y2="61.34"/>
      <path class="cls-6" d="M54.8,57.87c0,1.2-.97,2.16-2.16,2.16s-2.16-.97-2.16-2.16.97-2.16,2.16-2.16,2.16.97,2.16,2.16Z"/>
      <circle class="cls-6" cx="52.64" cy="62.2" r="2.16"/>
      <path class="cls-6" d="M54.8,66.53c0,1.2-.97,2.16-2.16,2.16s-2.16-.97-2.16-2.16.97-2.16,2.16-2.16,2.16.97,2.16,2.16Z"/>
      <path class="cls-6" d="M54.8,70.86c0,1.2-.97,2.16-2.16,2.16s-2.16-.97-2.16-2.16.97-2.16,2.16-2.16,2.16.97,2.16,2.16Z"/>
      <circle class="cls-6" cx="54.55" cy="75.18" r="2.16"/>
      <path class="cls-6" d="M60.34,78.75c0,1.2-.97,2.16-2.16,2.16s-2.16-.97-2.16-2.16.97-2.16,2.16-2.16,2.16.97,2.16,2.16Z"/>
      <circle class="cls-6" cx="68.15" cy="62.2" r="2.16"/>
      <path class="cls-6" d="M65.99,66.53c0,1.2.97,2.16,2.16,2.16s2.16-.97,2.16-2.16-.97-2.16-2.16-2.16-2.16.97-2.16,2.16Z"/>
      <path class="cls-6" d="M65.99,70.86c0,1.2.97,2.16,2.16,2.16s2.16-.97,2.16-2.16-.97-2.16-2.16-2.16-2.16.97-2.16,2.16Z"/>
      <path class="cls-6" d="M64.08,75.18c0,1.2.97,2.16,2.16,2.16s2.16-.97,2.16-2.16-.97-2.16-2.16-2.16-2.16.97-2.16,2.16Z"/>
      <path class="cls-6" d="M60.45,78.75c0,1.2.97,2.16,2.16,2.16s2.16-.97,2.16-2.16-.97-2.16-2.16-2.16-2.16.97-2.16,2.16Z"/>
      <g>
        <polygon class="cls-3" points="60.45 96.19 52.96 90.81 60.45 79.7 67.94 90.81 60.45 96.19"/>
        <polygon class="cls-3" points="60.45 79.7 57.9 90.81 60.45 96.19 63.01 90.81 60.45 79.7"/>
      </g>
      <g>
        <g>
          <polygon class="cls-7" points="111.74 54.54 111.52 63.76 98.13 63.84 103.07 51.39 111.74 54.54"/>
          <polygon class="cls-6" points="98.13 63.84 108.74 59.68 111.74 54.54 105.86 55.46 98.13 63.84"/>
        </g>
        <line class="cls-5" x1="111.52" y1="63.76" x2="103.07" y2="51.39"/>
      </g>
      <g>
        <g>
          <polygon class="cls-4" points="43.46 39.91 52.24 37.09 56.71 49.72 43.32 49.13 43.46 39.91"/>
          <polygon class="cls-6" points="56.71 49.72 49.3 41.06 43.46 39.91 46.26 45.16 56.71 49.72"/>
        </g>
        <line class="cls-5" x1="52.24" y1="37.09" x2="43.32" y2="49.13"/>
      </g>
    </g>
  </g>
</svg>