<?xml version="1.0" encoding="UTF-8"?>
<svg id="Calque_2" data-name="Calque 2" xmlns="http://www.w3.org/2000/svg" viewBox="0 0 151.57 50.27">
  <defs>
    <style>
      .cls-1 {
        fill: #fff;
      }

      .cls-2 {
        fill: #1b1464;
      }
    </style>
  </defs>
  <g id="Calque_1-2" data-name="Calque 1">
    <g>
      <path class="cls-2" d="M150.82,18.69c-4.59,4.93-10.46,8.19-17.04,9.59-6.91,1.47-11.65.99-18.47,4.18s-13.28,7.23-18.81,12.49c-1.1,1.05-3.58,5.07-5.33,4.64l-8.7-2.14c-7.68-1.89-6.41-1.35-13.32-4.96-1.63-.85-3.13-1.62-5.11-1.85,1.09,1.11,1.27,1.52.97,2.8-.24,1.03,1.57,2.19,2.5,1.68s1.99-.9,2.88-.22l2.74,2.08-2.74,3.29-3.39-2.48-.31-1.65c-.97-.53-1.8-1.21-2.57-1.89-.93.27-1.89.33-2.72-.34-.66-.54-.95-1.05-.87-1.98l-1.3-.2-.08,1.82c-.89.62-2.3,1.48-3.35,1.22-1.71-.43-1.66-2.9-2.56-2.94-.6-.03-.77,1.84-1.84,2.76l-4.9-1.62-.03-2.15c-2.01-.61-3.76-1.36-5.13-2.88l1.97-1.9c-5.09,2.99-8.3,7.3-14.14,9-1.79.52-3.68,1.68-5.46,1.87-2.98.28-5.79-1.46-8.2-2.83l-5.46-3.09c.09-.42.56-1.5.99-1.65l2.04-.7c3.72,1.26,6.59,1.15,10.63,2.32,1.7-2.68,5.32-3.25,7.32-5.32s3.57-4.71,7.37-4.29c-2.03-.81-3.53.45-5.37.99l-1.67-1c-.32-.19.18-1.12.33-1.7-1.31,1.18-2.95,2.26-4.87,1.5-.49-.2-1.24-.99-1.59-1.33l-1.53.64c-1.84-.98-2.99-2.88-2.61-4.96l3.09-1.55c.25-.12.2-.8.04-1.06-.14-.24-.93-.21-1.19-.37-1.78-1.06-2.26-3.65-1.36-5.34l3.13-1.31c.98-3.86,5.2-6.15,8.94-4.58,2.54,1.07,4.07,3.82,3.77,6.49-.09.87-1.15,1.63-1.36,2.37l-1.29,4.57c-.08.27-.33.93-.6.98s-.82.02-1.2.01l-1.79,1.17c-2.38-.92-2.12,1.78-4.26.61-.03.94-.15,1.59-.94,2.01.13.57.87,1.1,1.64,1.14,1.33.07,2.96-.63,3.53-1.76-.17-.67-.17-1.25.46-1.79.86-.74,1.86-1.04,2.92-1.08,1.83-2.44.94-6.27,3.2-7.36,1.17-.56,2.09-1.91,1.21-3.11l1.18-2.12c.66,1.15,1.29,1.32,2.36.92-.3,3.09-.26,1.75-1.56,3.05.16.16.88.32,1.06.16.78-.74.37-1.11,1.54-2.12.15-.13.78-.1.85.08.33.81-2.57,3.46-.51,7.89.94,2.02,2.85,2.96,5.02,4.11,3.32,1.76,5.14,5.39,7.14,8.25-1.02-3.21-2.98-5.63-5.17-8.18l24.7,3.31c.88.67,1.67,1.72,2.25,2.56,3.25,1.1,6.14,2.56,8.81,4.72,1.44,1.16,3.06,2.04,4.82,2.71,1.56-3.15,3.86-5.45,7.19-6.45l5.79-1.74c1.66-.5,3.39-1.28,4.83-2.11-.03-.41-.23-1.11.01-1.22.21-.1.63-.27.98-.41l.18-1.56c.04-.33.27-.94.53-1.11,1.1-.74,3.3.79,4.31.87,4.42.33,8.71-.15,12.97-1.29,6.04-1.61,11.05-5.19,14.52-10.33,2.33-1.18,4.56-1.23,7.11-.15,1.03,1.32,2.5,2.44.84,3.33ZM29.11,19.37c.33-.58.73-.8,1.09-.85l4.59-.62c-1.78-.1-3.39-.03-5.11.04-.71-.71-1.38-1.42-2.1-1.98,1.89,2.4,1.5,3.54.55,6.27l1.49-1.88c.49-.62,1.99-.56,2.85-.92-1.11.04-2.12.09-3.37-.06ZM25.8,21.97c1.28-1.27,1.58-3.07.82-4.37-1.08-.51-3.19-.4-4.32.05-.67,1.46-.27,3.59,1.2,4.25l.95-2.42,1.34,2.49ZM35.84,26.85c2.46-4.38.61-6.73,3.94-7.68-1.99-.62-2.72,2.28-3.03,3.89-.27,1.38-.78,2.62-1.34,3.89l-.69,1.57c.28-.14.67-.3.85-.51.15-.17.13-.93.26-1.16ZM24.14,29.58c-.12-1.21-.38-2.69-1.69-3.34l1.69,3.34ZM45.34,28.76c-1.14-.71-2.38-1.04-3.77-1.37l1.27-.51c-2.15-.43-6.22,1.62-7.59,2.97,5.54-2.42,3.98-2.51,10.09-1.09ZM56.43,31.4l.23-1.96-1.93-.54-.32,1.83,2.01.67ZM47.07,32.32c-.03-.22-.37-.69-.54-.82s-.68-.02-.81.16c.26,2.12,1.57,4.19,3.31,5.49,1.97,1.36,4,2.47,6.38,2.92-3.46-1.69-7.72-3.19-8.34-7.75ZM65.47,35.57l.14-1.03c-1.5,1.91-2.46,3.83-3.33,6.22-.74.2-1.73.07-2.3-.33.06-3.44,1.51-6.05,3.22-8.89-2.6,2.47-3.7,5.88-4,9.36,1.2.29,2.25.47,3.29.57l2.07-4.88c3.36-.74,6.66-1.5,9.47-3.52-2.9,1.11-5.55,2.13-8.57,2.5ZM63.14,43.63l1.12-1.02c.21-.19-.15-.91-.42-1.01-.23-.08-.64.07-.98.19l-1.6.56c.07.77,1.19,1.9,1.87,1.28ZM69.59,47.29c.46-.38.52-1.48.1-1.78-.37-.26-1.3-.17-1.65.16-.47.43-.58,1.28-.22,1.69.39.45,1.13.45,1.76-.06Z"/>
      <path class="cls-2" d="M79.45,33.11c4.81-.64,8.55,1.16,13.1,1.89,0-1.59.1-2.94.85-4.34,1.61-3.05,1.88-2.95,4.91-5.22,2.2-1.65,3.99-3.86,4.77-6.46-.43-.16-.98-.43-1.23-.69-.21-.21.27-.78.33-1.07-.07-.36-.38-1.15-.33-1.54,1.71-1.74,4.07-.56,6.47-2.32,4.82-3.52,4.93-5.56,11.48-8.14,5.72-2.25,13.18-4.39,19.07-1.94,1.22,2.4.49,5.32-1.16,7.31-7.09.12-9.54-2.12-16.86-.24-2.59.66-5.02,1.56-7.18,3.11-1.85,1.33-2.95,3.04-4.06,4.98-.84,1.45-1.99,2.81-3.13,4.1-2.77,3.12-4.95,6.44-6.39,10.52-3.91.81-6.88,3.05-8.64,6.84-2.04-.64-3.8-1.83-5.49-3.15-2.01-1.56-4.1-2.68-6.49-3.65Z"/>
      <path class="cls-2" d="M74.75,16.41l-23.4-3.08c-3.93-.36-7.24,2.6-7.5,6.35-.25,3.76,2.55,6.81,6.35,7.3l22.83,2.98c1.58-4.42,2.4-8.97,1.72-13.55ZM55.87,25.09l-5.56-.73c-1.72-.23-3.13-1.06-4.4-2.13,1.03,1.86,2.92,2.64,4.96,2.91l4.39.57c.21.03.34.54.25.69-.1.19-.62.46-.84.43l-5.32-.81c-3.2-.49-5.12-3.77-4.67-6.75.45-3.01,3.16-5.56,6.43-5.16l5.79.72c.35,3.55-.06,6.81-1.03,10.26ZM72.62,28.67c-.11.19-.61.43-.84.4l-12.11-1.63c-.3-.04-.08-1.12.3-1.07l12.43,1.6c.17.02.31.54.22.7ZM73.07,27.35l-13.09-1.7c.93-3.39,1.3-6.7,1.05-10.29l12.93,1.72c.47,3.46.09,6.56-.89,10.27Z"/>
      <path class="cls-1" d="M72.62,28.67c-.11.19-.61.43-.84.4l-12.11-1.63c-.3-.04-.08-1.12.3-1.07l12.43,1.6c.17.02.31.54.22.7Z"/>
      <path class="cls-1" d="M50.31,24.36c-1.72-.23-3.13-1.06-4.4-2.13,1.03,1.86,2.92,2.64,4.96,2.91l4.39.57c.21.03.34.54.25.69-.1.19-.62.46-.84.43l-5.32-.81c-3.2-.49-5.12-3.77-4.67-6.75.45-3.01,3.16-5.56,6.43-5.16l5.79.72c.35,3.55-.06,6.81-1.03,10.26l-5.56-.73Z"/>
      <path class="cls-1" d="M73.07,27.35l-13.09-1.7c.93-3.39,1.3-6.7,1.05-10.29l12.93,1.72c.47,3.46.09,6.56-.89,10.27Z"/>
      <path class="cls-2" d="M78.2,30.61l-4.49-.56c1.59-4.37,2.31-8.55,1.8-13.44l4.45.53c.73,4.66.11,8.87-1.76,13.47Z"/>
      <path class="cls-2" d="M3.67,33.9l-.67.87c-.17.22-.89.16-1.18.08l.84-2.23c.6-.26.35-.22-.12-.1-.84.47-1.79.81-2.52,0l1.28-.78c-.5-.12-1.03-.3-1.29-.5l1.71-1.09c.55-.35,1.22-.57,1.86-.72-.64-.29-1.37-.9-.86-1.42,5.07,2.29,2.31-.14,6.06,3.94l.22,3.98c.04.8-.66,1.79-1.01,2.48l-.72,1.46c-4.37-.85-1.41-6.02-3.59-5.96Z"/>
      <path class="cls-2" d="M12.52,38.36c-3.23.28-1.99,3.99-4.19,2.39-.53-.38-.5-1.11-.15-1.76l1.31-2.44c1.43.06,2.68.43,3.04,1.81ZM11.67,37.86c0-.7-1.51-1.16-1.73-.69-.37.81,1.63,1.54,1.73.69Z"/>
      <path class="cls-2" d="M55.7,4.72c.18.93-.84,1.5-1.46,1.59-.71.11-1.75,0-2-.86-.23-.78.64-1.44,1.17-1.6.8-.24,2.06-.29,2.29.86Z"/>
      <path class="cls-2" d="M50.11,1.55c-.1.32-.65.88-.96,1.01s-1.21-.15-1.25-.49c.08-.88,1.43-1.26,2.21-.52Z"/>
      <path class="cls-2" d="M53.86.09c.16-.14.92-.12.98.08s.03.6-.1.77-.56.11-.87.05c-.26-.05-.25-.71-.02-.9Z"/>
      <path class="cls-2" d="M49.8,7.92c-.21.21-.11.29-.85.55-.13.04-.52-.21-.42-.3l.47-.45c.06-.06.36-.1.44-.09.13.02.45.2.36.29Z"/>
      <path class="cls-2" d="M45.34,10.69l.74-.08c.16-.02.27.43.12.49l-.56.26c-.19.09-.52-.64-.31-.67Z"/>
      <path class="cls-2" d="M55.14,29.76c.1-.1.56-.11.66-.01.13.13.38.46.2.56l-.55.31c-.16.09-.45-.73-.31-.86Z"/>
    </g>
  </g>
</svg>