<svg xmlns="http://www.w3.org/2000/svg" viewBox="0 0 602.83 188.96"><defs><style>.cls-1{fill:#ffe245;}.cls-2{fill:#1e2d5c;}.cls-3{fill:#202d5d;}.cls-4{fill:#212f5d;}.cls-5{fill:#202e5d;}.cls-6{fill:#22305e;}.cls-7{fill:#d9dce7;}.cls-8{fill:#2f3962;}.cls-9{fill:#1d1d1b;}.cls-10{fill:#d4d8e4;}.cls-11{fill:#131d3a;}.cls-12{fill:#384169;}.cls-13{fill:#d7dbe7;}.cls-14{fill:#51597b;}.cls-15{fill:#3c466d;}.cls-16{fill:#171b2d;}.cls-17{fill:#dee2eb;}.cls-18{fill:#e7e9f0;}.cls-19{fill:#cbcedf;}.cls-20{fill:#daddea;}.cls-21{fill:#ced2e1;}.cls-22{fill:#eaecf1;}.cls-23{fill:#e4e6ee;}</style></defs><title>plongeur</title><g id="Calque_2" data-name="Calque 2"><g id="svg8"><path class="cls-1" d="M165.55,49.19c0,.25-.07.5-.11.76v-.8Z"/><path class="cls-1" d="M285.6,106.71c-.77,1.9-109.16-24-109.16-24L173.5,58.5c4.23-4.13,4.09-6.06,6.45-6.72,0,1.21-4.08-4.37-4.11-3.17l2.09.34,3.94-3.46,9.93-5,2.8-.71h.05l5-.31,4,.42,13.86,3.35q14.78,4.16,29.56,8.29c1.11.3,2.29.39,3.43.59l25.68,5.92,3.86.84,3.85,1.1,1,.2q2.56.69,5.11,1.41c1.23.25,1.37,2.11,3.9,2.9C293.93,66.09,291.35,92.62,285.6,106.71Z"/><path class="cls-2" d="M597.41,63.34l-1-15c0-.39,0-.77,0-1.15-12.64-3.86-28.28,1.16-36.39,11.65a97.09,97.09,0,0,1-34.85,28.47c-20.72,10-42.83,12.87-65.5,12.49a30.51,30.51,0,0,1-10.12-2.12c-11.7-4.48-13.08-3.78-14.41,8.38a7.28,7.28,0,0,1-.42,1c-5-.61-4.6,2.77-3.44,7.44-10.82,3.67-21.35,7.73-32.16,10.79-12,3.38-23.79,6.56-31.61,17.31l-8.13,12.74-36.9-24c-9-3.26-15.25-9.56-23.22-15.33-3.09-2.23-12.47-3.06-17.79-3.78-6.67-1.18-13.83-2.06-20.5-3.25,0-1-5.67-.54-5.8,0-13.91-1.93-69-13.52-73.3-19.13-9.48-10.06-16.44-22-9.06-33.58l-.3-3.59-7.07,2.87-.83.34c.27-1.93.58-4.11.83-5.94,0-.26.08-.51.11-.76l-.11,0-10-3.66c-1.13,2.6-4.15,6.21-3.32,8.31,1.85,4.75-.84,7.27-2.71,10.47l-1.25.8.27,1.27,0,0H158l-.15.81c-2.34,1.17-4.69,2.32-7,3.5-.59.3-1.45.6-1.63,1.09-1.66,4.64-4.56,9.34-4.47,14,.15,6.91-2.74,10.92-8.33,14.25-2.93-2.38-6.06-4.85-10-1.7l-4.82,2.11,0,.06-.75,1-.18.16c0,1.17,0,2.35,0,3.52l.34,1.21c4.14,3.34-.08,6.9.27,10.34h0l1.32.54.18.06a.47.47,0,0,1,.58.19l2,1,1.23.93,2.42,2.58c-2.38,3.43-4.74,7-7.3,10.46a14.5,14.5,0,0,1-3.6,3.19q-13.2,8.87-26.51,17.57a5.34,5.34,0,0,1-3.5.94c-12.7-2.56-25.37-5.28-38.05-7.95l-2.41-.53-3-.4c-.57,1-1.07,2.1-1.72,3.06-1.72,2.51-3.51,5-5.27,7.45l1.66.71,3.3,1.69a.5.5,0,0,0,.68.31l1.35.77.12,0a.93.93,0,0,1,.72.38c10.86,5.71,21.52,11.83,32.65,17,6.51,3,13.68,4,20.48-.43a22.63,22.63,0,0,1,6.07-2.24,110,110,0,0,0,41.42-22.37c4.37-3.76,9.1-7.11,13.37-10.41,5.88,7.66,13.9,10.56,21.86,13.24-.06,10.14-1.47,7.79,7.73,11,1.88.66,3.78,1.27,5.69,1.88,7.15,2.27,7.18,2.21,10.35-4.51a34,34,0,0,1,2.89-4.26,38.4,38.4,0,0,1,3.43,4.27c2,3.43,3.67,7.49,8.43,7.54,7.11.07,12.1-5.06,12.22-12.36l4.77.63c.19,5.11,4.68,11.11,8.84,10.14,5.38-1.24,9.63-11.65,5.94-14.7a9,9,0,0,1,4.72.4c5.95,2.57,12.05,4.9,17.68,8.06,12.58,7,25.64,12.63,39.73,15.83,12.81,2.91,25.81,5.35,38.24,9.47,8.45,2.8,13.73.13,18.73-5.75,3.45-4.06,6.39-8.65,10.27-12.22,25.26-23.24,53.46-42.27,85.94-53.44,15.86-5.46,33.06-7.26,49.77-10,30.69-5,57.6-17,78.88-40.32l1-1.81,1-1Zm-455.28,43.2c9.48-7.2,17.2-8.84,20.4-5.14Zm35.72,9.19c2.34,1.52,5,2.37,5.19,3.54,1.14,9,6,15.6,12.53,21.48C187.48,139.53,179.14,128,177.85,115.73Zm42.08.91L212.35,114c.11-.6.22-1.19.32-1.77.35-1.88.67-3.66,1-5.44,6.65,1.09,8.49,1.75,7.7,5.44A34.61,34.61,0,0,1,219.93,116.64Zm12.52,37.88c-.37-.08-.8-1.1-.74-1.64.81-8.22,2.7-16.13,7.59-23.16q-2.56,11.39-5.11,22.73c4.91,2.4,8.82,3.3,12.45-1-1,1.74-2.11,4.95-3.16,4.95C239.8,156.41,236.11,155.33,232.45,154.52Zm18.8-16.15c1.53-4.06,3.1-5.2,6.66-5.6,6.66-.76,13.16-3,19.72-4.69,1.06-.26,2.1-.6,3.15-.9l.67,2.11ZM148.1,65.1l.05,0a0,0,0,0,1,0,0Z"/><path class="cls-2" d="M324.53,130.19,312.11,124c3.67-2,13.48-1.65,25.65,1,8.59,1.85,17.12,4,25.32,5.91,1.35-5.71,2.17-10.89,3.82-15.8C370,106,376.79,100,384.44,94.66c9.77-6.8,17.45-15.34,21.3-26.93-2.71-1.91-7.31-2.91-3.31-7.55.19-.23-.1-.91-.21-1.37-1.45-5.69-.81-8,4.92-8.32,15.94-.9,26.25-10.77,36.84-20.85,16.83-16,38.29-22.35,60.15-27.35a85.34,85.34,0,0,1,40.13.21c3.6.89,5.56,2.66,5.71,6.32.14,3.48.64,7,.18,10.43-1.63,11.88-5.41,15.07-17.19,14.07-9.28-.79-18.47-2.92-27.75-3.3-23.14-.94-44.73,3.82-62.51,19.89-2.68,2.43-4.75,5.56-6.91,8.5-6.49,8.84-12.49,18.06-19.43,26.52-7.89,9.63-15,19.74-19.26,31.35-2.12,5.73-5.84,8.46-10.93,10a37.38,37.38,0,0,0-20.52,14.88l-7.2,10.15c-6.82-4.4-13.56-8.86-20.4-13.14C333.62,135.35,329,132.83,324.53,130.19Z"/><path class="cls-2" d="M94.56,71.2s0,0,0,0h0Zm0,0s0,0,0,0h0Z"/><path class="cls-3" d="M144.23,52.35l-1.74-4-1.13-2.16c-.27-.42-.54-.84-.8-1.26-8.82-10.64-23.79-13.62-36.16-4.64l-2.16,1.94-1.93,2.06c-.55.7-1.11,1.38-1.67,2.08-.41.67-.81,1.34-1.21,2Q96.22,51.3,95,54.24a.44.44,0,0,0-.47.16l-2.2,1.82-.87.17L90.09,57l.11-.09-.76.48-.76.48-.87-.35c-6.9,2.2-8.7,5.27-6.7,12.47,1,3.42.28,8,5.2,9.25l-.4-.21.62-.12a1.06,1.06,0,0,1-.06.37l-.16,0c1.27.64,2.93,1.45,4.12,2.06v0c1,1.2,2.07,2.39,3.11,3.57l-.15,1.67-1,.75-3.1.94-1.21.86.13-.12-2,1.26-1.82,1C85.7,92.67,87,94,88.21,95.5a14.06,14.06,0,0,1,1.4,2.6c1.27,2.49,2.51,5,3.77,7.51l-1.47,1-9.3-11.09c-.75,1-1.68,1.43-2.42,2.39a43,43,0,0,0,1.18,4.65c.29.64.58,1.27.86,1.9,1.37,1.72,4.78,5.69,5.12,5.95a5.47,5.47,0,0,0,8.05,0h0l2.77,1.16c.36-1,.71-2.09,1.07-3.14l2.89-1.07.18-.12c0-2.07.06-4.14.21-6.19a14.92,14.92,0,0,1,1.93,0l6.08-.22c1-.76,2-1.52,3-2.27l1.26-.75-.16.12,7.78-1.45,4-2.92c7.93-1.19,9.19-7,10.29-13.65.73-4.42,3.28-8.52,4.63-12.88,1.27-4.08,2.09-8.3,3.08-12.46ZM94.57,71.23s0,0,0,0l0,0ZM97,103.89l-.06-1,2.88-.26c0,.41,0,.82,0,1.24Zm25.87-33.68-.27-2.3,5.23-.34c.08.63.16,1.25.23,1.88Z"/><path class="cls-4" d="M295.45,70.46c0-1.71-.07-3.41-.1-5.12a2.27,2.27,0,0,0,0-1c0-.45-.09-.9-.13-1.36,0,0-1.13-.5-1.55-.62l-3.7-.75q-2.55-.72-5.11-1.41l-1-.2L280,58.93l-3.86-.84-25.68-5.92c-1.14-.2-2.32-.29-3.43-.59q-14.79-4.11-29.56-8.29l-13.86-3.35-4-.42-5,.31h-.05l-2.8.71-9.93,5c.26,1,.53,2,.8,3,6.24-5.85,13.77-7.11,21.77-5.47,7,1.43,13.79,3.5,21.19,5.42,0,13.92-3,27.11-8.94,40.78l-27.83-8.08c.1.83,0,2.26.32,2.38,4.43,1.6,8.89,3.12,13.41,4.45,4.24,1.25,8.53,2.26,12.8,3.37.15.48.29,1,.44,1.46-1.24.75-2.64,2.32-3.72,2.12-7.31-1.36-14.6-2.94-21.8-4.82-2-.53-3.76-2.29-5.63-3.49l-2.63,1,6.58,4.74,2.92.65,2,.9,3.78.62,13.93,3.37,38.06,9.26,4.46-1.42-23.07-6.23c-.08-5.75,3.54-3.49,6.14-3.35,1.17.36,2.35.71,3.53,1l3.38.75,1.48.55,5.4,1.15,7.29,1.84,0-.05,5,1.31,1.79.42,7,1.75,1.57.33,3.29,1c1.72.51,3.45,1,5.64,1.65-.46,1.38-.89,2.67-1.31,3.95l-.95.31-2-.34-1-.2-1.69-.36c-.72-.26-1.44-.5-2.17-.74-4.93-1-19-5.24-19.6-4.81s-2.66.84-4.2,1.49c3.19.31,25.08,6.8,25.42,6.78,1,.09,6.21,1,7.87,1.44a6.13,6.13,0,0,0,.25-.72l1.59-3.12c.37-.86.73-1.74,1.09-2.6s.67-1.56,1-2.33l1.73-4.55c.49-1.37,1-2.74,1.45-4.11.14-.31.3-.63.44-.94.49-1.77,1-3.55,1.45-5.32.34-1.17.68-2.34,1-3.51s.47-2.37.71-3.55S295.45,70.46,295.45,70.46ZM290.1,86.88c-.15.69-.31,1.38-.46,2.06l-1.85,6.71c-.45,1.31-1.46,4.31-1.6,4.7l-1.26,3.09-5.73,1.19-5.3-1.41-.44-.22-.49,0L269,101.9l-5.3-1.17-3.54-1-1.84-.37-3-1-3.85-.8-11.81-3-3.61-.85-1.22-.35c-.38-.93-.75-1.86-1.12-2.78a4.08,4.08,0,0,1-.07-.77c0-.08.25-.13.38-.19q2.67-9.18,5.33-18.36c.07-.31.12-.62.19-.93.17-.76.35-1.52.52-2.28.45-3.9.9-7.81,1.36-11.7.36-1.28.73-2.55,1.1-3.83l1.22.12,1,.19,5.47,1.44h0l5.89,1.57,1.8.37L263,57.54l1.91.37,2.93,1,3.89.83,6.93,1.75h0l4.84,1.33,2.13.43,2.65.71,2.13.55,1.73.72h0l0-.06.06.08,0,0,.28.85-.06,2.08C291.38,74.65,291.92,79.94,290.1,86.88Z"/><path class="cls-5" d="M314.08,91.62c-.5,2.18-1,4.35-1.53,6.54l-2.31,6.8c-1.58,3.42-3.26,6.8-4.58,10.32a8.86,8.86,0,0,1-2.78,4.18c-1.56,1.14-3.57,1.25-6.23.17l-2-.6-1.31-.39-1.35-.43-5.59-1.83c2.67-8,5.28-15.78,7.88-23.58L296,85.56c.63-4.25,1.27-8.51,1.91-12.75,0-.67.05-1.35.09-2,.07-1.7.14-3.4.22-5.09l.39-1.81c1.36.19,10.45,2.4,15.08,3.63a3,3,0,0,1,2.19,3C315.55,75.54,314.64,86.6,314.08,91.62Z"/><path class="cls-6" d="M.75,120.17c-.39-.31-1-.21-.66-.56,2.15-2.34,11,8,11,8-2.45-1.92-7.31-12.26-9.22-15.8-.22-.4-.76-.52-.29-.72,3.54-1.48,9.69,12.26,10.57,11.73-1.07-.67-2.43-11.68-2.52-14.31,0-.5-.49-1.09.09-1.24,4.09-1.07,4.4,11.32,6.65,15.55,3.2-5.86,7.1-9.7,10.48-9.36.56,0,.37.14.33.18-8.73,9.18-6,18.13-3.08,15.78,9.5-7.74,2.59-19.15,3.62-19,5.8.74,6.47,23.58,3.78,29-1.59,5.1-4.41,11-8.7,9.92C22.29,149.2,3.11,122.06.75,120.17Z"/><path class="cls-3" d="M148.44,66.36c-.05.66.16,1.63-.2,1.93-5.06,4.32-5.63,10.53-7.18,16.36-.17.66-1.48,1-2.94,1.95,1.56-4.95,3.18-8.81,3.92-12.84s3.21-5.85,6.38-7.42l-.27-1.27a0,0,0,0,1,0,0h-2.66c-.33-4-.63-7.62-.93-11.19-1.06,4.35-1.9,8.78-3.23,13.05s-3.9,8.46-4.63,12.88c-1.1,6.62-2.36,12.46-10.29,13.65,0,1.62-.05,3.24-.08,4.85,4-3.15,7.11-.68,10,1.7,5.59-3.33,8.48-7.34,8.33-14.25-.09-4.63,2.81-9.33,4.47-14,.18-.49,1-.79,1.63-1.09,2.33-1.18,4.68-2.33,7-3.5l.15-.81ZM138,92.44l-1.06-.82,1.65-1.77c.21.2.64.52.6.6C138.83,91.14,138.4,91.78,138,92.44Z"/><path class="cls-7" d="M324.53,130.19c4.51,2.64,9.09,5.16,13.52,7.93,6.84,4.28,13.58,8.74,20.4,13.14l7.2-10.15,1.86,1.45-8.13,12.74-36.9-24Z"/><path class="cls-8" d="M22.37,149.38c.63-.18,1.57-.16,1.84-.57,2.48-3.81,4.85-7.68,7.25-11.54,1.76.92,2.08,1.28,2.52,1.32,6.61.62,6,1.74,8.22,4.9.55.76,1.71,1.15,2.38,1.63-.56,1-1.18,2.23-1.84,3.19-1.71,2.51-3.5,5-5.26,7.45C35.37,155.33,24.35,150.41,22.37,149.38Z"/><path class="cls-9" d="M99.26,108.35l2.89-1.07c-2.25,2.74-1.09,5.28,3.12,5.92,6.54,1,11.61-1.82,15.6-6.87,4.14,3.34-.08,6.9.27,10.34l-1.24-4.19c-7.2,3.57-14.84,8.1-21.7-1C98.55,110.45,98.91,109.4,99.26,108.35Z"/><path class="cls-10" d="M176.68,82.79c-.49.39-1,.78-1.45,1.17-8.28-11.07-8-24.68.61-35.35l2.09.34a2.36,2.36,0,0,0,.65,0c-1.36,2.11-2.71,4.22-4.07,6.32l-1.26,3.17c-.15.44-.3.89-.46,1.34s-.33,1-.5,1.56l-.48,4c.07,1.09.16,2.17.24,3.25.43,2.1.86,4.21,1.28,6.31Z"/><path class="cls-2" d="M29.33,151.47c1.44-3.91,3.24-9,4.65-12.88,7.57.68,7,2.85,8.28,5.2-2.73,3-4.92,7.62-9.52,10.23A12.48,12.48,0,0,1,29,152.4Z"/><path class="cls-11" d="M84.23,91.3a.37.37,0,0,1,.33.11c1.23,1.35,2.51,2.66,3.64,4.09a13.53,13.53,0,0,1,1.41,2.6l4.16,8.29-1.3.85L84.54,97.8a2.43,2.43,0,0,0-3.78.07h0a.36.36,0,0,1-.63-.09C78.72,94,80.2,91.94,84.23,91.3Z"/><path class="cls-3" d="M86.53,78.94a1.06,1.06,0,0,1-.06.37l-.16,0-.4-.21Z"/><path class="cls-12" d="M276.15,58.09l-25.67-5.92Z"/><path class="cls-13" d="M314.09,91.62q1-9.39,2.08-18.79Q315.14,82.22,314.09,91.62Z"/><path class="cls-14" d="M217.47,43.3l-13.85-3.37Z"/><path class="cls-13" d="M295,90.44c-2.88,8.58-5.74,17.17-8.68,25.94,2,.65-5.49-.59-3.77-1a6.13,6.13,0,0,0,.25-.72l1.59-3.12c.37-.86.73-1.74,1.09-2.6s.67-1.56,1-2.33l1.73-4.55c.49-1.37,1-2.74,1.45-4.11.14-.31.3-.63.44-.94.49-1.77,1-3.55,1.45-5.32.33-1.17.68-2.34,1-3.51s.47-2.37.71-3.55c0-.66.64-3.06.61-3.72.18-.33,1.35-10.1,1.55-10.71v0c.1-1.43-.45-6.27-.27-7.21a9.69,9.69,0,0,0,3.38.88c-.07,1.69-.54,5.2-.61,6.9h0C297.64,75.29,295.89,86,295,90.44Z"/><path class="cls-12" d="M182.67,48.54l-2.13,2.18-2-1.76a2.36,2.36,0,0,1-.65,0l3.94-3.46C182.13,46.51,182.4,47.53,182.67,48.54Z"/><path class="cls-13" d="M316,68.16l-7.57-2.37Z"/><path class="cls-3" d="M86.53,78.94a1.06,1.06,0,0,1-.06.37l-.16,0-.4-.21Z"/><path class="cls-3" d="M82.23,104.44l4.11,5.15Z"/><path class="cls-3" d="M97.43,48.36,95,54.24Z"/><path class="cls-13" d="M303.55,64.58l-5-.69Z"/><path class="cls-13" d="M313.25,95.44l1.11-6.22Z"/><path class="cls-14" d="M199.65,39.52l-5,.31Z"/><path class="cls-3" d="M144.23,52.35l-1.59-3.69Z"/><path class="cls-12" d="M290,61.63l-5.11-1.41Z"/><path class="cls-8" d="M39.14,156.47l3.3,1.69Z"/><path class="cls-3" d="M92.44,87.34l-3.11.94Z"/><path class="cls-3" d="M94.43,54.67l-2.94,1.71Z"/><path class="cls-12" d="M283.85,60,280,58.92Z"/><path class="cls-3" d="M100.34,44.23l-1.71,2.12Z"/><path class="cls-14" d="M194.6,39.84l-2.8.7Z"/><path class="cls-3" d="M104.4,40.27l-2.17,1.94Z"/><path class="cls-3" d="M102.29,42.16c-.67.7-1.33,1.4-2,2.11C101,43.56,101.62,42.86,102.29,42.16Z"/><path class="cls-3" d="M93.13,84.45c.22.61.45,1.21.68,1.81Z"/><path class="cls-3" d="M88.26,89l-2,1.26Z"/><path class="cls-8" d="M49.88,146.18l-2.41-.53Z"/><path class="cls-3" d="M91.44,56.39,90.09,57Z"/><path class="cls-3" d="M90.2,56.94l-1.53,1Z"/><path class="cls-3" d="M141.47,46.34l-.92-1.43C140.86,45.39,141.17,45.86,141.47,46.34Z"/><path class="cls-15" d="M121.15,116.66l1.33.54Z"/><path class="cls-15" d="M122.66,117.26a.47.47,0,0,1,.58.19l-.35.14Z"/><path class="cls-15" d="M125.19,118.47l1.23.92Z"/><path class="cls-3" d="M80.85,101.42l.52,1.11Z"/><path class="cls-3" d="M89.38,88.24l-1.25.91Z"/><path class="cls-8" d="M43.12,158.47l1.35.77Z"/><path class="cls-8" d="M44.58,159.29a1,1,0,0,1,.73.38h-.46Z"/><path class="cls-3" d="M149.4,64.27l-1.3.83Z"/><path class="cls-16" d="M597.41,63.34l-1-15C604.07,52.38,605.43,57.68,597.41,63.34Z"/><path class="cls-16" d="M596.44,64.32c.32-.33.65-.65,1-1C597.09,63.67,596.76,64,596.44,64.32Z"/><path class="cls-17" d="M195.53,99.31l3.83.19c.31,1.3.62,2.6.92,3.9,6.27,6.11,11.42,12.95,14.24,21.37-7.63-9.26-14.39-19.24-25.15-25.3l1.13-1.15,3,.32Z"/><path class="cls-18" d="M271.86,104.72l1.57.34,3.28,1,5.62,1.71L281,111.7l-1,.3-2-.36-1-.21-1.69-.39-2.16-.76c-4.93-1-17.79-4.32-19.3-4.94l-23-6.48c0-5.74,3.57-3.45,6.17-3.27l3.52,1.08,3.37.78,1.47.57,5.39,1.21,7.28,1.92-.06-.06,5,1.37,1.78.43Z"/><path class="cls-17" d="M195.57,140.75c-8.1-1.22-16.43-12.77-17.72-25,2.34,1.52,5,2.37,5.19,3.54C184.18,128.22,189,134.87,195.57,140.75Z"/><path class="cls-19" d="M216.56,103.35,255,110.81l3,1.42c-.17.53-.33,1.07-.5,1.6l-41.27-8.58C216.37,104.62,216.46,104,216.56,103.35Z"/><path class="cls-7" d="M246.64,151.47c-1.06,1.74-2.11,5-3.16,4.95-3.68,0-7.38-1.09-11-1.9-.36-.08-.79-1.1-.74-1.64.82-8.22,2.71-16.12,7.6-23.16q-2.56,11.39-5.11,22.73C239.1,154.85,243,155.75,246.64,151.47Z"/><path class="cls-20" d="M281.45,129.29l-30.2,9.08c1.53-4.06,3.1-5.2,6.66-5.6,6.66-.76,13.16-3,19.72-4.68,1.06-.27,2.1-.61,3.15-.91Z"/><path class="cls-18" d="M250.57,158.67c.77,1.12.27,4.79-2.36,6.27-1.15.65-5-.77-5.35-1.42-1.19-2.17.62-4.52.64-4.53C246.85,157.09,249.62,157.28,250.57,158.67Z"/><path class="cls-19" d="M219.92,116.64,212.35,114c.46-2.54.89-4.88,1.32-7.21C222.38,108.22,222.84,108.91,219.92,116.64Z"/><path class="cls-21" d="M162.52,101.4l-20.4,5.14C151.61,99.34,159.32,97.7,162.52,101.4Z"/><path class="cls-19" d="M190.5,98.32l-1.13,1.15-13.15-8,1.3-1.33,5.9,4.23Z"/><path class="cls-4" d="M229.3,99c-.05.64-2.68,3.21-2.73,3.85-3.2-.34-12-1.63-13.3-2-.31-1.3,1.55-3,1.25-4.29C219.26,97.22,224.56,98.45,229.3,99Z"/><path class="cls-15" d="M121.5,100.39a2,2,0,0,1-.12-.9l1-3.14,4-2.92-.09,4.85Z"/><path class="cls-15" d="M120.52,105.12l0-3.52Z"/><path class="cls-15" d="M120.72,101.44l.76-1Z"/><path class="cls-22" d="M85.69,75.62c-1.78-.72-4-13.78,2.17-15.48a26.93,26.93,0,0,1,13.1.33c4.31,4.16-.66,16-4.34,15.81-3.74-.93-3.62-6.37-3.89-6.87C92.31,70,91.06,77.77,85.69,75.62Z"/><path class="cls-3" d="M120.24,64.77,116,68.05l4.36,1.83-15.28,13.6-.61-.94q4-7.51,8-15Z"/><path class="cls-20" d="M120.24,64.77l-7.78,2.73c-.78-1.71-1.55-3.43-2.33-5.15l-.11-2,2.41.81a85.3,85.3,0,0,0,8.74,1.7c2,.21,21.61-5.14,23.69-5.33-.33.64.69,3.73.36,4.38C143.16,62.1,122.3,64.63,120.24,64.77Z"/><path class="cls-3" d="M112.43,61.21,110,60.4l.11,2c-.16,0-.41,0-.46-.12-1-2.23-2-4.47-2.91-6.75a10.25,10.25,0,0,1,1.81-1C109.92,56.7,111.17,59,112.43,61.21Z"/><path class="cls-3" d="M122.62,67.91l5.23-.34.23,1.88-5.19.76Z"/><path class="cls-3" d="M122.42,96.35l-1,3.14-6.74-1.69Z"/><path class="cls-15" d="M104.47,100.92q-1.06,3.12-2.14,6.24c0-2.07.07-4.14.21-6.19A15.08,15.08,0,0,1,104.47,100.92Z"/><path class="cls-3" d="M99.89,103.89H97l-.06-1,2.88-.26Z"/><path class="cls-3" d="M113.53,98.43l-3,2.27Z"/><path class="cls-3" d="M91.24,76.29l1-3.59Z"/><path class="cls-3" d="M114.8,97.68l-1.32.78Z"/><path class="cls-23" d="M175.69,66.58c2.33,7.25,5,12.1,13.17,14.61.09.83,0,2.26.32,2.39,4.43,1.6,8.9,3.11,13.42,4.44,4.22,1.25,8.52,2.25,12.79,3.37l.44,1.46c-1.24.75-2.64,2.32-3.71,2.12-7.32-1.36-14.61-2.94-21.81-4.82-2-.53-3.76-2.29-5.63-3.49-4.09-4.26-8.43-8.37-8.91-14.79l1.16-.64-1.16.65a5.08,5.08,0,0,0-.76-.42l-.39-3.91a4.18,4.18,0,0,0,.67-.72Z"/><path class="cls-12" d="M175.77,71.87c.48,6.42,4.82,10.53,8.91,14.79l-2.63,1-5.37-4.87c-1.12-2.62-2.23-5.24-3.35-7.87L175,71.46a5.08,5.08,0,0,1,.76.42Z"/><path class="cls-12" d="M290.1,86.89q1.15-9.39,2.3-18.77A103.36,103.36,0,0,1,290.1,86.89Z"/><path class="cls-12" d="M241.45,56.3q-.67,5.85-1.36,11.7Q240.77,62.15,241.45,56.3Z"/><path class="cls-12" d="M287.78,95.69l1.86-6.75Z"/><path class="cls-12" d="M260.36,99.54l-7.46-1Z"/><path class="cls-12" d="M278.67,61.44l-6.93-1.75Z"/><path class="cls-12" d="M256.16,55.78l-5.89-1.57Z"/><path class="cls-12" d="M250.29,54.22l-5.47-1.44Z"/><path class="cls-12" d="M263,57.54l-5-1.4Z"/><path class="cls-12" d="M283.52,62.77l-4.83-1.33Z"/><path class="cls-12" d="M288.47,94.35c.3-1.35.61-2.71.91-4.06C289.08,91.64,288.77,93,288.47,94.35Z"/><path class="cls-12" d="M287.43,98.35l.9-3.21Z"/><path class="cls-12" d="M288.31,63.91l-2.66-.71Z"/><path class="cls-12" d="M242.43,97.27l-3.62-.64Z"/><path class="cls-12" d="M292.61,88.21l-1,3.52Z"/><path class="cls-12" d="M267.85,58.86l-2.93-1Z"/><path class="cls-12" d="M292.22,65.2l-1.79-.74Z"/><path class="cls-19" d="M195.53,99.31l-2.06-.67Z"/><path class="cls-12" d="M276.47,106.73l2.24.49Z"/><path class="cls-12" d="M291.88,91.41c-.12.35-.24.7-.35,1C291.64,92.11,291.76,91.76,291.88,91.41Z"/><path class="cls-12" d="M243.77,52.59l-1.22-.12Z"/><path class="cls-12" d="M280.43,107.39l1,.09Z"/><path class="cls-12" d="M283.44,107.59l.9-.41Z"/><path class="cls-12" d="M235.3,90.35l-.21,1a5,5,0,0,1-.15-.75C234.94,90.51,235.18,90.43,235.3,90.35Z"/><path class="cls-12" d="M247.41,98l-1.53-.38Z"/><path class="cls-12" d="M236.53,94l1.24.2Z"/><path class="cls-12" d="M292.46,66a.88.88,0,0,1-.3-.91Z"/><path class="cls-12" d="M239.57,70.28a4.06,4.06,0,0,1,.09.7c0,.08-.18.16-.28.23C239.44,70.9,239.5,70.59,239.57,70.28Z"/><path class="cls-2" d="M148.44,66.36c-.05.66.16,1.63-.2,1.93-5.07,4.32-5.63,10.53-7.18,16.37-.17.65-1.48,1-2.94,1.94,1.55-4.95,3.17-8.81,3.92-12.84s3.21-5.85,6.38-7.42Z"/><path class="cls-2" d="M136.92,91.62l1.66-1.77c.21.2.64.52.6.6-.35.69-.78,1.33-1.19,2Z"/><path class="cls-4" d="M174.59,79.07l-1.28,3.63c-.66-2-1.33-4.08-2-6.13-.2-1.06-.41-2.13-.62-3.19l0-4,.32-1.6.31-1.39,2.14,3.14a.81.81,0,0,1-.06.87l.15,3.94,0-.1c0,.12-.12.26-.09.36a5.07,5.07,0,0,0,.27.68Z"/><path class="cls-4" d="M177.72,57.83a.43.43,0,0,1-.34.53l-.79,1.2.07-.1-1.32,2.72,0,.13-.61,1.62.07.26-.19.19-2.32-1.33c1.11-2.24,2.21-4.49,3.32-6.74Z"/><path class="cls-12" d="M172.25,63.05l2.32,1.33c-.1,1.53-.21,3.06-.31,4.59l-.76.51-2.14-3.14Z"/><path class="cls-12" d="M170.7,73.38c.21,1.06.42,2.13.62,3.19C171.12,75.51,170.91,74.44,170.7,73.38Z"/><path class="cls-12" d="M171.05,67.73l-.32,1.6Z"/><path class="cls-23" d="M173.5,69.48l.76-.51c.14,1.72.29,3.45.44,5.17l-.37.29-.76-.24,0,.1-.15-3.94A.81.81,0,0,0,173.5,69.48Z"/><path class="cls-12" d="M175.34,62.18l1.32-2.72Z"/><path class="cls-12" d="M174.69,63.93l.61-1.62Z"/><path class="cls-12" d="M176.59,59.56l.79-1.2Z"/><path class="cls-12" d="M173.57,74.19l.76.24a3.8,3.8,0,0,1-.58.8,5.07,5.07,0,0,1-.27-.68C173.45,74.45,173.54,74.31,173.57,74.19Z"/><path class="cls-12" d="M173.44,70.35l.15,3.94Z"/><path class="cls-9" d="M40.33,142l-5-2.33.5-.25c1.22-.55,4.52.76,4.55,2C40.39,141.59,40.33,142,40.33,142Z"/></g></g></svg>